# MagicaVoxel @ Ephtracy

# group
o 

# material
mtllib Robot Normal-5.mtl
usemtl palette

# normals
vn -1 0 0
vn 1 0 0
vn 0 0 1
vn 0 0 -1
vn 0 -1 0
vn 0 1 0

# texcoords
vt 0.533203 0.5
vt 0.564453 0.5
vt 0.580078 0.5
vt 0.595703 0.5

# verts
v 0 -1 0.1
v 0 -1 -0.1
v 0 -0.9 0.2
v 0 -0.9 0.1
v 0 -0.9 -0.1
v 0 -0.9 -0.2
v 0 -0.7 0.2
v 0 -0.7 0.1
v 0 -0.7 -0.1
v 0 -0.7 -0.2
v 0 -0.6 0.1
v 0 -0.6 -0.1
v 0 -0.2 0.1
v 0 -0.2 -0.1
v 0 -0.1 0.2
v 0 -0.1 0.1
v 0 -0.1 -0.1
v 0 -0.1 -0.2
v 0 0.1 0.2
v 0 0.1 0.1
v 0 0.1 -0.1
v 0 0.1 -0.2
v 0 0.2 0.1
v 0 0.2 -0.1
v 0.1 -0.6 0.1
v 0.1 -0.6 -0.1
v 0.1 -0.2 0.1
v 0.1 -0.2 -0.1
v 0.2 -0.4 0.3
v 0.2 -0.4 0.1
v 0.2 -0.4 -0.1
v 0.2 -0.4 -0.3
v 0.2 -0.1 0.2
v 0.2 -0.1 0.1
v 0.2 -0.1 -0.1
v 0.2 -0.1 -0.2
v 0.2 0.1 0.2
v 0.2 0.1 0.1
v 0.2 0.1 -0.1
v 0.2 0.1 -0.2
v 0.2 0.2 0.3
v 0.2 0.2 0.2
v 0.2 0.2 0.1
v 0.2 0.2 -0.1
v 0.2 0.2 -0.2
v 0.2 0.2 -0.3
v 0.2 0.3 -0.1
v 0.2 0.3 -0.2
v 0.2 0.4 0.2
v 0.2 0.4 -0.1
v 0.2 -1 0.1
v 0.2 -1 -0.1
v 0.2 -0.9 0.2
v 0.2 -0.9 0.1
v 0.2 -0.9 -0.1
v 0.2 -0.9 -0.2
v 0.2 -0.7 0.2
v 0.2 -0.7 0.1
v 0.2 -0.7 -0.1
v 0.2 -0.7 -0.2
v 0.2 -0.6 0.1
v 0.2 -0.6 -0.1
v 0.2 -0.4 0.1
v 0.2 -0.4 -0.1
v 0.3 -0.4 0.3
v 0.3 -0.4 0.1
v 0.3 -0.4 -0.1
v 0.3 -0.4 -0.3
v 0.3 -0.3 0.2
v 0.3 -0.3 0.1
v 0.3 -0.3 -0.1
v 0.3 -0.3 -0.2
v 0.3 0.1 0.2
v 0.3 0.1 0.1
v 0.3 0.2 0.3
v 0.3 0.2 0.2
v 0.3 0.2 -0.1
v 0.3 0.2 -0.2
v 0.3 0.2 -0.3
v 0.3 0.3 0.1
v 0.3 0.3 -0.1
v 0.3 0.3 -0.2
v 0.3 0.4 0.2
v 0.3 0.4 -0.1
v 0.4 -0.4 0.1
v 0.4 -0.4 -0.1
v 0.4 -0.3 0.2
v 0.4 -0.3 0.1
v 0.4 -0.3 -0.1
v 0.4 -0.3 -0.2
v 0.4 0.1 0.2
v 0.4 0.1 0.1
v 0.4 0.2 -0.1
v 0.4 0.2 -0.2
v 0.4 0.3 0.1
v 0.4 0.3 -0.1
v 0.2 -0.4 0.3
v 0.2 0.2 0.3
v 0.3 -0.4 0.3
v 0.3 0.2 0.3
v 0 -0.9 0.2
v 0 -0.7 0.2
v 0 -0.1 0.2
v 0 0.1 0.2
v 0.1 -0.1 0.2
v 0.1 0.1 0.2
v 0.2 -0.9 0.2
v 0.2 -0.7 0.2
v 0.2 -0.1 0.2
v 0.2 0.1 0.2
v 0.2 0.2 0.2
v 0.2 0.4 0.2
v 0.3 -0.3 0.2
v 0.3 0.1 0.2
v 0.3 0.2 0.2
v 0.3 0.4 0.2
v 0.4 -0.3 0.2
v 0.4 0.1 0.2
v 0 -1 0.1
v 0 -0.9 0.1
v 0 -0.7 0.1
v 0 -0.6 0.1
v 0 -0.2 0.1
v 0 -0.1 0.1
v 0 0.1 0.1
v 0 0.2 0.1
v 0.1 -0.6 0.1
v 0.1 -0.2 0.1
v 0.1 -0.1 0.1
v 0.1 0.1 0.1
v 0.1 0.2 0.1
v 0.2 -1 0.1
v 0.2 -0.9 0.1
v 0.2 -0.7 0.1
v 0.2 -0.6 0.1
v 0.2 -0.4 0.1
v 0.2 -0.1 0.1
v 0.2 0.1 0.1
v 0.2 0.2 0.1
v 0.3 -0.4 0.1
v 0.3 -0.3 0.1
v 0.3 0.1 0.1
v 0.3 0.3 0.1
v 0.4 -0.4 0.1
v 0.4 -0.3 0.1
v 0.4 0.1 0.1
v 0.4 0.3 0.1
v 0 -1 -0.1
v 0 -0.9 -0.1
v 0 -0.7 -0.1
v 0 -0.6 -0.1
v 0 -0.2 -0.1
v 0 -0.1 -0.1
v 0 0.1 -0.1
v 0 0.2 -0.1
v 0.1 -0.6 -0.1
v 0.1 -0.2 -0.1
v 0.1 -0.1 -0.1
v 0.1 0.1 -0.1
v 0.1 0.2 -0.1
v 0.2 -1 -0.1
v 0.2 -0.9 -0.1
v 0.2 -0.7 -0.1
v 0.2 -0.6 -0.1
v 0.2 -0.4 -0.1
v 0.2 -0.1 -0.1
v 0.2 0.1 -0.1
v 0.2 0.2 -0.1
v 0.2 0.3 -0.1
v 0.2 0.4 -0.1
v 0.3 -0.4 -0.1
v 0.3 -0.3 -0.1
v 0.3 0.2 -0.1
v 0.3 0.3 -0.1
v 0.3 0.4 -0.1
v 0.4 -0.4 -0.1
v 0.4 -0.3 -0.1
v 0.4 0.2 -0.1
v 0.4 0.3 -0.1
v 0 -0.9 -0.2
v 0 -0.7 -0.2
v 0 -0.1 -0.2
v 0 0.1 -0.2
v 0.1 -0.1 -0.2
v 0.1 0.1 -0.2
v 0.2 -0.9 -0.2
v 0.2 -0.7 -0.2
v 0.2 -0.1 -0.2
v 0.2 0.1 -0.2
v 0.2 0.2 -0.2
v 0.2 0.3 -0.2
v 0.3 -0.3 -0.2
v 0.3 0.2 -0.2
v 0.3 0.3 -0.2
v 0.4 -0.3 -0.2
v 0.4 0.2 -0.2
v 0.2 -0.4 -0.3
v 0.2 0.2 -0.3
v 0.3 -0.4 -0.3
v 0.3 0.2 -0.3
v 0 -1 0.1
v 0.2 -1 0.1
v 0 -1 -0.1
v 0.2 -1 -0.1
v 0 -0.9 0.2
v 0.2 -0.9 0.2
v 0 -0.9 0.1
v 0.2 -0.9 0.1
v 0 -0.9 -0.1
v 0.2 -0.9 -0.1
v 0 -0.9 -0.2
v 0.2 -0.9 -0.2
v 0.2 -0.4 0.3
v 0.3 -0.4 0.3
v 0.2 -0.4 0.1
v 0.3 -0.4 0.1
v 0.4 -0.4 0.1
v 0.2 -0.4 -0.1
v 0.3 -0.4 -0.1
v 0.4 -0.4 -0.1
v 0.2 -0.4 -0.3
v 0.3 -0.4 -0.3
v 0.3 -0.3 0.2
v 0.4 -0.3 0.2
v 0.3 -0.3 0.1
v 0.4 -0.3 0.1
v 0.3 -0.3 -0.1
v 0.4 -0.3 -0.1
v 0.3 -0.3 -0.2
v 0.4 -0.3 -0.2
v 0 -0.2 0.1
v 0.1 -0.2 0.1
v 0 -0.2 -0.1
v 0.1 -0.2 -0.1
v 0 -0.1 0.2
v 0.1 -0.1 0.2
v 0.2 -0.1 0.2
v 0 -0.1 0.1
v 0.1 -0.1 0.1
v 0.2 -0.1 0.1
v 0 -0.1 -0.1
v 0.1 -0.1 -0.1
v 0.2 -0.1 -0.1
v 0 -0.1 -0.2
v 0.1 -0.1 -0.2
v 0.2 -0.1 -0.2
v 0 -0.7 0.2
v 0.2 -0.7 0.2
v 0 -0.7 0.1
v 0.2 -0.7 0.1
v 0 -0.7 -0.1
v 0.2 -0.7 -0.1
v 0 -0.7 -0.2
v 0.2 -0.7 -0.2
v 0 -0.6 0.1
v 0.1 -0.6 0.1
v 0 -0.6 -0.1
v 0.1 -0.6 -0.1
v 0 0.1 0.2
v 0.1 0.1 0.2
v 0.2 0.1 0.2
v 0.3 0.1 0.2
v 0.4 0.1 0.2
v 0 0.1 0.1
v 0.1 0.1 0.1
v 0.2 0.1 0.1
v 0.3 0.1 0.1
v 0.4 0.1 0.1
v 0 0.1 -0.1
v 0.1 0.1 -0.1
v 0.2 0.1 -0.1
v 0 0.1 -0.2
v 0.1 0.1 -0.2
v 0.2 0.1 -0.2
v 0.2 0.2 0.3
v 0.3 0.2 0.3
v 0.2 0.2 0.2
v 0.3 0.2 0.2
v 0 0.2 0.1
v 0.1 0.2 0.1
v 0.2 0.2 0.1
v 0 0.2 -0.1
v 0.1 0.2 -0.1
v 0.2 0.2 -0.1
v 0.3 0.2 -0.1
v 0.4 0.2 -0.1
v 0.2 0.2 -0.2
v 0.3 0.2 -0.2
v 0.4 0.2 -0.2
v 0.2 0.2 -0.3
v 0.3 0.2 -0.3
v 0.3 0.3 0.1
v 0.4 0.3 0.1
v 0.2 0.3 -0.1
v 0.3 0.3 -0.1
v 0.4 0.3 -0.1
v 0.2 0.3 -0.2
v 0.3 0.3 -0.2
v 0.2 0.4 0.2
v 0.3 0.4 0.2
v 0.2 0.4 -0.1
v 0.3 0.4 -0.1

# faces
f 4/3/1 2/3/1 1/3/1
f 5/3/1 2/3/1 4/3/1
f 7/3/1 4/3/1 3/3/1
f 8/2/1 5/2/1 4/2/1
f 8/3/1 4/3/1 7/3/1
f 9/3/1 6/3/1 5/3/1
f 9/2/1 5/2/1 8/2/1
f 10/3/1 6/3/1 9/3/1
f 11/3/1 9/3/1 8/3/1
f 12/3/1 9/3/1 11/3/1
f 16/4/1 14/4/1 13/4/1
f 17/4/1 14/4/1 16/4/1
f 19/4/1 17/4/1 16/4/1
f 19/4/1 18/4/1 17/4/1
f 19/4/1 16/4/1 15/4/1
f 20/4/1 18/4/1 19/4/1
f 21/4/1 18/4/1 20/4/1
f 22/4/1 18/4/1 21/4/1
f 23/4/1 21/4/1 20/4/1
f 24/4/1 21/4/1 23/4/1
f 27/2/1 26/2/1 25/2/1
f 28/2/1 26/2/1 27/2/1
f 33/1/1 30/1/1 29/1/1
f 34/1/1 30/1/1 33/1/1
f 35/1/1 32/1/1 31/1/1
f 36/1/1 32/1/1 35/1/1
f 37/1/1 33/1/1 29/1/1
f 40/1/1 32/1/1 36/1/1
f 41/1/1 38/1/1 37/1/1
f 41/1/1 37/1/1 29/1/1
f 42/1/1 38/1/1 41/1/1
f 43/1/1 38/1/1 42/1/1
f 44/1/1 40/1/1 39/1/1
f 45/1/1 32/1/1 40/1/1
f 45/1/1 40/1/1 44/1/1
f 46/1/1 32/1/1 45/1/1
f 47/1/1 43/1/1 42/1/1
f 47/1/1 44/1/1 43/1/1
f 47/1/1 45/1/1 44/1/1
f 48/1/1 45/1/1 47/1/1
f 49/1/1 47/1/1 42/1/1
f 50/1/1 47/1/1 49/1/1
f 51/3/2 52/3/2 54/3/2
f 54/3/2 52/3/2 55/3/2
f 53/3/2 54/3/2 57/3/2
f 54/2/2 55/2/2 58/2/2
f 57/3/2 54/3/2 58/3/2
f 55/3/2 56/3/2 59/3/2
f 58/2/2 55/2/2 59/2/2
f 59/3/2 56/3/2 60/3/2
f 58/3/2 59/3/2 61/3/2
f 61/3/2 59/3/2 62/3/2
f 61/2/2 62/2/2 63/2/2
f 63/2/2 62/2/2 64/2/2
f 65/1/2 66/1/2 69/1/2
f 69/1/2 66/1/2 70/1/2
f 67/1/2 68/1/2 71/1/2
f 71/1/2 68/1/2 72/1/2
f 65/1/2 69/1/2 73/1/2
f 65/1/2 73/1/2 75/1/2
f 73/1/2 74/1/2 75/1/2
f 75/1/2 74/1/2 76/1/2
f 72/1/2 68/1/2 78/1/2
f 78/1/2 68/1/2 79/1/2
f 76/1/2 74/1/2 80/1/2
f 77/1/2 78/1/2 81/1/2
f 81/1/2 78/1/2 82/1/2
f 76/1/2 80/1/2 83/1/2
f 80/1/2 81/1/2 83/1/2
f 83/1/2 81/1/2 84/1/2
f 85/1/2 86/1/2 88/1/2
f 88/1/2 86/1/2 89/1/2
f 87/1/2 88/1/2 91/1/2
f 89/1/2 90/1/2 91/1/2
f 88/1/2 89/1/2 91/1/2
f 91/1/2 90/1/2 92/1/2
f 92/1/2 90/1/2 93/1/2
f 93/1/2 90/1/2 94/1/2
f 92/1/2 93/1/2 95/1/2
f 95/1/2 93/1/2 96/1/2
f 99/1/3 98/1/3 97/1/3
f 100/1/3 98/1/3 99/1/3
f 105/4/3 104/4/3 103/4/3
f 106/4/3 104/4/3 105/4/3
f 107/3/3 102/3/3 101/3/3
f 108/3/3 102/3/3 107/3/3
f 109/2/3 106/2/3 105/2/3
f 110/2/3 106/2/3 109/2/3
f 115/1/3 112/1/3 111/1/3
f 116/1/3 112/1/3 115/1/3
f 117/1/3 114/1/3 113/1/3
f 118/1/3 114/1/3 117/1/3
f 127/3/3 122/3/3 121/3/3
f 128/4/3 124/4/3 123/4/3
f 129/4/3 124/4/3 128/4/3
f 130/4/3 126/4/3 125/4/3
f 131/4/3 126/4/3 130/4/3
f 132/3/3 120/3/3 119/3/3
f 133/3/3 120/3/3 132/3/3
f 134/3/3 127/3/3 121/3/3
f 135/2/3 129/2/3 128/2/3
f 135/3/3 127/3/3 134/3/3
f 135/2/3 128/2/3 127/2/3
f 136/2/3 129/2/3 135/2/3
f 137/2/3 129/2/3 136/2/3
f 138/2/3 131/2/3 130/2/3
f 139/2/3 131/2/3 138/2/3
f 144/1/3 141/1/3 140/1/3
f 145/1/3 141/1/3 144/1/3
f 146/1/3 143/1/3 142/1/3
f 147/1/3 143/1/3 146/1/3
f 150/3/4 151/3/4 156/3/4
f 152/4/4 153/4/4 157/4/4
f 157/4/4 153/4/4 158/4/4
f 154/4/4 155/4/4 159/4/4
f 159/4/4 155/4/4 160/4/4
f 148/3/4 149/3/4 161/3/4
f 161/3/4 149/3/4 162/3/4
f 150/3/4 156/3/4 163/3/4
f 157/2/4 158/2/4 164/2/4
f 163/3/4 156/3/4 164/3/4
f 156/2/4 157/2/4 164/2/4
f 164/2/4 158/2/4 165/2/4
f 165/2/4 158/2/4 166/2/4
f 159/2/4 160/2/4 167/2/4
f 167/2/4 160/2/4 168/2/4
f 169/1/4 170/1/4 174/1/4
f 174/1/4 170/1/4 175/1/4
f 171/1/4 172/1/4 176/1/4
f 176/1/4 172/1/4 177/1/4
f 173/1/4 174/1/4 178/1/4
f 178/1/4 174/1/4 179/1/4
f 182/4/4 183/4/4 184/4/4
f 184/4/4 183/4/4 185/4/4
f 180/3/4 181/3/4 186/3/4
f 186/3/4 181/3/4 187/3/4
f 184/2/4 185/2/4 188/2/4
f 188/2/4 185/2/4 189/2/4
f 190/1/4 191/1/4 193/1/4
f 193/1/4 191/1/4 194/1/4
f 192/1/4 193/1/4 195/1/4
f 195/1/4 193/1/4 196/1/4
f 197/1/4 198/1/4 199/1/4
f 199/1/4 198/1/4 200/1/4
f 203/3/5 202/3/5 201/3/5
f 204/3/5 202/3/5 203/3/5
f 207/3/5 206/3/5 205/3/5
f 208/3/5 206/3/5 207/3/5
f 211/3/5 210/3/5 209/3/5
f 212/3/5 210/3/5 211/3/5
f 215/1/5 214/1/5 213/1/5
f 216/1/5 214/1/5 215/1/5
f 218/1/5 216/1/5 215/1/5
f 218/1/5 217/1/5 216/1/5
f 219/1/5 217/1/5 218/1/5
f 220/1/5 217/1/5 219/1/5
f 221/1/5 219/1/5 218/1/5
f 222/1/5 219/1/5 221/1/5
f 225/1/5 224/1/5 223/1/5
f 226/1/5 224/1/5 225/1/5
f 229/1/5 228/1/5 227/1/5
f 230/1/5 228/1/5 229/1/5
f 233/4/5 232/4/5 231/4/5
f 234/4/5 232/4/5 233/4/5
f 238/4/5 236/4/5 235/4/5
f 239/2/5 237/2/5 236/2/5
f 239/4/5 236/4/5 238/4/5
f 240/2/5 237/2/5 239/2/5
f 244/4/5 242/4/5 241/4/5
f 245/2/5 243/2/5 242/2/5
f 245/4/5 242/4/5 244/4/5
f 246/2/5 243/2/5 245/2/5
f 247/3/6 248/3/6 249/3/6
f 249/3/6 248/3/6 250/3/6
f 251/3/6 252/3/6 253/3/6
f 253/3/6 252/3/6 254/3/6
f 255/3/6 256/3/6 257/3/6
f 257/3/6 256/3/6 258/3/6
f 259/4/6 260/4/6 264/4/6
f 260/2/6 261/2/6 265/2/6
f 264/4/6 260/4/6 265/4/6
f 265/2/6 261/2/6 266/2/6
f 262/1/6 263/1/6 267/1/6
f 267/1/6 263/1/6 268/1/6
f 269/4/6 270/4/6 272/4/6
f 270/2/6 271/2/6 273/2/6
f 272/4/6 270/4/6 273/4/6
f 273/2/6 271/2/6 274/2/6
f 275/1/6 276/1/6 277/1/6
f 277/1/6 276/1/6 278/1/6
f 279/4/6 280/4/6 282/4/6
f 280/2/6 281/2/6 283/2/6
f 282/4/6 280/4/6 283/4/6
f 283/2/6 281/2/6 284/2/6
f 285/1/6 286/1/6 288/1/6
f 288/1/6 286/1/6 289/1/6
f 287/1/6 288/1/6 290/1/6
f 290/1/6 288/1/6 291/1/6
f 292/1/6 293/1/6 295/1/6
f 295/1/6 293/1/6 296/1/6
f 294/1/6 295/1/6 297/1/6
f 297/1/6 295/1/6 298/1/6
f 299/1/6 300/1/6 301/1/6
f 301/1/6 300/1/6 302/1/6
