# MagicaVoxel @ Ephtracy

# group
o 

# material
mtllib Robot Normal-4.mtl
usemtl palette

# normals
vn -1 0 0
vn 1 0 0
vn 0 0 1
vn 0 0 -1
vn 0 -1 0
vn 0 1 0

# texcoords
vt 0.533203 0.5
vt 0.564453 0.5
vt 0.580078 0.5

# verts
v 0 -1.4 0.1
v 0 -1.4 -0.1
v 0 -1.2 -0.1
v 0 -1.2 -0.2
v 0 -1.1 0.2
v 0 -1.1 0.1
v 0 -0.9 0.2
v 0 -0.9 -0.2
v 0 -0.8 0.2
v 0 -0.8 0.1
v 0 -0.8 -0.1
v 0 -0.8 -0.2
v 0 -0.2 0.1
v 0 -0.2 -0.1
v 0 -0.1 0.2
v 0 -0.1 0.1
v 0 -0.1 -0.1
v 0 -0.1 -0.2
v 0 0.1 0.2
v 0 0.1 0.1
v 0 0.1 -0.1
v 0 0.1 -0.2
v 0 0.2 0.1
v 0 0.2 -0.1
v 0.1 -1.4 0.1
v 0.1 -1.4 -0.1
v 0.1 -1.2 -0.1
v 0.1 -1.2 -0.2
v 0.1 -1.1 0.2
v 0.1 -1.1 0.1
v 0.1 -0.9 0.2
v 0.1 -0.9 0.1
v 0.1 -0.9 -0.1
v 0.1 -0.9 -0.2
v 0.1 -0.8 0.2
v 0.1 -0.8 0.1
v 0.1 -0.8 -0.1
v 0.1 -0.8 -0.2
v 0.1 -0.2 0.1
v 0.1 -0.2 -0.1
v 0.2 -0.9 0.1
v 0.2 -0.9 -0.1
v 0.2 -0.8 0.1
v 0.2 -0.8 -0.1
v 0.2 -0.2 0.1
v 0.2 -0.2 -0.1
v 0.2 -0.1 0.2
v 0.2 -0.1 0.1
v 0.2 -0.1 -0.1
v 0.2 -0.1 -0.2
v 0.2 0.1 0.2
v 0.2 0.1 0.1
v 0.2 0.1 -0.1
v 0.2 0.1 -0.2
v 0.2 0.2 0.1
v 0.2 0.2 -0.1
v 0 -1.1 0.2
v 0 -0.9 0.2
v 0 -0.8 0.2
v 0 -0.1 0.2
v 0 0.1 0.2
v 0.1 -1.1 0.2
v 0.1 -0.9 0.2
v 0.1 -0.8 0.2
v 0.2 -0.1 0.2
v 0.2 0.1 0.2
v 0 -1.4 0.1
v 0 -1.1 0.1
v 0 -0.8 0.1
v 0 -0.2 0.1
v 0 -0.1 0.1
v 0 0.1 0.1
v 0 0.2 0.1
v 0.1 -1.4 0.1
v 0.1 -1.1 0.1
v 0.1 -0.9 0.1
v 0.1 -0.8 0.1
v 0.1 -0.2 0.1
v 0.2 -0.9 0.1
v 0.2 -0.8 0.1
v 0.2 -0.2 0.1
v 0.2 -0.1 0.1
v 0.2 0.1 0.1
v 0.2 0.2 0.1
v 0 -1.4 -0.1
v 0 -1.2 -0.1
v 0 -0.8 -0.1
v 0 -0.2 -0.1
v 0 -0.1 -0.1
v 0 0.1 -0.1
v 0 0.2 -0.1
v 0.1 -1.4 -0.1
v 0.1 -1.2 -0.1
v 0.1 -0.9 -0.1
v 0.1 -0.8 -0.1
v 0.1 -0.2 -0.1
v 0.2 -0.9 -0.1
v 0.2 -0.8 -0.1
v 0.2 -0.2 -0.1
v 0.2 -0.1 -0.1
v 0.2 0.1 -0.1
v 0.2 0.2 -0.1
v 0 -1.2 -0.2
v 0 -0.9 -0.2
v 0 -0.8 -0.2
v 0 -0.1 -0.2
v 0 0.1 -0.2
v 0.1 -1.2 -0.2
v 0.1 -0.9 -0.2
v 0.1 -0.8 -0.2
v 0.2 -0.1 -0.2
v 0.2 0.1 -0.2
v 0 -1.4 0.1
v 0.1 -1.4 0.1
v 0 -1.4 -0.1
v 0.1 -1.4 -0.1
v 0 -1.2 -0.1
v 0.1 -1.2 -0.1
v 0 -1.2 -0.2
v 0.1 -1.2 -0.2
v 0 -1.1 0.2
v 0.1 -1.1 0.2
v 0 -1.1 0.1
v 0.1 -1.1 0.1
v 0.1 -0.9 0.1
v 0.2 -0.9 0.1
v 0.1 -0.9 -0.1
v 0.2 -0.9 -0.1
v 0.1 -0.2 0.1
v 0.2 -0.2 0.1
v 0.1 -0.2 -0.1
v 0.2 -0.2 -0.1
v 0 -0.1 0.2
v 0.2 -0.1 0.2
v 0 -0.1 0.1
v 0.2 -0.1 0.1
v 0 -0.1 -0.1
v 0.2 -0.1 -0.1
v 0 -0.1 -0.2
v 0.2 -0.1 -0.2
v 0 -0.8 0.2
v 0.1 -0.8 0.2
v 0 -0.8 0.1
v 0.1 -0.8 0.1
v 0.2 -0.8 0.1
v 0 -0.8 -0.1
v 0.1 -0.8 -0.1
v 0.2 -0.8 -0.1
v 0 -0.8 -0.2
v 0.1 -0.8 -0.2
v 0 0.1 0.2
v 0.2 0.1 0.2
v 0 0.1 0.1
v 0.2 0.1 0.1
v 0 0.1 -0.1
v 0.2 0.1 -0.1
v 0 0.1 -0.2
v 0.2 0.1 -0.2
v 0 0.2 0.1
v 0.2 0.2 0.1
v 0 0.2 -0.1
v 0.2 0.2 -0.1

# faces
f 3/1/1 2/1/1 1/1/1
f 6/1/1 3/1/1 1/1/1
f 6/1/1 4/1/1 3/1/1
f 7/1/1 6/1/1 5/1/1
f 8/1/1 4/1/1 6/1/1
f 8/1/1 6/1/1 7/1/1
f 9/3/1 8/3/1 7/3/1
f 10/3/1 8/3/1 9/3/1
f 11/3/1 8/3/1 10/3/1
f 12/3/1 8/3/1 11/3/1
f 13/2/1 11/2/1 10/2/1
f 14/2/1 11/2/1 13/2/1
f 16/3/1 14/3/1 13/3/1
f 17/3/1 14/3/1 16/3/1
f 19/3/1 16/3/1 15/3/1
f 20/2/1 17/2/1 16/2/1
f 20/3/1 16/3/1 19/3/1
f 21/3/1 18/3/1 17/3/1
f 21/2/1 17/2/1 20/2/1
f 22/3/1 18/3/1 21/3/1
f 23/3/1 21/3/1 20/3/1
f 24/3/1 21/3/1 23/3/1
f 25/1/2 26/1/2 27/1/2
f 25/1/2 27/1/2 30/1/2
f 27/1/2 28/1/2 30/1/2
f 29/1/2 30/1/2 31/1/2
f 30/1/2 28/1/2 32/1/2
f 31/1/2 30/1/2 32/1/2
f 32/1/2 28/1/2 33/1/2
f 33/1/2 28/1/2 34/1/2
f 31/3/2 32/3/2 35/3/2
f 35/3/2 32/3/2 36/3/2
f 33/3/2 34/3/2 37/3/2
f 37/3/2 34/3/2 38/3/2
f 36/2/2 37/2/2 39/2/2
f 39/2/2 37/2/2 40/2/2
f 41/3/2 42/3/2 43/3/2
f 43/3/2 42/3/2 44/3/2
f 45/3/2 46/3/2 48/3/2
f 48/3/2 46/3/2 49/3/2
f 47/3/2 48/3/2 51/3/2
f 48/2/2 49/2/2 52/2/2
f 51/3/2 48/3/2 52/3/2
f 49/3/2 50/3/2 53/3/2
f 52/2/2 49/2/2 53/2/2
f 53/3/2 50/3/2 54/3/2
f 52/3/2 53/3/2 55/3/2
f 55/3/2 53/3/2 56/3/2
f 62/1/3 58/1/3 57/1/3
f 63/3/3 59/3/3 58/3/3
f 63/1/3 58/1/3 62/1/3
f 64/3/3 59/3/3 63/3/3
f 65/3/3 61/3/3 60/3/3
f 66/3/3 61/3/3 65/3/3
f 74/1/3 68/1/3 67/1/3
f 75/1/3 68/1/3 74/1/3
f 77/2/3 70/2/3 69/2/3
f 78/3/3 71/3/3 70/3/3
f 78/2/3 70/2/3 77/2/3
f 79/3/3 77/3/3 76/3/3
f 80/3/3 77/3/3 79/3/3
f 81/3/3 71/3/3 78/3/3
f 82/3/3 71/3/3 81/3/3
f 83/3/3 73/3/3 72/3/3
f 84/3/3 73/3/3 83/3/3
f 85/1/4 86/1/4 92/1/4
f 92/1/4 86/1/4 93/1/4
f 87/2/4 88/2/4 95/2/4
f 88/3/4 89/3/4 96/3/4
f 95/2/4 88/2/4 96/2/4
f 94/3/4 95/3/4 97/3/4
f 97/3/4 95/3/4 98/3/4
f 96/3/4 89/3/4 99/3/4
f 99/3/4 89/3/4 100/3/4
f 90/3/4 91/3/4 101/3/4
f 101/3/4 91/3/4 102/3/4
f 103/1/4 104/1/4 108/1/4
f 104/3/4 105/3/4 109/3/4
f 108/1/4 104/1/4 109/1/4
f 109/3/4 105/3/4 110/3/4
f 106/3/4 107/3/4 111/3/4
f 111/3/4 107/3/4 112/3/4
f 115/1/5 114/1/5 113/1/5
f 116/1/5 114/1/5 115/1/5
f 119/1/5 118/1/5 117/1/5
f 120/1/5 118/1/5 119/1/5
f 123/1/5 122/1/5 121/1/5
f 124/1/5 122/1/5 123/1/5
f 127/3/5 126/3/5 125/3/5
f 128/3/5 126/3/5 127/3/5
f 131/3/5 130/3/5 129/3/5
f 132/3/5 130/3/5 131/3/5
f 135/3/5 134/3/5 133/3/5
f 136/3/5 134/3/5 135/3/5
f 139/3/5 138/3/5 137/3/5
f 140/3/5 138/3/5 139/3/5
f 141/3/6 142/3/6 143/3/6
f 143/3/6 142/3/6 144/3/6
f 144/3/6 145/3/6 147/3/6
f 147/3/6 145/3/6 148/3/6
f 146/3/6 147/3/6 149/3/6
f 149/3/6 147/3/6 150/3/6
f 151/3/6 152/3/6 153/3/6
f 153/3/6 152/3/6 154/3/6
f 155/3/6 156/3/6 157/3/6
f 157/3/6 156/3/6 158/3/6
f 159/3/6 160/3/6 161/3/6
f 161/3/6 160/3/6 162/3/6
