# MagicaVoxel @ Ephtracy

# group
o 

# material
mtllib Robot Normal-1.mtl
usemtl palette

# normals
vn -1 0 0
vn 1 0 0
vn 0 0 1
vn 0 0 -1
vn 0 -1 0
vn 0 1 0

# texcoords
vt 0.548828 0.5
vt 0.564453 0.5
vt 0.580078 0.5
vt 0.595703 0.5
vt 0.783203 0.5

# verts
v -0.3 0.6 -0.1
v -0.3 0.6 -0.2
v -0.3 1.1 -0.1
v -0.3 1.1 -0.2
v -0.2 0.5 0
v -0.2 0.5 -0.3
v -0.2 0.6 0.1
v -0.2 0.6 0
v -0.2 0.6 -0.1
v -0.2 0.6 -0.2
v -0.2 0.7 0.1
v -0.2 0.7 0
v -0.2 0.8 0
v -0.2 0.8 -0.1
v -0.2 0.8 -0.2
v -0.2 0.8 -0.3
v -0.1 0.3 0.1
v -0.1 0.3 -0.2
v -0.1 0.4 0.3
v -0.1 0.4 0.1
v -0.1 0.4 0
v -0.1 0.4 -0.2
v -0.1 0.4 -0.3
v -0.1 0.5 0.4
v -0.1 0.5 0.3
v -0.1 0.5 0
v -0.1 0.5 -0.3
v -0.1 0.5 -0.4
v -0.1 0.6 0.3
v -0.1 0.6 0.1
v -0.1 0.6 0
v -0.1 0.6 -0.3
v -0.1 0.6 -0.4
v -0.1 0.7 0.3
v -0.1 0.7 0.1
v -0.1 0.7 0
v -0.1 0.7 -0.3
v -0.1 0.7 -0.4
v -0.1 0.8 0.4
v -0.1 0.8 0.3
v -0.1 0.8 0
v -0.1 0.8 -0.3
v -0.1 0.8 -0.4
v -0.1 0.9 0.3
v -0.1 0.9 -0.3
v 0 0 0
v 0 0 -0.1
v 0 0.3 0
v 0 0.3 -0.1
v 0.1 0.6 0.4
v 0.1 0.6 0.3
v 0.1 0.7 0.4
v 0.1 0.7 0.3
v 0.3 0.8 -0.1
v 0.3 0.8 -0.2
v 0.3 1.1 -0.1
v 0.3 1.1 -0.2
v -0.2 0.8 -0.1
v -0.2 0.8 -0.2
v -0.2 1.1 -0.1
v -0.2 1.1 -0.2
v 0 0.6 0.4
v 0 0.6 0.3
v 0 0.7 0.4
v 0 0.7 0.3
v 0.1 0 0
v 0.1 0 -0.1
v 0.1 0.3 0
v 0.1 0.3 -0.1
v 0.2 0.3 0.1
v 0.2 0.3 -0.2
v 0.2 0.4 0.3
v 0.2 0.4 0.1
v 0.2 0.4 0
v 0.2 0.4 -0.2
v 0.2 0.4 -0.3
v 0.2 0.5 0.4
v 0.2 0.5 0.3
v 0.2 0.5 0
v 0.2 0.5 -0.3
v 0.2 0.5 -0.4
v 0.2 0.6 0.3
v 0.2 0.6 0.1
v 0.2 0.6 0
v 0.2 0.6 -0.3
v 0.2 0.6 -0.4
v 0.2 0.7 0.3
v 0.2 0.7 0.1
v 0.2 0.7 0
v 0.2 0.7 -0.3
v 0.2 0.7 -0.4
v 0.2 0.8 0.4
v 0.2 0.8 0.3
v 0.2 0.8 0
v 0.2 0.8 -0.3
v 0.2 0.8 -0.4
v 0.2 0.9 0.3
v 0.2 0.9 -0.3
v 0.3 0.5 0
v 0.3 0.5 -0.3
v 0.3 0.6 0.1
v 0.3 0.6 0
v 0.3 0.6 -0.1
v 0.3 0.6 -0.2
v 0.3 0.7 0.1
v 0.3 0.7 0
v 0.3 0.8 0
v 0.3 0.8 -0.1
v 0.3 0.8 -0.2
v 0.3 0.8 -0.3
v 0.4 0.6 -0.1
v 0.4 0.6 -0.2
v 0.4 1.1 -0.1
v 0.4 1.1 -0.2
v -0.1 0.5 0.4
v -0.1 0.8 0.4
v 0 0.6 0.4
v 0 0.7 0.4
v 0.1 0.6 0.4
v 0.1 0.7 0.4
v 0.2 0.5 0.4
v 0.2 0.8 0.4
v -0.1 0.4 0.3
v -0.1 0.5 0.3
v -0.1 0.8 0.3
v -0.1 0.9 0.3
v 0 0.6 0.3
v 0 0.7 0.3
v 0.1 0.6 0.3
v 0.1 0.7 0.3
v 0.2 0.4 0.3
v 0.2 0.5 0.3
v 0.2 0.8 0.3
v 0.2 0.9 0.3
v -0.2 0.6 0.1
v -0.2 0.7 0.1
v -0.1 0.3 0.1
v -0.1 0.4 0.1
v -0.1 0.6 0.1
v -0.1 0.7 0.1
v 0.2 0.3 0.1
v 0.2 0.4 0.1
v 0.2 0.6 0.1
v 0.2 0.7 0.1
v 0.3 0.6 0.1
v 0.3 0.7 0.1
v -0.2 0.5 0
v -0.2 0.6 0
v -0.2 0.7 0
v -0.2 0.8 0
v -0.1 0.5 0
v -0.1 0.6 0
v -0.1 0.7 0
v -0.1 0.8 0
v 0 0 0
v 0 0.3 0
v 0.1 0 0
v 0.1 0.3 0
v 0.2 0.5 0
v 0.2 0.6 0
v 0.2 0.7 0
v 0.2 0.8 0
v 0.3 0.5 0
v 0.3 0.6 0
v 0.3 0.7 0
v 0.3 0.8 0
v -0.3 0.6 -0.1
v -0.3 1.1 -0.1
v -0.2 0.6 -0.1
v -0.2 0.8 -0.1
v -0.2 1.1 -0.1
v 0.3 0.6 -0.1
v 0.3 0.8 -0.1
v 0.3 1.1 -0.1
v 0.4 0.6 -0.1
v 0.4 1.1 -0.1
v 0 0 -0.1
v 0 0.3 -0.1
v 0.1 0 -0.1
v 0.1 0.3 -0.1
v -0.3 0.6 -0.2
v -0.3 1.1 -0.2
v -0.2 0.6 -0.2
v -0.2 0.8 -0.2
v -0.2 1.1 -0.2
v -0.1 0.3 -0.2
v -0.1 0.4 -0.2
v 0.2 0.3 -0.2
v 0.2 0.4 -0.2
v 0.3 0.6 -0.2
v 0.3 0.8 -0.2
v 0.3 1.1 -0.2
v 0.4 0.6 -0.2
v 0.4 1.1 -0.2
v -0.2 0.5 -0.3
v -0.2 0.8 -0.3
v -0.1 0.4 -0.3
v -0.1 0.5 -0.3
v -0.1 0.6 -0.3
v -0.1 0.7 -0.3
v -0.1 0.8 -0.3
v -0.1 0.9 -0.3
v 0.2 0.4 -0.3
v 0.2 0.5 -0.3
v 0.2 0.6 -0.3
v 0.2 0.7 -0.3
v 0.2 0.8 -0.3
v 0.2 0.9 -0.3
v 0.3 0.5 -0.3
v 0.3 0.8 -0.3
v -0.1 0.5 -0.4
v -0.1 0.6 -0.4
v -0.1 0.7 -0.4
v -0.1 0.8 -0.4
v 0.2 0.5 -0.4
v 0.2 0.6 -0.4
v 0.2 0.7 -0.4
v 0.2 0.8 -0.4
v 0 0 0
v 0.1 0 0
v 0 0 -0.1
v 0.1 0 -0.1
v -0.1 0.3 0.1
v 0.2 0.3 0.1
v 0 0.3 0
v 0.1 0.3 0
v 0 0.3 -0.1
v 0.1 0.3 -0.1
v -0.1 0.3 -0.2
v 0.2 0.3 -0.2
v -0.1 0.4 0.3
v 0.2 0.4 0.3
v -0.1 0.4 0.1
v 0.2 0.4 0.1
v -0.1 0.4 -0.2
v 0.2 0.4 -0.2
v -0.1 0.4 -0.3
v 0.2 0.4 -0.3
v -0.1 0.5 0.4
v 0.2 0.5 0.4
v -0.1 0.5 0.3
v 0.2 0.5 0.3
v -0.2 0.5 0
v -0.1 0.5 0
v 0.2 0.5 0
v 0.3 0.5 0
v -0.2 0.5 -0.3
v -0.1 0.5 -0.3
v 0.2 0.5 -0.3
v 0.3 0.5 -0.3
v -0.1 0.5 -0.4
v 0.2 0.5 -0.4
v -0.2 0.6 0.1
v -0.1 0.6 0.1
v 0.2 0.6 0.1
v 0.3 0.6 0.1
v -0.2 0.6 0
v -0.1 0.6 0
v 0.2 0.6 0
v 0.3 0.6 0
v -0.3 0.6 -0.1
v -0.2 0.6 -0.1
v 0.3 0.6 -0.1
v 0.4 0.6 -0.1
v -0.3 0.6 -0.2
v -0.2 0.6 -0.2
v 0.3 0.6 -0.2
v 0.4 0.6 -0.2
v 0 0.7 0.4
v 0.1 0.7 0.4
v 0 0.7 0.3
v 0.1 0.7 0.3
v 0 0.6 0.4
v 0.1 0.6 0.4
v 0 0.6 0.3
v 0.1 0.6 0.3
v -0.2 0.7 0.1
v -0.1 0.7 0.1
v 0.2 0.7 0.1
v 0.3 0.7 0.1
v -0.2 0.7 0
v -0.1 0.7 0
v 0.2 0.7 0
v 0.3 0.7 0
v -0.1 0.8 0.4
v 0.2 0.8 0.4
v -0.1 0.8 0.3
v 0.2 0.8 0.3
v -0.2 0.8 0
v -0.1 0.8 0
v 0.2 0.8 0
v 0.3 0.8 0
v -0.2 0.8 -0.1
v 0.3 0.8 -0.1
v -0.2 0.8 -0.2
v 0.3 0.8 -0.2
v -0.2 0.8 -0.3
v -0.1 0.8 -0.3
v 0.2 0.8 -0.3
v 0.3 0.8 -0.3
v -0.1 0.8 -0.4
v 0.2 0.8 -0.4
v -0.1 0.9 0.3
v 0.2 0.9 0.3
v -0.1 0.9 -0.3
v 0.2 0.9 -0.3
v -0.3 1.1 -0.1
v -0.2 1.1 -0.1
v 0.3 1.1 -0.1
v 0.4 1.1 -0.1
v -0.3 1.1 -0.2
v -0.2 1.1 -0.2
v 0.3 1.1 -0.2
v 0.4 1.1 -0.2

# faces
f 3/3/1 2/3/1 1/3/1
f 4/3/1 2/3/1 3/3/1
f 8/2/1 6/2/1 5/2/1
f 9/2/1 6/2/1 8/2/1
f 10/2/1 6/2/1 9/2/1
f 11/2/1 8/2/1 7/2/1
f 11/2/1 9/2/1 8/2/1
f 12/2/1 9/2/1 11/2/1
f 13/2/1 9/2/1 12/2/1
f 14/2/1 9/2/1 13/2/1
f 15/2/1 6/2/1 10/2/1
f 16/2/1 6/2/1 15/2/1
f 20/3/1 18/3/1 17/3/1
f 21/3/1 18/3/1 20/3/1
f 22/3/1 18/3/1 21/3/1
f 25/1/1 20/1/1 19/1/1
f 25/1/1 21/1/1 20/1/1
f 26/2/1 23/2/1 22/2/1
f 26/2/1 22/2/1 21/2/1
f 26/1/1 21/1/1 25/1/1
f 27/2/1 23/2/1 26/2/1
f 29/4/1 25/4/1 24/4/1
f 29/1/1 26/1/1 25/1/1
f 30/1/1 26/1/1 29/1/1
f 31/1/1 26/1/1 30/1/1
f 32/1/1 28/1/1 27/1/1
f 33/1/1 28/1/1 32/1/1
f 34/4/1 29/4/1 24/4/1
f 34/4/1 30/4/1 29/4/1
f 35/4/1 30/4/1 34/4/1
f 37/4/1 33/4/1 32/4/1
f 38/4/1 33/4/1 37/4/1
f 39/4/1 34/4/1 24/4/1
f 40/1/1 36/1/1 35/1/1
f 40/4/1 34/4/1 39/4/1
f 40/1/1 35/1/1 34/1/1
f 41/1/1 36/1/1 40/1/1
f 42/1/1 38/1/1 37/1/1
f 43/1/1 38/1/1 42/1/1
f 44/1/1 41/1/1 40/1/1
f 44/1/1 42/1/1 41/1/1
f 45/1/1 42/1/1 44/1/1
f 48/4/1 47/4/1 46/4/1
f 49/4/1 47/4/1 48/4/1
f 52/4/1 51/4/1 50/4/1
f 53/4/1 51/4/1 52/4/1
f 56/3/1 55/3/1 54/3/1
f 57/3/1 55/3/1 56/3/1
f 58/3/2 59/3/2 60/3/2
f 60/3/2 59/3/2 61/3/2
f 62/4/2 63/4/2 64/4/2
f 64/4/2 63/4/2 65/4/2
f 66/4/2 67/4/2 68/4/2
f 68/4/2 67/4/2 69/4/2
f 70/3/2 71/3/2 73/3/2
f 73/3/2 71/3/2 74/3/2
f 74/3/2 71/3/2 75/3/2
f 72/1/2 73/1/2 78/1/2
f 73/1/2 74/1/2 78/1/2
f 75/2/2 76/2/2 79/2/2
f 74/2/2 75/2/2 79/2/2
f 78/1/2 74/1/2 79/1/2
f 79/2/2 76/2/2 80/2/2
f 77/4/2 78/4/2 82/4/2
f 78/1/2 79/1/2 82/1/2
f 82/1/2 79/1/2 83/1/2
f 83/1/2 79/1/2 84/1/2
f 80/1/2 81/1/2 85/1/2
f 85/1/2 81/1/2 86/1/2
f 77/4/2 82/4/2 87/4/2
f 82/4/2 83/4/2 87/4/2
f 87/4/2 83/4/2 88/4/2
f 85/4/2 86/4/2 90/4/2
f 90/4/2 86/4/2 91/4/2
f 77/4/2 87/4/2 92/4/2
f 88/1/2 89/1/2 93/1/2
f 92/4/2 87/4/2 93/4/2
f 87/1/2 88/1/2 93/1/2
f 93/1/2 89/1/2 94/1/2
f 90/1/2 91/1/2 95/1/2
f 95/1/2 91/1/2 96/1/2
f 93/1/2 94/1/2 97/1/2
f 94/1/2 95/1/2 97/1/2
f 97/1/2 95/1/2 98/1/2
f 99/2/2 100/2/2 102/2/2
f 102/2/2 100/2/2 103/2/2
f 103/2/2 100/2/2 104/2/2
f 101/2/2 102/2/2 105/2/2
f 102/2/2 103/2/2 105/2/2
f 105/2/2 103/2/2 106/2/2
f 106/2/2 103/2/2 107/2/2
f 107/2/2 103/2/2 108/2/2
f 104/2/2 100/2/2 109/2/2
f 109/2/2 100/2/2 110/2/2
f 111/3/2 112/3/2 113/3/2
f 113/3/2 112/3/2 114/3/2
f 117/4/3 116/4/3 115/4/3
f 118/4/3 116/4/3 117/4/3
f 119/4/3 117/4/3 115/4/3
f 120/4/3 116/4/3 118/4/3
f 121/4/3 119/4/3 115/4/3
f 121/4/3 120/4/3 119/4/3
f 122/4/3 116/4/3 120/4/3
f 122/4/3 120/4/3 121/4/3
f 129/5/3 128/5/3 127/5/3
f 130/5/3 128/5/3 129/5/3
f 131/1/3 124/1/3 123/1/3
f 132/1/3 124/1/3 131/1/3
f 133/1/3 126/1/3 125/1/3
f 134/1/3 126/1/3 133/1/3
f 139/2/3 136/2/3 135/2/3
f 140/2/3 136/2/3 139/2/3
f 141/3/3 138/3/3 137/3/3
f 142/3/3 138/3/3 141/3/3
f 145/2/3 144/2/3 143/2/3
f 146/2/3 144/2/3 145/2/3
f 151/2/3 148/2/3 147/2/3
f 152/2/3 148/2/3 151/2/3
f 153/2/3 150/2/3 149/2/3
f 154/2/3 150/2/3 153/2/3
f 157/4/3 156/4/3 155/4/3
f 158/4/3 156/4/3 157/4/3
f 163/2/3 160/2/3 159/2/3
f 164/2/3 160/2/3 163/2/3
f 165/2/3 162/2/3 161/2/3
f 166/2/3 162/2/3 165/2/3
f 169/3/3 168/3/3 167/3/3
f 170/3/3 168/3/3 169/3/3
f 171/3/3 168/3/3 170/3/3
f 175/3/3 173/3/3 172/3/3
f 175/3/3 174/3/3 173/3/3
f 176/3/3 174/3/3 175/3/3
f 177/4/4 178/4/4 179/4/4
f 179/4/4 178/4/4 180/4/4
f 181/3/4 182/3/4 183/3/4
f 183/3/4 182/3/4 184/3/4
f 184/3/4 182/3/4 185/3/4
f 186/3/4 187/3/4 188/3/4
f 188/3/4 187/3/4 189/3/4
f 190/3/4 191/3/4 193/3/4
f 191/3/4 192/3/4 193/3/4
f 193/3/4 192/3/4 194/3/4
f 195/2/4 196/2/4 198/2/4
f 198/2/4 196/2/4 199/2/4
f 199/2/4 196/2/4 200/2/4
f 200/2/4 196/2/4 201/2/4
f 197/2/4 198/2/4 203/2/4
f 203/2/4 198/2/4 204/2/4
f 201/1/4 202/1/4 207/1/4
f 207/1/4 202/1/4 208/1/4
f 205/2/4 206/2/4 209/2/4
f 206/2/4 207/2/4 209/2/4
f 204/2/4 205/2/4 209/2/4
f 209/2/4 207/2/4 210/2/4
f 211/1/4 212/1/4 215/1/4
f 212/4/4 213/4/4 216/4/4
f 215/1/4 212/1/4 216/1/4
f 213/1/4 214/1/4 217/1/4
f 216/4/4 213/4/4 217/4/4
f 217/1/4 214/1/4 218/1/4
f 221/4/5 220/4/5 219/4/5
f 222/4/5 220/4/5 221/4/5
f 225/3/5 224/3/5 223/3/5
f 226/3/5 224/3/5 225/3/5
f 227/3/5 225/3/5 223/3/5
f 228/3/5 224/3/5 226/3/5
f 229/3/5 227/3/5 223/3/5
f 229/3/5 228/3/5 227/3/5
f 230/3/5 224/3/5 228/3/5
f 230/3/5 228/3/5 229/3/5
f 233/1/5 232/1/5 231/1/5
f 234/1/5 232/1/5 233/1/5
f 237/2/5 236/2/5 235/2/5
f 238/2/5 236/2/5 237/2/5
f 241/4/5 240/4/5 239/4/5
f 242/4/5 240/4/5 241/4/5
f 247/2/5 244/2/5 243/2/5
f 248/2/5 244/2/5 247/2/5
f 249/2/5 246/2/5 245/2/5
f 250/2/5 246/2/5 249/2/5
f 251/1/5 249/1/5 248/1/5
f 252/1/5 249/1/5 251/1/5
f 257/2/5 254/2/5 253/2/5
f 258/2/5 254/2/5 257/2/5
f 259/2/5 256/2/5 255/2/5
f 260/2/5 256/2/5 259/2/5
f 265/3/5 262/3/5 261/3/5
f 266/3/5 262/3/5 265/3/5
f 267/3/5 264/3/5 263/3/5
f 268/3/5 264/3/5 267/3/5
f 271/4/5 270/4/5 269/4/5
f 272/4/5 270/4/5 271/4/5
f 273/4/6 274/4/6 275/4/6
f 275/4/6 274/4/6 276/4/6
f 277/2/6 278/2/6 281/2/6
f 281/2/6 278/2/6 282/2/6
f 279/2/6 280/2/6 283/2/6
f 283/2/6 280/2/6 284/2/6
f 285/4/6 286/4/6 287/4/6
f 287/4/6 286/4/6 288/4/6
f 289/2/6 290/2/6 293/2/6
f 291/2/6 292/2/6 294/2/6
f 293/2/6 290/2/6 295/2/6
f 291/2/6 294/2/6 296/2/6
f 295/2/6 290/2/6 297/2/6
f 297/2/6 290/2/6 298/2/6
f 291/2/6 296/2/6 299/2/6
f 299/2/6 296/2/6 300/2/6
f 298/1/6 299/1/6 301/1/6
f 301/1/6 299/1/6 302/1/6
f 303/1/6 304/1/6 305/1/6
f 305/1/6 304/1/6 306/1/6
f 307/3/6 308/3/6 311/3/6
f 311/3/6 308/3/6 312/3/6
f 309/3/6 310/3/6 313/3/6
f 313/3/6 310/3/6 314/3/6
