# MagicaVoxel @ Ephtracy

# group
o 

# material
mtllib Robot Normal-2.mtl
usemtl palette

# normals
vn -1 0 0
vn 1 0 0
vn 0 0 1
vn 0 0 -1
vn 0 -1 0
vn 0 1 0

# texcoords
vt 0.533203 0.5
vt 0.564453 0.5
vt 0.580078 0.5
vt 0.595703 0.5

# verts
v 0 -0.2 0.1
v 0 -0.2 -0.1
v 0 -0.1 0.2
v 0 -0.1 0.1
v 0 -0.1 -0.1
v 0 -0.1 -0.2
v 0 0.1 0.2
v 0 0.1 0.1
v 0 0.1 -0.1
v 0 0.1 -0.2
v 0 0.2 0.1
v 0 0.2 -0.1
v 0.1 -0.4 0.2
v 0.1 -0.4 -0.2
v 0.1 -0.2 0.3
v 0.1 -0.2 0.2
v 0.1 -0.2 0.1
v 0.1 -0.2 -0.1
v 0.1 -0.2 -0.2
v 0.1 -0.2 -0.3
v 0.1 -0.1 0.2
v 0.1 -0.1 0.1
v 0.1 -0.1 -0.1
v 0.1 -0.1 -0.2
v 0.1 0.1 0.2
v 0.1 0.1 0.1
v 0.1 0.1 -0.1
v 0.1 0.1 -0.2
v 0.1 0.2 0.3
v 0.1 0.2 0.2
v 0.1 0.2 0.1
v 0.1 0.2 -0.1
v 0.1 0.2 -0.2
v 0.1 0.2 -0.3
v 0.1 0.3 0.2
v 0.1 0.3 0.1
v 0.1 0.3 -0.1
v 0.1 0.3 -0.2
v 0.1 0.4 0.1
v 0.1 0.4 -0.1
v 0.2 -1.5 0.1
v 0.2 -1.5 -0.1
v 0.2 -1.4 0.2
v 0.2 -1.4 0.1
v 0.2 -1.4 -0.1
v 0.2 -1.4 -0.2
v 0.2 -1.2 0.2
v 0.2 -1.2 0.1
v 0.2 -1.2 -0.1
v 0.2 -1.2 -0.2
v 0.2 -1.1 0.1
v 0.2 -1.1 -0.1
v 0.2 -0.4 0.1
v 0.2 -0.4 -0.1
v 0.2 -0.4 0.2
v 0.2 -0.4 0.1
v 0.2 -0.4 -0.1
v 0.2 -0.4 -0.2
v 0.2 -0.2 0.3
v 0.2 -0.2 0.2
v 0.2 -0.2 0.1
v 0.2 -0.2 -0.1
v 0.2 -0.2 -0.2
v 0.2 -0.2 -0.3
v 0.2 0.2 0.3
v 0.2 0.2 0.2
v 0.2 0.2 -0.2
v 0.2 0.2 -0.3
v 0.2 0.3 0.2
v 0.2 0.3 0.1
v 0.2 0.3 -0.1
v 0.2 0.3 -0.2
v 0.2 0.4 0.1
v 0.2 0.4 -0.1
v 0.3 -1.5 0.1
v 0.3 -1.5 -0.1
v 0.3 -1.4 0.2
v 0.3 -1.4 0.1
v 0.3 -1.4 -0.1
v 0.3 -1.4 -0.2
v 0.3 -1.2 0.2
v 0.3 -1.2 0.1
v 0.3 -1.2 -0.1
v 0.3 -1.2 -0.2
v 0.3 -1.1 0.1
v 0.3 -1.1 -0.1
v 0.3 -0.2 0.2
v 0.3 -0.2 0.1
v 0.3 -0.2 -0.1
v 0.3 -0.2 -0.2
v 0.3 -0.1 0.1
v 0.3 -0.1 -0.1
v 0.3 0.1 0.1
v 0.3 0.1 -0.1
v 0.3 0.2 0.2
v 0.3 0.2 -0.2
v 0.1 -0.2 0.3
v 0.1 0.2 0.3
v 0.2 -0.2 0.3
v 0.2 0.2 0.3
v 0 -0.1 0.2
v 0 0.1 0.2
v 0.1 -0.4 0.2
v 0.1 -0.2 0.2
v 0.1 -0.1 0.2
v 0.1 0.1 0.2
v 0.1 0.2 0.2
v 0.1 0.3 0.2
v 0.2 -1.4 0.2
v 0.2 -1.2 0.2
v 0.2 -0.4 0.2
v 0.2 -0.2 0.2
v 0.2 0.2 0.2
v 0.2 0.3 0.2
v 0.3 -1.4 0.2
v 0.3 -1.2 0.2
v 0.3 -0.2 0.2
v 0.3 0.2 0.2
v 0 -0.2 0.1
v 0 -0.1 0.1
v 0 0.1 0.1
v 0 0.2 0.1
v 0.1 -0.2 0.1
v 0.1 -0.1 0.1
v 0.1 0.1 0.1
v 0.1 0.2 0.1
v 0.1 0.3 0.1
v 0.1 0.4 0.1
v 0.2 -1.5 0.1
v 0.2 -1.4 0.1
v 0.2 -1.2 0.1
v 0.2 -1.1 0.1
v 0.2 -0.4 0.1
v 0.2 -0.2 0.1
v 0.2 0.3 0.1
v 0.2 0.4 0.1
v 0.3 -1.5 0.1
v 0.3 -1.4 0.1
v 0.3 -1.2 0.1
v 0.3 -1.1 0.1
v 0.3 -0.2 0.1
v 0 -0.2 -0.1
v 0 -0.1 -0.1
v 0 0.1 -0.1
v 0 0.2 -0.1
v 0.1 -0.2 -0.1
v 0.1 -0.1 -0.1
v 0.1 0.1 -0.1
v 0.1 0.2 -0.1
v 0.1 0.3 -0.1
v 0.1 0.4 -0.1
v 0.2 -1.5 -0.1
v 0.2 -1.4 -0.1
v 0.2 -1.2 -0.1
v 0.2 -1.1 -0.1
v 0.2 -0.4 -0.1
v 0.2 -0.2 -0.1
v 0.2 0.3 -0.1
v 0.2 0.4 -0.1
v 0.3 -1.5 -0.1
v 0.3 -1.4 -0.1
v 0.3 -1.2 -0.1
v 0.3 -1.1 -0.1
v 0.3 -0.2 -0.1
v 0 -0.1 -0.2
v 0 0.1 -0.2
v 0.1 -0.4 -0.2
v 0.1 -0.2 -0.2
v 0.1 -0.1 -0.2
v 0.1 0.1 -0.2
v 0.1 0.2 -0.2
v 0.1 0.3 -0.2
v 0.2 -1.4 -0.2
v 0.2 -1.2 -0.2
v 0.2 -0.4 -0.2
v 0.2 -0.2 -0.2
v 0.2 0.2 -0.2
v 0.2 0.3 -0.2
v 0.3 -1.4 -0.2
v 0.3 -1.2 -0.2
v 0.3 -0.2 -0.2
v 0.3 0.2 -0.2
v 0.1 -0.2 -0.3
v 0.1 0.2 -0.3
v 0.2 -0.2 -0.3
v 0.2 0.2 -0.3
v 0.2 -1.5 0.1
v 0.3 -1.5 0.1
v 0.2 -1.5 -0.1
v 0.3 -1.5 -0.1
v 0.2 -1.4 0.2
v 0.3 -1.4 0.2
v 0.2 -1.4 0.1
v 0.3 -1.4 0.1
v 0.2 -1.4 -0.1
v 0.3 -1.4 -0.1
v 0.2 -1.4 -0.2
v 0.3 -1.4 -0.2
v 0.1 -0.4 0.2
v 0.2 -0.4 0.2
v 0.2 -0.4 0.1
v 0.2 -0.4 -0.1
v 0.1 -0.4 -0.2
v 0.2 -0.4 -0.2
v 0.1 -0.2 0.3
v 0.2 -0.2 0.3
v 0.1 -0.2 0.2
v 0.2 -0.2 0.2
v 0.3 -0.2 0.2
v 0 -0.2 0.1
v 0.1 -0.2 0.1
v 0.2 -0.2 0.1
v 0.3 -0.2 0.1
v 0 -0.2 -0.1
v 0.1 -0.2 -0.1
v 0.2 -0.2 -0.1
v 0.3 -0.2 -0.1
v 0.1 -0.2 -0.2
v 0.2 -0.2 -0.2
v 0.3 -0.2 -0.2
v 0.1 -0.2 -0.3
v 0.2 -0.2 -0.3
v 0 -0.1 0.2
v 0.1 -0.1 0.2
v 0 -0.1 0.1
v 0.1 -0.1 0.1
v 0 -0.1 -0.1
v 0.1 -0.1 -0.1
v 0 -0.1 -0.2
v 0.1 -0.1 -0.2
v 0.2 -1.2 0.2
v 0.3 -1.2 0.2
v 0.2 -1.2 0.1
v 0.3 -1.2 0.1
v 0.2 -1.2 -0.1
v 0.3 -1.2 -0.1
v 0.2 -1.2 -0.2
v 0.3 -1.2 -0.2
v 0 0.1 0.2
v 0.1 0.1 0.2
v 0 0.1 0.1
v 0.1 0.1 0.1
v 0 0.1 -0.1
v 0.1 0.1 -0.1
v 0 0.1 -0.2
v 0.1 0.1 -0.2
v 0.1 0.2 0.3
v 0.2 0.2 0.3
v 0.1 0.2 0.2
v 0.2 0.2 0.2
v 0.3 0.2 0.2
v 0 0.2 0.1
v 0.1 0.2 0.1
v 0 0.2 -0.1
v 0.1 0.2 -0.1
v 0.1 0.2 -0.2
v 0.2 0.2 -0.2
v 0.3 0.2 -0.2
v 0.1 0.2 -0.3
v 0.2 0.2 -0.3
v 0.1 0.3 0.2
v 0.2 0.3 0.2
v 0.1 0.3 0.1
v 0.2 0.3 0.1
v 0.1 0.3 -0.1
v 0.2 0.3 -0.1
v 0.1 0.3 -0.2
v 0.2 0.3 -0.2
v 0.1 0.4 0.1
v 0.2 0.4 0.1
v 0.1 0.4 -0.1
v 0.2 0.4 -0.1

# faces
f 4/4/1 2/4/1 1/4/1
f 5/4/1 2/4/1 4/4/1
f 7/4/1 4/4/1 3/4/1
f 7/4/1 6/4/1 5/4/1
f 7/4/1 5/4/1 4/4/1
f 8/4/1 6/4/1 7/4/1
f 9/4/1 6/4/1 8/4/1
f 10/4/1 6/4/1 9/4/1
f 11/4/1 9/4/1 8/4/1
f 12/4/1 9/4/1 11/4/1
f 16/1/1 14/1/1 13/1/1
f 17/1/1 14/1/1 16/1/1
f 18/1/1 14/1/1 17/1/1
f 19/1/1 14/1/1 18/1/1
f 21/1/1 16/1/1 15/1/1
f 21/1/1 17/1/1 16/1/1
f 22/1/1 17/1/1 21/1/1
f 23/1/1 20/1/1 19/1/1
f 23/1/1 19/1/1 18/1/1
f 24/1/1 20/1/1 23/1/1
f 25/1/1 21/1/1 15/1/1
f 28/1/1 20/1/1 24/1/1
f 29/1/1 26/1/1 25/1/1
f 29/1/1 25/1/1 15/1/1
f 30/1/1 26/1/1 29/1/1
f 31/1/1 26/1/1 30/1/1
f 32/1/1 28/1/1 27/1/1
f 33/1/1 20/1/1 28/1/1
f 33/1/1 28/1/1 32/1/1
f 34/1/1 20/1/1 33/1/1
f 35/1/1 31/1/1 30/1/1
f 35/1/1 32/1/1 31/1/1
f 35/1/1 33/1/1 32/1/1
f 36/1/1 33/1/1 35/1/1
f 37/1/1 33/1/1 36/1/1
f 38/1/1 33/1/1 37/1/1
f 39/1/1 37/1/1 36/1/1
f 40/1/1 37/1/1 39/1/1
f 44/3/1 42/3/1 41/3/1
f 45/3/1 42/3/1 44/3/1
f 47/3/1 44/3/1 43/3/1
f 48/2/1 45/2/1 44/2/1
f 48/3/1 44/3/1 47/3/1
f 49/3/1 46/3/1 45/3/1
f 49/2/1 45/2/1 48/2/1
f 50/3/1 46/3/1 49/3/1
f 51/3/1 49/3/1 48/3/1
f 52/3/1 49/3/1 51/3/1
f 53/2/1 52/2/1 51/2/1
f 54/2/1 52/2/1 53/2/1
f 55/1/2 56/1/2 60/1/2
f 60/1/2 56/1/2 61/1/2
f 57/1/2 58/1/2 62/1/2
f 62/1/2 58/1/2 63/1/2
f 59/1/2 60/1/2 65/1/2
f 65/1/2 60/1/2 66/1/2
f 63/1/2 64/1/2 67/1/2
f 67/1/2 64/1/2 68/1/2
f 66/1/2 67/1/2 69/1/2
f 69/1/2 67/1/2 70/1/2
f 70/1/2 67/1/2 71/1/2
f 71/1/2 67/1/2 72/1/2
f 70/1/2 71/1/2 73/1/2
f 73/1/2 71/1/2 74/1/2
f 75/3/2 76/3/2 78/3/2
f 78/3/2 76/3/2 79/3/2
f 77/3/2 78/3/2 81/3/2
f 78/2/2 79/2/2 82/2/2
f 81/3/2 78/3/2 82/3/2
f 79/3/2 80/3/2 83/3/2
f 82/2/2 79/2/2 83/2/2
f 83/3/2 80/3/2 84/3/2
f 82/3/2 83/3/2 85/3/2
f 85/3/2 83/3/2 86/3/2
f 85/2/2 86/2/2 88/2/2
f 88/2/2 86/2/2 89/2/2
f 88/3/2 89/3/2 91/3/2
f 89/3/2 90/3/2 91/3/2
f 87/3/2 88/3/2 91/3/2
f 91/3/2 90/3/2 92/3/2
f 87/3/2 91/3/2 93/3/2
f 91/2/2 92/2/2 93/2/2
f 92/3/2 90/3/2 94/3/2
f 93/2/2 92/2/2 94/2/2
f 87/3/2 93/3/2 95/3/2
f 93/3/2 94/3/2 95/3/2
f 94/3/2 90/3/2 96/3/2
f 95/3/2 94/3/2 96/3/2
f 99/1/3 98/1/3 97/1/3
f 100/1/3 98/1/3 99/1/3
f 105/4/3 102/4/3 101/4/3
f 106/4/3 102/4/3 105/4/3
f 111/1/3 104/1/3 103/1/3
f 112/1/3 104/1/3 111/1/3
f 113/1/3 108/1/3 107/1/3
f 114/1/3 108/1/3 113/1/3
f 115/3/3 110/3/3 109/3/3
f 116/3/3 110/3/3 115/3/3
f 117/3/3 113/3/3 112/3/3
f 118/3/3 113/3/3 117/3/3
f 123/4/3 120/4/3 119/4/3
f 124/4/3 120/4/3 123/4/3
f 125/4/3 122/4/3 121/4/3
f 126/4/3 122/4/3 125/4/3
f 135/1/3 128/1/3 127/1/3
f 136/1/3 128/1/3 135/1/3
f 137/3/3 130/3/3 129/3/3
f 138/3/3 130/3/3 137/3/3
f 139/3/3 132/3/3 131/3/3
f 140/2/3 134/2/3 133/2/3
f 140/3/3 132/3/3 139/3/3
f 140/2/3 133/2/3 132/2/3
f 141/2/3 134/2/3 140/2/3
f 142/4/4 143/4/4 146/4/4
f 146/4/4 143/4/4 147/4/4
f 144/4/4 145/4/4 148/4/4
f 148/4/4 145/4/4 149/4/4
f 150/1/4 151/1/4 158/1/4
f 158/1/4 151/1/4 159/1/4
f 152/3/4 153/3/4 160/3/4
f 160/3/4 153/3/4 161/3/4
f 154/3/4 155/3/4 162/3/4
f 156/2/4 157/2/4 163/2/4
f 162/3/4 155/3/4 163/3/4
f 155/2/4 156/2/4 163/2/4
f 163/2/4 157/2/4 164/2/4
f 165/4/4 166/4/4 169/4/4
f 169/4/4 166/4/4 170/4/4
f 167/1/4 168/1/4 175/1/4
f 175/1/4 168/1/4 176/1/4
f 171/1/4 172/1/4 177/1/4
f 177/1/4 172/1/4 178/1/4
f 173/3/4 174/3/4 179/3/4
f 179/3/4 174/3/4 180/3/4
f 176/3/4 177/3/4 181/3/4
f 181/3/4 177/3/4 182/3/4
f 183/1/4 184/1/4 185/1/4
f 185/1/4 184/1/4 186/1/4
f 189/3/5 188/3/5 187/3/5
f 190/3/5 188/3/5 189/3/5
f 193/3/5 192/3/5 191/3/5
f 194/3/5 192/3/5 193/3/5
f 197/3/5 196/3/5 195/3/5
f 198/3/5 196/3/5 197/3/5
f 201/1/5 200/1/5 199/1/5
f 202/1/5 201/1/5 199/1/5
f 203/1/5 202/1/5 199/1/5
f 204/1/5 202/1/5 203/1/5
f 207/1/5 206/1/5 205/1/5
f 208/1/5 206/1/5 207/1/5
f 212/3/5 209/3/5 208/3/5
f 213/3/5 209/3/5 212/3/5
f 214/4/5 211/4/5 210/4/5
f 215/4/5 211/4/5 214/4/5
f 219/3/5 217/3/5 216/3/5
f 220/3/5 217/3/5 219/3/5
f 221/1/5 219/1/5 218/1/5
f 222/1/5 219/1/5 221/1/5
f 225/4/5 224/4/5 223/4/5
f 226/4/5 224/4/5 225/4/5
f 229/4/5 228/4/5 227/4/5
f 230/4/5 228/4/5 229/4/5
f 231/3/6 232/3/6 233/3/6
f 233/3/6 232/3/6 234/3/6
f 235/3/6 236/3/6 237/3/6
f 237/3/6 236/3/6 238/3/6
f 239/4/6 240/4/6 241/4/6
f 241/4/6 240/4/6 242/4/6
f 243/4/6 244/4/6 245/4/6
f 245/4/6 244/4/6 246/4/6
f 247/1/6 248/1/6 249/1/6
f 249/1/6 248/1/6 250/1/6
f 252/4/6 253/4/6 254/4/6
f 254/4/6 253/4/6 255/4/6
f 250/3/6 251/3/6 257/3/6
f 257/3/6 251/3/6 258/3/6
f 256/1/6 257/1/6 259/1/6
f 259/1/6 257/1/6 260/1/6
f 261/1/6 262/1/6 263/1/6
f 263/1/6 262/1/6 264/1/6
f 265/1/6 266/1/6 267/1/6
f 267/1/6 266/1/6 268/1/6
f 269/1/6 270/1/6 271/1/6
f 271/1/6 270/1/6 272/1/6
