# MagicaVoxel @ Ephtracy

# group
o 

# material
mtllib Pez Pequeñisimo-2.mtl
usemtl palette

# normals
vn -1 0 0
vn 1 0 0
vn 0 0 1
vn 0 0 -1
vn 0 -1 0
vn 0 1 0

# texcoords
vt 0.470703 0.5
vt 0.564453 0.5
vt 0.568359 0.5
vt 0.814453 0.5
vt 0.880859 0.5

# verts
v -0.2 -0.1 0.1
v -0.2 -0.1 0
v -0.2 -0.1 -0.1
v -0.2 -0.1 -0.2
v -0.2 -1.49012e-08 0.1
v -0.2 -1.49012e-08 0
v -0.2 -1.49012e-08 -0.1
v -0.2 -1.49012e-08 -0.2
v -0.2 0.1 0.1
v -0.2 0.1 -0.1
v -0.2 0.1 -0.2
v -0.2 0.2 0.1
v -0.2 0.2 -0.1
v -0.2 0.2 -0.2
v -0.1 0.2 0
v -0.1 0.2 -0.1
v -0.1 0.3 0
v -0.1 0.3 -0.1
v 0 -0.1 0.1
v 0 -0.1 0
v 0 -0.1 -0.1
v 0 -0.1 -0.2
v 0 -1.49012e-08 0.1
v 0 -1.49012e-08 0
v 0 -1.49012e-08 -0.1
v 0 -1.49012e-08 -0.2
v 0 0.1 0.1
v 0 0.1 0
v 0 0.1 -0.1
v 0 0.1 -0.2
v 0 0.2 0.1
v 0 0.2 0
v 0 0.2 -0.1
v 0 0.2 -0.2
v 0 0.3 0
v 0 0.3 -0.1
v -0.2 -0.1 0.1
v -0.2 -1.49012e-08 0.1
v -0.2 0.1 0.1
v -0.2 0.2 0.1
v -0.1 -0.1 0.1
v -0.1 -1.49012e-08 0.1
v -0.1 0.1 0.1
v -0.1 0.2 0.1
v 0 -0.1 0.1
v 0 -1.49012e-08 0.1
v 0 0.1 0.1
v 0 0.2 0.1
v -0.1 0.2 0
v -0.1 0.3 0
v 0 0.2 0
v 0 0.3 0
v -0.1 0.2 -0.1
v -0.1 0.3 -0.1
v 0 0.2 -0.1
v 0 0.3 -0.1
v -0.2 -0.1 -0.2
v -0.2 -1.49012e-08 -0.2
v -0.2 0.1 -0.2
v -0.2 0.2 -0.2
v -0.1 -0.1 -0.2
v -0.1 -1.49012e-08 -0.2
v -0.1 0.1 -0.2
v -0.1 0.2 -0.2
v 0 -0.1 -0.2
v 0 -1.49012e-08 -0.2
v 0 0.1 -0.2
v 0 0.2 -0.2
v -0.2 -0.1 0.1
v -0.1 -0.1 0.1
v 0 -0.1 0.1
v -0.2 -0.1 0
v -0.1 -0.1 0
v 0 -0.1 0
v -0.2 -0.1 -0.1
v -0.1 -0.1 -0.1
v 0 -0.1 -0.1
v -0.2 -0.1 -0.2
v -0.1 -0.1 -0.2
v 0 -0.1 -0.2
v -0.2 0.2 0.1
v -0.1 0.2 0.1
v 0 0.2 0.1
v -0.1 0.2 0
v 0 0.2 0
v -0.2 0.2 -0.1
v -0.1 0.2 -0.1
v 0 0.2 -0.1
v -0.2 0.2 -0.2
v -0.1 0.2 -0.2
v 0 0.2 -0.2
v -0.1 0.3 0
v 0 0.3 0
v -0.1 0.3 -0.1
v 0 0.3 -0.1

# faces
f 5/3/1 2/3/1 1/3/1
f 6/2/1 3/2/1 2/2/1
f 6/3/1 2/3/1 5/3/1
f 7/3/1 4/3/1 3/3/1
f 7/2/1 3/2/1 6/2/1
f 8/3/1 4/3/1 7/3/1
f 9/4/1 6/4/1 5/4/1
f 9/4/1 7/4/1 6/4/1
f 9/4/1 8/4/1 7/4/1
f 10/4/1 8/4/1 9/4/1
f 11/4/1 8/4/1 10/4/1
f 12/3/1 10/3/1 9/3/1
f 13/2/1 11/2/1 10/2/1
f 13/3/1 10/3/1 12/3/1
f 14/2/1 11/2/1 13/2/1
f 17/3/1 16/3/1 15/3/1
f 18/3/1 16/3/1 17/3/1
f 19/4/2 20/4/2 23/4/2
f 20/3/2 21/3/2 24/3/2
f 23/4/2 20/4/2 24/4/2
f 21/4/2 22/4/2 25/4/2
f 24/3/2 21/3/2 25/3/2
f 25/4/2 22/4/2 26/4/2
f 23/1/2 24/1/2 27/1/2
f 24/2/2 25/2/2 28/2/2
f 27/1/2 24/1/2 28/1/2
f 25/1/2 26/1/2 29/1/2
f 28/2/2 25/2/2 29/2/2
f 29/1/2 26/1/2 30/1/2
f 27/2/2 28/2/2 31/2/2
f 28/5/2 29/5/2 32/5/2
f 31/2/2 28/2/2 32/2/2
f 29/3/2 30/3/2 33/3/2
f 32/5/2 29/5/2 33/5/2
f 33/3/2 30/3/2 34/3/2
f 32/3/2 33/3/2 35/3/2
f 35/3/2 33/3/2 36/3/2
f 41/3/3 38/3/3 37/3/3
f 42/4/3 39/4/3 38/4/3
f 42/3/3 38/3/3 41/3/3
f 43/3/3 40/3/3 39/3/3
f 43/4/3 39/4/3 42/4/3
f 44/3/3 40/3/3 43/3/3
f 45/4/3 42/4/3 41/4/3
f 46/1/3 43/1/3 42/1/3
f 46/4/3 42/4/3 45/4/3
f 47/2/3 44/2/3 43/2/3
f 47/1/3 43/1/3 46/1/3
f 48/2/3 44/2/3 47/2/3
f 51/3/3 50/3/3 49/3/3
f 52/3/3 50/3/3 51/3/3
f 53/3/4 54/3/4 55/3/4
f 55/3/4 54/3/4 56/3/4
f 57/3/4 58/3/4 61/3/4
f 58/4/4 59/4/4 62/4/4
f 61/3/4 58/3/4 62/3/4
f 59/2/4 60/2/4 63/2/4
f 62/4/4 59/4/4 63/4/4
f 63/2/4 60/2/4 64/2/4
f 61/4/4 62/4/4 65/4/4
f 62/1/4 63/1/4 66/1/4
f 65/4/4 62/4/4 66/4/4
f 63/3/4 64/3/4 67/3/4
f 66/1/4 63/1/4 67/1/4
f 67/3/4 64/3/4 68/3/4
f 72/3/5 70/3/5 69/3/5
f 73/4/5 71/4/5 70/4/5
f 73/3/5 70/3/5 72/3/5
f 74/4/5 71/4/5 73/4/5
f 75/2/5 73/2/5 72/2/5
f 76/3/5 74/3/5 73/3/5
f 76/2/5 73/2/5 75/2/5
f 77/3/5 74/3/5 76/3/5
f 78/3/5 76/3/5 75/3/5
f 79/4/5 77/4/5 76/4/5
f 79/3/5 76/3/5 78/3/5
f 80/4/5 77/4/5 79/4/5
f 81/3/6 82/3/6 84/3/6
f 82/2/6 83/2/6 84/2/6
f 84/2/6 83/2/6 85/2/6
f 81/3/6 84/3/6 86/3/6
f 86/3/6 84/3/6 87/3/6
f 86/2/6 87/2/6 89/2/6
f 87/3/6 88/3/6 90/3/6
f 89/2/6 87/2/6 90/2/6
f 90/3/6 88/3/6 91/3/6
f 92/3/6 93/3/6 94/3/6
f 94/3/6 93/3/6 95/3/6
