# MagicaVoxel @ Ephtracy

# group
o 

# material
mtllib Pez Payaso-1.mtl
usemtl palette

# normals
vn -1 0 0
vn 1 0 0
vn 0 0 1
vn 0 0 -1
vn 0 -1 0
vn 0 1 0

# texcoords
vt 0.376953 0.5
vt 0.380859 0.5
vt 0.384766 0.5
vt 0.388672 0.5
vt 0.392578 0.5
vt 0.396484 0.5
vt 0.470703 0.5
vt 0.486328 0.5
vt 0.501953 0.5

# verts
v 0 -0.3 0.1
v 0 -0.3 0
v 0 -0.3 -0.1
v 0 -0.3 -0.2
v 0 -0.2 0.1
v 0 -0.2 0
v 0 -0.2 -0.1
v 0 -0.2 -0.2
v 0 -0.1 0.1
v 0 -0.1 0
v 0 -0.1 -0.1
v 0 -0.1 -0.2
v 0 0 0.1
v 0 0 0
v 0 0 -0.1
v 0 0 -0.2
v 0 0.1 0.1
v 0 0.1 0
v 0 0.1 -0.1
v 0 0.1 -0.2
v 0 0.2 0.1
v 0 0.2 0
v 0 0.2 -0.1
v 0 0.2 -0.2
v 0 0.3 0.1
v 0 0.3 0
v 0 0.3 -0.1
v 0 0.3 -0.2
v 0.1 0.3 0
v 0.1 0.3 -0.1
v 0.1 0.4 0
v 0.1 0.4 -0.1
v 0.7 -0.3 0.1
v 0.7 -0.3 0
v 0.7 -0.3 -0.1
v 0.7 -0.3 -0.2
v 0.7 -0.2 0.1
v 0.7 -0.2 0
v 0.7 -0.2 -0.1
v 0.7 -0.2 -0.2
v 0.7 0.2 0.1
v 0.7 0.2 0
v 0.7 0.2 -0.1
v 0.7 0.2 -0.2
v 0.7 0.3 0.1
v 0.7 0.3 0
v 0.7 0.3 -0.1
v 0.7 0.3 -0.2
v 0.7 0.4 0
v 0.7 0.4 -0.1
v 0.8 -0.3 0
v 0.8 -0.3 -0.1
v 0.8 -0.2 0.1
v 0.8 -0.2 0
v 0.8 -0.2 -0.1
v 0.8 -0.2 -0.2
v 0.8 -0.1 0.1
v 0.8 -0.1 0
v 0.8 -0.1 -0.1
v 0.8 -0.1 -0.2
v 0.8 0 0.1
v 0.8 0 0
v 0.8 0 -0.1
v 0.8 0 -0.2
v 0.8 0.1 0.1
v 0.8 0.1 0
v 0.8 0.1 -0.1
v 0.8 0.1 -0.2
v 0.8 0.2 0.1
v 0.8 0.2 0
v 0.8 0.2 -0.1
v 0.8 0.2 -0.2
v 0.8 0.3 0
v 0.8 0.3 -0.1
v 0 -0.3 0.1
v 0 -0.2 0.1
v 0 -0.1 0.1
v 0 0 0.1
v 0 0.1 0.1
v 0 0.2 0.1
v 0 0.3 0.1
v 0.1 -0.3 0.1
v 0.1 -0.2 0.1
v 0.1 -0.1 0.1
v 0.1 0 0.1
v 0.1 0.1 0.1
v 0.1 0.2 0.1
v 0.1 0.3 0.1
v 0.2 -0.3 0.1
v 0.2 -0.2 0.1
v 0.2 -0.1 0.1
v 0.2 0 0.1
v 0.2 0.1 0.1
v 0.2 0.2 0.1
v 0.2 0.3 0.1
v 0.3 -0.3 0.1
v 0.3 -0.2 0.1
v 0.3 -0.1 0.1
v 0.3 0 0.1
v 0.3 0.1 0.1
v 0.3 0.2 0.1
v 0.3 0.3 0.1
v 0.4 -0.3 0.1
v 0.4 -0.2 0.1
v 0.4 -0.1 0.1
v 0.4 0 0.1
v 0.4 0.1 0.1
v 0.4 0.2 0.1
v 0.4 0.3 0.1
v 0.5 -0.3 0.1
v 0.5 -0.2 0.1
v 0.5 -0.1 0.1
v 0.5 0 0.1
v 0.5 0.1 0.1
v 0.5 0.2 0.1
v 0.5 0.3 0.1
v 0.6 -0.3 0.1
v 0.6 -0.2 0.1
v 0.6 -0.1 0.1
v 0.6 0 0.1
v 0.6 0.1 0.1
v 0.6 0.2 0.1
v 0.6 0.3 0.1
v 0.7 -0.3 0.1
v 0.7 -0.2 0.1
v 0.7 -0.1 0.1
v 0.7 0 0.1
v 0.7 0.1 0.1
v 0.7 0.2 0.1
v 0.7 0.3 0.1
v 0.8 -0.2 0.1
v 0.8 -0.1 0.1
v 0.8 0 0.1
v 0.8 0.1 0.1
v 0.8 0.2 0.1
v 0.1 0.3 0
v 0.1 0.4 0
v 0.2 0.3 0
v 0.2 0.4 0
v 0.3 0.3 0
v 0.4 0.3 0
v 0.4 0.4 0
v 0.5 0.3 0
v 0.6 0.3 0
v 0.6 0.4 0
v 0.7 -0.3 0
v 0.7 -0.2 0
v 0.7 0.2 0
v 0.7 0.3 0
v 0.7 0.4 0
v 0.8 -0.3 0
v 0.8 -0.2 0
v 0.8 0.2 0
v 0.8 0.3 0
v 0.1 0.3 -0.1
v 0.1 0.4 -0.1
v 0.2 0.3 -0.1
v 0.2 0.4 -0.1
v 0.3 0.3 -0.1
v 0.4 0.3 -0.1
v 0.4 0.4 -0.1
v 0.5 0.3 -0.1
v 0.6 0.3 -0.1
v 0.6 0.4 -0.1
v 0.7 -0.3 -0.1
v 0.7 -0.2 -0.1
v 0.7 0.2 -0.1
v 0.7 0.3 -0.1
v 0.7 0.4 -0.1
v 0.8 -0.3 -0.1
v 0.8 -0.2 -0.1
v 0.8 0.2 -0.1
v 0.8 0.3 -0.1
v 0 -0.3 -0.2
v 0 -0.2 -0.2
v 0 -0.1 -0.2
v 0 0 -0.2
v 0 0.1 -0.2
v 0 0.2 -0.2
v 0 0.3 -0.2
v 0.1 -0.3 -0.2
v 0.1 -0.2 -0.2
v 0.1 -0.1 -0.2
v 0.1 0 -0.2
v 0.1 0.1 -0.2
v 0.1 0.2 -0.2
v 0.1 0.3 -0.2
v 0.2 -0.3 -0.2
v 0.2 -0.2 -0.2
v 0.2 -0.1 -0.2
v 0.2 0 -0.2
v 0.2 0.1 -0.2
v 0.2 0.2 -0.2
v 0.2 0.3 -0.2
v 0.3 -0.3 -0.2
v 0.3 -0.2 -0.2
v 0.3 -0.1 -0.2
v 0.3 0 -0.2
v 0.3 0.1 -0.2
v 0.3 0.2 -0.2
v 0.3 0.3 -0.2
v 0.4 -0.3 -0.2
v 0.4 -0.2 -0.2
v 0.4 -0.1 -0.2
v 0.4 0 -0.2
v 0.4 0.1 -0.2
v 0.4 0.2 -0.2
v 0.4 0.3 -0.2
v 0.5 -0.3 -0.2
v 0.5 -0.2 -0.2
v 0.5 -0.1 -0.2
v 0.5 0 -0.2
v 0.5 0.1 -0.2
v 0.5 0.2 -0.2
v 0.5 0.3 -0.2
v 0.6 -0.3 -0.2
v 0.6 -0.2 -0.2
v 0.6 -0.1 -0.2
v 0.6 0 -0.2
v 0.6 0.1 -0.2
v 0.6 0.2 -0.2
v 0.6 0.3 -0.2
v 0.7 -0.3 -0.2
v 0.7 -0.2 -0.2
v 0.7 -0.1 -0.2
v 0.7 0 -0.2
v 0.7 0.1 -0.2
v 0.7 0.2 -0.2
v 0.7 0.3 -0.2
v 0.8 -0.2 -0.2
v 0.8 -0.1 -0.2
v 0.8 0 -0.2
v 0.8 0.1 -0.2
v 0.8 0.2 -0.2
v 0 -0.3 0.1
v 0.1 -0.3 0.1
v 0.2 -0.3 0.1
v 0.3 -0.3 0.1
v 0.4 -0.3 0.1
v 0.5 -0.3 0.1
v 0.6 -0.3 0.1
v 0.7 -0.3 0.1
v 0 -0.3 0
v 0.1 -0.3 0
v 0.2 -0.3 0
v 0.3 -0.3 0
v 0.4 -0.3 0
v 0.5 -0.3 0
v 0.6 -0.3 0
v 0.7 -0.3 0
v 0.8 -0.3 0
v 0 -0.3 -0.1
v 0.1 -0.3 -0.1
v 0.2 -0.3 -0.1
v 0.3 -0.3 -0.1
v 0.4 -0.3 -0.1
v 0.5 -0.3 -0.1
v 0.6 -0.3 -0.1
v 0.7 -0.3 -0.1
v 0.8 -0.3 -0.1
v 0 -0.3 -0.2
v 0.1 -0.3 -0.2
v 0.2 -0.3 -0.2
v 0.3 -0.3 -0.2
v 0.4 -0.3 -0.2
v 0.5 -0.3 -0.2
v 0.6 -0.3 -0.2
v 0.7 -0.3 -0.2
v 0.7 -0.2 0.1
v 0.8 -0.2 0.1
v 0.7 -0.2 0
v 0.8 -0.2 0
v 0.7 -0.2 -0.1
v 0.8 -0.2 -0.1
v 0.7 -0.2 -0.2
v 0.8 -0.2 -0.2
v 0.7 0.2 0.1
v 0.8 0.2 0.1
v 0.7 0.2 0
v 0.8 0.2 0
v 0.7 0.2 -0.1
v 0.8 0.2 -0.1
v 0.7 0.2 -0.2
v 0.8 0.2 -0.2
v 0 0.3 0.1
v 0.1 0.3 0.1
v 0.2 0.3 0.1
v 0.3 0.3 0.1
v 0.4 0.3 0.1
v 0.5 0.3 0.1
v 0.6 0.3 0.1
v 0.7 0.3 0.1
v 0 0.3 0
v 0.1 0.3 0
v 0.2 0.3 0
v 0.3 0.3 0
v 0.4 0.3 0
v 0.5 0.3 0
v 0.6 0.3 0
v 0.7 0.3 0
v 0.8 0.3 0
v 0 0.3 -0.1
v 0.1 0.3 -0.1
v 0.2 0.3 -0.1
v 0.3 0.3 -0.1
v 0.4 0.3 -0.1
v 0.5 0.3 -0.1
v 0.6 0.3 -0.1
v 0.7 0.3 -0.1
v 0.8 0.3 -0.1
v 0 0.3 -0.2
v 0.1 0.3 -0.2
v 0.2 0.3 -0.2
v 0.3 0.3 -0.2
v 0.4 0.3 -0.2
v 0.5 0.3 -0.2
v 0.6 0.3 -0.2
v 0.7 0.3 -0.2
v 0.1 0.4 0
v 0.2 0.4 0
v 0.4 0.4 0
v 0.6 0.4 0
v 0.7 0.4 0
v 0.1 0.4 -0.1
v 0.2 0.4 -0.1
v 0.4 0.4 -0.1
v 0.6 0.4 -0.1
v 0.7 0.4 -0.1

# faces
f 5/1/1 2/1/1 1/1/1
f 6/3/1 3/3/1 2/3/1
f 6/1/1 2/1/1 5/1/1
f 7/1/1 4/1/1 3/1/1
f 7/3/1 3/3/1 6/3/1
f 8/1/1 4/1/1 7/1/1
f 9/3/1 6/3/1 5/3/1
f 10/1/1 7/1/1 6/1/1
f 10/3/1 6/3/1 9/3/1
f 11/3/1 8/3/1 7/3/1
f 11/1/1 7/1/1 10/1/1
f 12/3/1 8/3/1 11/3/1
f 13/2/1 10/2/1 9/2/1
f 14/1/1 11/1/1 10/1/1
f 14/2/1 10/2/1 13/2/1
f 14/1/1 12/1/1 11/1/1
f 15/1/1 12/1/1 14/1/1
f 16/1/1 12/1/1 15/1/1
f 17/4/1 14/4/1 13/4/1
f 18/2/1 15/2/1 14/2/1
f 18/4/1 14/4/1 17/4/1
f 19/4/1 16/4/1 15/4/1
f 19/2/1 15/2/1 18/2/1
f 20/4/1 16/4/1 19/4/1
f 21/2/1 18/2/1 17/2/1
f 22/1/1 19/1/1 18/1/1
f 22/2/1 18/2/1 21/2/1
f 23/2/1 20/2/1 19/2/1
f 23/1/1 19/1/1 22/1/1
f 24/2/1 20/2/1 23/2/1
f 25/4/1 22/4/1 21/4/1
f 26/1/1 23/1/1 22/1/1
f 26/4/1 22/4/1 25/4/1
f 27/4/1 24/4/1 23/4/1
f 27/1/1 23/1/1 26/1/1
f 28/4/1 24/4/1 27/4/1
f 31/5/1 30/5/1 29/5/1
f 32/5/1 30/5/1 31/5/1
f 33/9/2 34/9/2 37/9/2
f 37/9/2 34/9/2 38/9/2
f 35/7/2 36/7/2 39/7/2
f 39/7/2 36/7/2 40/7/2
f 41/4/2 42/4/2 45/4/2
f 45/4/2 42/4/2 46/4/2
f 43/4/2 44/4/2 47/4/2
f 47/4/2 44/4/2 48/4/2
f 46/6/2 47/6/2 49/6/2
f 49/6/2 47/6/2 50/6/2
f 51/2/2 52/2/2 54/2/2
f 54/2/2 52/2/2 55/2/2
f 53/2/2 54/2/2 57/2/2
f 54/1/2 55/1/2 58/1/2
f 57/2/2 54/2/2 58/2/2
f 55/2/2 56/2/2 59/2/2
f 58/1/2 55/1/2 59/1/2
f 59/2/2 56/2/2 60/2/2
f 57/3/2 58/3/2 61/3/2
f 58/2/2 59/2/2 62/2/2
f 61/3/2 58/3/2 62/3/2
f 59/4/2 60/4/2 63/4/2
f 62/2/2 59/2/2 63/2/2
f 63/4/2 60/4/2 64/4/2
f 61/2/2 62/2/2 65/2/2
f 62/1/2 63/1/2 66/1/2
f 65/2/2 62/2/2 66/2/2
f 63/2/2 64/2/2 67/2/2
f 66/1/2 63/1/2 67/1/2
f 67/2/2 64/2/2 68/2/2
f 65/3/2 66/3/2 69/3/2
f 66/2/2 67/2/2 70/2/2
f 69/3/2 66/3/2 70/3/2
f 67/3/2 68/3/2 71/3/2
f 70/2/2 67/2/2 71/2/2
f 71/3/2 68/3/2 72/3/2
f 70/1/2 71/1/2 73/1/2
f 73/1/2 71/1/2 74/1/2
f 82/1/3 76/1/3 75/1/3
f 83/3/3 77/3/3 76/3/3
f 83/1/3 76/1/3 82/1/3
f 84/2/3 78/2/3 77/2/3
f 84/3/3 77/3/3 83/3/3
f 85/4/3 79/4/3 78/4/3
f 85/2/3 78/2/3 84/2/3
f 86/2/3 80/2/3 79/2/3
f 86/4/3 79/4/3 85/4/3
f 87/4/3 81/4/3 80/4/3
f 87/2/3 80/2/3 86/2/3
f 88/4/3 81/4/3 87/4/3
f 89/7/3 83/7/3 82/7/3
f 90/8/3 84/8/3 83/8/3
f 90/7/3 83/7/3 89/7/3
f 90/8/3 85/8/3 84/8/3
f 91/8/3 85/8/3 90/8/3
f 92/1/3 86/1/3 85/1/3
f 92/8/3 85/8/3 91/8/3
f 93/8/3 87/8/3 86/8/3
f 93/1/3 86/1/3 92/1/3
f 94/9/3 88/9/3 87/9/3
f 94/8/3 87/8/3 93/8/3
f 95/9/3 88/9/3 94/9/3
f 96/2/3 90/2/3 89/2/3
f 97/4/3 91/4/3 90/4/3
f 97/2/3 90/2/3 96/2/3
f 98/7/3 93/7/3 92/7/3
f 98/4/3 91/4/3 97/4/3
f 98/7/3 92/7/3 91/7/3
f 98/7/3 94/7/3 93/7/3
f 99/7/3 94/7/3 98/7/3
f 100/7/3 94/7/3 99/7/3
f 101/3/3 95/3/3 94/3/3
f 101/7/3 94/7/3 100/7/3
f 102/3/3 95/3/3 101/3/3
f 103/4/3 97/4/3 96/4/3
f 104/1/3 98/1/3 97/1/3
f 104/4/3 97/4/3 103/4/3
f 105/4/3 99/4/3 98/4/3
f 105/1/3 98/1/3 104/1/3
f 106/1/3 100/1/3 99/1/3
f 106/4/3 99/4/3 105/4/3
f 107/4/3 101/4/3 100/4/3
f 107/1/3 100/1/3 106/1/3
f 108/1/3 102/1/3 101/1/3
f 108/4/3 101/4/3 107/4/3
f 109/1/3 102/1/3 108/1/3
f 110/2/3 104/2/3 103/2/3
f 111/3/3 105/3/3 104/3/3
f 111/2/3 104/2/3 110/2/3
f 112/2/3 106/2/3 105/2/3
f 112/3/3 105/3/3 111/3/3
f 113/8/3 107/8/3 106/8/3
f 113/2/3 106/2/3 112/2/3
f 114/9/3 108/9/3 107/9/3
f 114/8/3 107/8/3 113/8/3
f 115/8/3 109/8/3 108/8/3
f 115/9/3 108/9/3 114/9/3
f 116/8/3 109/8/3 115/8/3
f 117/4/3 111/4/3 110/4/3
f 118/7/3 112/7/3 111/7/3
f 118/4/3 111/4/3 117/4/3
f 119/9/3 113/9/3 112/9/3
f 119/7/3 112/7/3 118/7/3
f 120/7/3 114/7/3 113/7/3
f 120/9/3 113/9/3 119/9/3
f 121/4/3 115/4/3 114/4/3
f 121/7/3 114/7/3 120/7/3
f 122/1/3 116/1/3 115/1/3
f 122/4/3 115/4/3 121/4/3
f 123/1/3 116/1/3 122/1/3
f 124/9/3 118/9/3 117/9/3
f 124/9/3 119/9/3 118/9/3
f 125/9/3 119/9/3 124/9/3
f 126/2/3 120/2/3 119/2/3
f 126/9/3 119/9/3 125/9/3
f 127/4/3 121/4/3 120/4/3
f 127/2/3 120/2/3 126/2/3
f 128/2/3 122/2/3 121/2/3
f 128/4/3 121/4/3 127/4/3
f 129/4/3 123/4/3 122/4/3
f 129/2/3 122/2/3 128/2/3
f 130/4/3 123/4/3 129/4/3
f 131/2/3 126/2/3 125/2/3
f 132/3/3 127/3/3 126/3/3
f 132/2/3 126/2/3 131/2/3
f 133/2/3 128/2/3 127/2/3
f 133/3/3 127/3/3 132/3/3
f 134/3/3 129/3/3 128/3/3
f 134/2/3 128/2/3 133/2/3
f 135/3/3 129/3/3 134/3/3
f 138/5/3 137/5/3 136/5/3
f 139/5/3 137/5/3 138/5/3
f 140/6/3 139/6/3 138/6/3
f 141/6/3 139/6/3 140/6/3
f 142/6/3 139/6/3 141/6/3
f 143/5/3 142/5/3 141/5/3
f 144/5/3 142/5/3 143/5/3
f 145/5/3 142/5/3 144/5/3
f 149/6/3 145/6/3 144/6/3
f 150/6/3 145/6/3 149/6/3
f 151/2/3 147/2/3 146/2/3
f 152/2/3 147/2/3 151/2/3
f 153/1/3 149/1/3 148/1/3
f 154/1/3 149/1/3 153/1/3
f 155/5/4 156/5/4 157/5/4
f 157/5/4 156/5/4 158/5/4
f 157/6/4 158/6/4 159/6/4
f 159/6/4 158/6/4 160/6/4
f 160/6/4 158/6/4 161/6/4
f 160/5/4 161/5/4 162/5/4
f 162/5/4 161/5/4 163/5/4
f 163/5/4 161/5/4 164/5/4
f 163/6/4 164/6/4 168/6/4
f 168/6/4 164/6/4 169/6/4
f 165/2/4 166/2/4 170/2/4
f 170/2/4 166/2/4 171/2/4
f 167/1/4 168/1/4 172/1/4
f 172/1/4 168/1/4 173/1/4
f 174/1/4 175/1/4 181/1/4
f 175/3/4 176/3/4 182/3/4
f 181/1/4 175/1/4 182/1/4
f 176/1/4 177/1/4 183/1/4
f 182/3/4 176/3/4 183/3/4
f 177/4/4 178/4/4 184/4/4
f 183/1/4 177/1/4 184/1/4
f 178/2/4 179/2/4 185/2/4
f 184/4/4 178/4/4 185/4/4
f 179/4/4 180/4/4 186/4/4
f 185/2/4 179/2/4 186/2/4
f 186/4/4 180/4/4 187/4/4
f 181/8/4 182/8/4 188/8/4
f 182/8/4 183/8/4 188/8/4
f 188/8/4 183/8/4 189/8/4
f 183/9/4 184/9/4 190/9/4
f 189/8/4 183/8/4 190/8/4
f 184/2/4 185/2/4 191/2/4
f 190/9/4 184/9/4 191/9/4
f 185/9/4 186/9/4 192/9/4
f 191/2/4 185/2/4 192/2/4
f 186/8/4 187/8/4 193/8/4
f 192/9/4 186/9/4 193/9/4
f 193/8/4 187/8/4 194/8/4
f 188/1/4 189/1/4 195/1/4
f 189/4/4 190/4/4 196/4/4
f 195/1/4 189/1/4 196/1/4
f 190/7/4 191/7/4 197/7/4
f 196/4/4 190/4/4 197/4/4
f 191/9/4 192/9/4 198/9/4
f 197/7/4 191/7/4 198/7/4
f 192/7/4 193/7/4 199/7/4
f 198/9/4 192/9/4 199/9/4
f 193/4/4 194/4/4 200/4/4
f 199/7/4 193/7/4 200/7/4
f 200/4/4 194/4/4 201/4/4
f 195/3/4 196/3/4 202/3/4
f 196/2/4 197/2/4 203/2/4
f 202/3/4 196/3/4 203/3/4
f 197/3/4 198/3/4 204/3/4
f 203/2/4 197/2/4 204/2/4
f 198/1/4 199/1/4 205/1/4
f 204/3/4 198/3/4 205/3/4
f 199/4/4 200/4/4 206/4/4
f 205/1/4 199/1/4 206/1/4
f 200/1/4 201/1/4 207/1/4
f 206/4/4 200/4/4 207/4/4
f 207/1/4 201/1/4 208/1/4
f 202/2/4 203/2/4 209/2/4
f 203/4/4 204/4/4 210/4/4
f 209/2/4 203/2/4 210/2/4
f 204/1/4 205/1/4 211/1/4
f 210/4/4 204/4/4 211/4/4
f 205/8/4 206/8/4 212/8/4
f 211/1/4 205/1/4 212/1/4
f 206/9/4 207/9/4 213/9/4
f 212/8/4 206/8/4 213/8/4
f 207/7/4 208/7/4 214/7/4
f 213/9/4 207/9/4 214/9/4
f 214/7/4 208/7/4 215/7/4
f 209/4/4 210/4/4 216/4/4
f 210/8/4 211/8/4 217/8/4
f 216/4/4 210/4/4 217/4/4
f 211/9/4 212/9/4 218/9/4
f 217/8/4 211/8/4 218/8/4
f 212/7/4 213/7/4 219/7/4
f 218/9/4 212/9/4 219/9/4
f 213/4/4 214/4/4 220/4/4
f 219/7/4 213/7/4 220/7/4
f 214/2/4 215/2/4 221/2/4
f 220/4/4 214/4/4 221/4/4
f 221/2/4 215/2/4 222/2/4
f 216/7/4 217/7/4 223/7/4
f 217/8/4 218/8/4 224/8/4
f 223/7/4 217/7/4 224/7/4
f 218/2/4 219/2/4 225/2/4
f 224/8/4 218/8/4 225/8/4
f 219/3/4 220/3/4 226/3/4
f 225/2/4 219/2/4 226/2/4
f 220/1/4 221/1/4 227/1/4
f 226/3/4 220/3/4 227/3/4
f 221/4/4 222/4/4 228/4/4
f 227/1/4 221/1/4 228/1/4
f 228/4/4 222/4/4 229/4/4
f 224/2/4 225/2/4 230/2/4
f 225/4/4 226/4/4 231/4/4
f 230/2/4 225/2/4 231/2/4
f 226/2/4 227/2/4 232/2/4
f 231/4/4 226/4/4 232/4/4
f 227/3/4 228/3/4 233/3/4
f 232/2/4 227/2/4 233/2/4
f 233/3/4 228/3/4 234/3/4
f 243/1/5 236/1/5 235/1/5
f 244/7/5 237/7/5 236/7/5
f 244/1/5 236/1/5 243/1/5
f 245/2/5 238/2/5 237/2/5
f 245/7/5 237/7/5 244/7/5
f 246/4/5 239/4/5 238/4/5
f 246/2/5 238/2/5 245/2/5
f 247/2/5 240/2/5 239/2/5
f 247/4/5 239/4/5 246/4/5
f 248/4/5 241/4/5 240/4/5
f 248/2/5 240/2/5 247/2/5
f 249/9/5 242/9/5 241/9/5
f 249/4/5 241/4/5 248/4/5
f 250/9/5 242/9/5 249/9/5
f 252/3/5 244/3/5 243/3/5
f 253/9/5 245/9/5 244/9/5
f 253/3/5 244/3/5 252/3/5
f 254/4/5 246/4/5 245/4/5
f 254/9/5 245/9/5 253/9/5
f 255/2/5 247/2/5 246/2/5
f 255/4/5 246/4/5 254/4/5
f 256/4/5 248/4/5 247/4/5
f 256/2/5 247/2/5 255/2/5
f 257/1/5 249/1/5 248/1/5
f 257/4/5 248/4/5 256/4/5
f 258/8/5 250/8/5 249/8/5
f 258/1/5 249/1/5 257/1/5
f 259/2/5 251/2/5 250/2/5
f 259/8/5 250/8/5 258/8/5
f 260/2/5 251/2/5 259/2/5
f 261/1/5 253/1/5 252/1/5
f 262/8/5 254/8/5 253/8/5
f 262/1/5 253/1/5 261/1/5
f 263/1/5 255/1/5 254/1/5
f 263/8/5 254/8/5 262/8/5
f 264/3/5 256/3/5 255/3/5
f 264/1/5 255/1/5 263/1/5
f 265/2/5 257/2/5 256/2/5
f 265/3/5 256/3/5 264/3/5
f 266/4/5 258/4/5 257/4/5
f 266/2/5 257/2/5 265/2/5
f 267/7/5 259/7/5 258/7/5
f 267/4/5 258/4/5 266/4/5
f 268/7/5 259/7/5 267/7/5
f 271/2/5 270/2/5 269/2/5
f 272/2/5 270/2/5 271/2/5
f 275/2/5 274/2/5 273/2/5
f 276/2/5 274/2/5 275/2/5
f 277/3/6 278/3/6 279/3/6
f 279/3/6 278/3/6 280/3/6
f 281/3/6 282/3/6 283/3/6
f 283/3/6 282/3/6 284/3/6
f 285/4/6 286/4/6 293/4/6
f 286/9/6 287/9/6 294/9/6
f 293/4/6 286/4/6 294/4/6
f 287/3/6 288/3/6 295/3/6
f 294/9/6 287/9/6 295/9/6
f 288/1/6 289/1/6 296/1/6
f 295/3/6 288/3/6 296/3/6
f 289/8/6 290/8/6 297/8/6
f 296/1/6 289/1/6 297/1/6
f 290/1/6 291/1/6 298/1/6
f 297/8/6 290/8/6 298/8/6
f 291/4/6 292/4/6 299/4/6
f 298/1/6 291/1/6 299/1/6
f 299/4/6 292/4/6 300/4/6
f 293/1/6 294/1/6 302/1/6
f 302/1/6 294/1/6 303/1/6
f 300/1/6 301/1/6 309/1/6
f 309/1/6 301/1/6 310/1/6
f 302/4/6 303/4/6 311/4/6
f 303/8/6 304/8/6 312/8/6
f 311/4/6 303/4/6 312/4/6
f 304/4/6 305/4/6 313/4/6
f 312/8/6 304/8/6 313/8/6
f 305/1/6 306/1/6 314/1/6
f 313/4/6 305/4/6 314/4/6
f 306/7/6 307/7/6 315/7/6
f 314/1/6 306/1/6 315/1/6
f 307/2/6 308/2/6 316/2/6
f 315/7/6 307/7/6 316/7/6
f 308/4/6 309/4/6 317/4/6
f 316/2/6 308/2/6 317/2/6
f 317/4/6 309/4/6 318/4/6
f 319/5/6 320/5/6 324/5/6
f 320/6/6 321/6/6 325/6/6
f 324/5/6 320/5/6 325/5/6
f 321/5/6 322/5/6 326/5/6
f 325/6/6 321/6/6 326/6/6
f 322/6/6 323/6/6 327/6/6
f 326/5/6 322/5/6 327/5/6
f 327/6/6 323/6/6 328/6/6
