# MagicaVoxel @ Ephtracy

# group
o 

# material
mtllib Pez Pequeñisimo-0.mtl
usemtl palette

# normals
vn -1 0 0
vn 1 0 0
vn 0 0 1
vn 0 0 -1
vn 0 -1 0
vn 0 1 0

# texcoords
vt 0.564453 0.5
vt 0.814453 0.5
vt 0.818359 0.5

# verts
v 0 -0.1 0
v 0 -0.1 -0.1
v 0 0.2 0
v 0 0.2 -0.1
v 0.2 -0.1 0
v 0.2 -0.1 -0.1
v 0.2 -1.49012e-08 0
v 0.2 -1.49012e-08 -0.1
v 0.2 0.1 0
v 0.2 0.1 -0.1
v 0.3 0.1 0
v 0.3 0.1 -0.1
v 0.3 0.2 0
v 0.3 0.2 -0.1
v 0 -0.1 0
v 0 0.2 0
v 0.1 -0.1 0
v 0.1 -1.49012e-08 0
v 0.1 0.2 0
v 0.2 -0.1 0
v 0.2 -1.49012e-08 0
v 0.2 0.1 0
v 0.2 0.2 0
v 0.3 0.1 0
v 0.3 0.2 0
v 0 -0.1 -0.1
v 0 0.2 -0.1
v 0.1 -0.1 -0.1
v 0.1 -1.49012e-08 -0.1
v 0.1 0.2 -0.1
v 0.2 -0.1 -0.1
v 0.2 -1.49012e-08 -0.1
v 0.2 0.1 -0.1
v 0.2 0.2 -0.1
v 0.3 0.1 -0.1
v 0.3 0.2 -0.1
v 0 -0.1 0
v 0.1 -0.1 0
v 0.2 -0.1 0
v 0 -0.1 -0.1
v 0.1 -0.1 -0.1
v 0.2 -0.1 -0.1
v 0.2 0.1 0
v 0.3 0.1 0
v 0.2 0.1 -0.1
v 0.3 0.1 -0.1
v 0 0.2 0
v 0.1 0.2 0
v 0.2 0.2 0
v 0.3 0.2 0
v 0 0.2 -0.1
v 0.1 0.2 -0.1
v 0.2 0.2 -0.1
v 0.3 0.2 -0.1

# faces
f 3/2/1 2/2/1 1/2/1
f 4/2/1 2/2/1 3/2/1
f 5/3/2 6/3/2 7/3/2
f 7/3/2 6/3/2 8/3/2
f 7/1/2 8/1/2 9/1/2
f 9/1/2 8/1/2 10/1/2
f 11/3/2 12/3/2 13/3/2
f 13/3/2 12/3/2 14/3/2
f 17/2/3 16/2/3 15/2/3
f 18/2/3 16/2/3 17/2/3
f 19/2/3 16/2/3 18/2/3
f 20/3/3 18/3/3 17/3/3
f 21/1/3 19/1/3 18/1/3
f 21/3/3 18/3/3 20/3/3
f 22/1/3 19/1/3 21/1/3
f 23/1/3 19/1/3 22/1/3
f 24/3/3 23/3/3 22/3/3
f 25/3/3 23/3/3 24/3/3
f 26/2/4 27/2/4 28/2/4
f 28/2/4 27/2/4 29/2/4
f 29/2/4 27/2/4 30/2/4
f 28/3/4 29/3/4 31/3/4
f 29/1/4 30/1/4 32/1/4
f 31/3/4 29/3/4 32/3/4
f 32/1/4 30/1/4 33/1/4
f 33/1/4 30/1/4 34/1/4
f 33/3/4 34/3/4 35/3/4
f 35/3/4 34/3/4 36/3/4
f 40/2/5 38/2/5 37/2/5
f 41/3/5 39/3/5 38/3/5
f 41/2/5 38/2/5 40/2/5
f 42/3/5 39/3/5 41/3/5
f 45/3/5 44/3/5 43/3/5
f 46/3/5 44/3/5 45/3/5
f 47/2/6 48/2/6 51/2/6
f 48/1/6 49/1/6 52/1/6
f 51/2/6 48/2/6 52/2/6
f 49/3/6 50/3/6 53/3/6
f 52/1/6 49/1/6 53/1/6
f 53/3/6 50/3/6 54/3/6
