# MagicaVoxel @ Ephtracy

# group
o 

# material
mtllib Pez Pequeñito-1.mtl
usemtl palette

# normals
vn -1 0 0
vn 1 0 0
vn 0 0 1
vn 0 0 -1
vn 0 -1 0
vn 0 1 0

# texcoords
vt 0.564453 0.5
vt 0.572266 0.5
vt 0.580078 0.5
vt 0.876953 0.5
vt 0.884766 0.5
vt 0.892578 0.5
vt 0.900391 0.5
vt 0.904297 0.5

# verts
v 0 -0.1 0.1
v 0 -0.1 0
v 0 -0.1 -0.1
v 0 -0.1 -0.2
v 0 -1.49012e-08 0.1
v 0 -1.49012e-08 0
v 0 -1.49012e-08 -0.1
v 0 -1.49012e-08 -0.2
v 0 0.1 0.1
v 0 0.1 0
v 0 0.1 -0.1
v 0 0.2 0.1
v 0 0.2 0
v 0 0.2 -0.1
v 0 0.2 -0.2
v 0 0.3 0
v 0 0.3 -0.1
v 0.5 -0.1 0.1
v 0.5 -0.1 0
v 0.5 -0.1 -0.1
v 0.5 -0.1 -0.2
v 0.5 -1.49012e-08 0.1
v 0.5 -1.49012e-08 0
v 0.5 -1.49012e-08 -0.1
v 0.5 -1.49012e-08 -0.2
v 0.5 0.1 0.1
v 0.5 0.1 0
v 0.5 0.1 -0.1
v 0.5 0.1 -0.2
v 0.5 0.2 0.1
v 0.5 0.2 0
v 0.5 0.2 -0.1
v 0.5 0.2 -0.2
v 0.5 0.3 0
v 0.5 0.3 -0.1
v 0 -0.1 0.1
v 0 -1.49012e-08 0.1
v 0 0.1 0.1
v 0 0.2 0.1
v 0.2 -0.1 0.1
v 0.2 -1.49012e-08 0.1
v 0.2 0.1 0.1
v 0.2 0.2 0.1
v 0.3 -0.1 0.1
v 0.3 -1.49012e-08 0.1
v 0.3 0.1 0.1
v 0.3 0.2 0.1
v 0.4 -0.1 0.1
v 0.4 -1.49012e-08 0.1
v 0.4 0.1 0.1
v 0.4 0.2 0.1
v 0.5 -0.1 0.1
v 0.5 -1.49012e-08 0.1
v 0.5 0.1 0.1
v 0.5 0.2 0.1
v 0 0.2 0
v 0 0.3 0
v 0.1 0.2 0
v 0.1 0.3 0
v 0.2 0.2 0
v 0.3 0.2 0
v 0.4 0.2 0
v 0.4 0.3 0
v 0.5 0.2 0
v 0.5 0.3 0
v 0 0.2 -0.1
v 0 0.3 -0.1
v 0.1 0.2 -0.1
v 0.1 0.3 -0.1
v 0.2 0.2 -0.1
v 0.3 0.2 -0.1
v 0.4 0.2 -0.1
v 0.4 0.3 -0.1
v 0.5 0.2 -0.1
v 0.5 0.3 -0.1
v 0 -0.1 -0.2
v 0 -1.49012e-08 -0.2
v 0 0.2 -0.2
v 0.1 -0.1 -0.2
v 0.1 -1.49012e-08 -0.2
v 0.1 0.1 -0.2
v 0.2 -0.1 -0.2
v 0.2 -1.49012e-08 -0.2
v 0.2 0.1 -0.2
v 0.2 0.2 -0.2
v 0.3 -0.1 -0.2
v 0.3 -1.49012e-08 -0.2
v 0.3 0.1 -0.2
v 0.3 0.2 -0.2
v 0.4 -0.1 -0.2
v 0.4 -1.49012e-08 -0.2
v 0.4 0.1 -0.2
v 0.4 0.2 -0.2
v 0.5 -0.1 -0.2
v 0.5 -1.49012e-08 -0.2
v 0.5 0.1 -0.2
v 0.5 0.2 -0.2
v 0 -0.1 0.1
v 0.2 -0.1 0.1
v 0.3 -0.1 0.1
v 0.4 -0.1 0.1
v 0.5 -0.1 0.1
v 0 -0.1 0
v 0.1 -0.1 0
v 0.3 -0.1 0
v 0.4 -0.1 0
v 0.5 -0.1 0
v 0 -0.1 -0.1
v 0.1 -0.1 -0.1
v 0.2 -0.1 -0.1
v 0.3 -0.1 -0.1
v 0.4 -0.1 -0.1
v 0.5 -0.1 -0.1
v 0 -0.1 -0.2
v 0.1 -0.1 -0.2
v 0.2 -0.1 -0.2
v 0.3 -0.1 -0.2
v 0.4 -0.1 -0.2
v 0.5 -0.1 -0.2
v 0 0.2 0.1
v 0.2 0.2 0.1
v 0.3 0.2 0.1
v 0.4 0.2 0.1
v 0.5 0.2 0.1
v 0 0.2 0
v 0.1 0.2 0
v 0.2 0.2 0
v 0.3 0.2 0
v 0.4 0.2 0
v 0.5 0.2 0
v 0 0.2 -0.1
v 0.1 0.2 -0.1
v 0.2 0.2 -0.1
v 0.3 0.2 -0.1
v 0.4 0.2 -0.1
v 0.5 0.2 -0.1
v 0 0.2 -0.2
v 0.2 0.2 -0.2
v 0.3 0.2 -0.2
v 0.4 0.2 -0.2
v 0.5 0.2 -0.2
v 0 0.3 0
v 0.1 0.3 0
v 0.4 0.3 0
v 0.5 0.3 0
v 0 0.3 -0.1
v 0.1 0.3 -0.1
v 0.4 0.3 -0.1
v 0.5 0.3 -0.1

# faces
f 5/1/1 2/1/1 1/1/1
f 6/3/1 3/3/1 2/3/1
f 6/1/1 2/1/1 5/1/1
f 7/2/1 4/2/1 3/2/1
f 7/3/1 3/3/1 6/3/1
f 8/2/1 4/2/1 7/2/1
f 9/6/1 6/6/1 5/6/1
f 10/4/1 7/4/1 6/4/1
f 10/6/1 6/6/1 9/6/1
f 10/4/1 8/4/1 7/4/1
f 11/4/1 8/4/1 10/4/1
f 12/5/1 10/5/1 9/5/1
f 13/6/1 11/6/1 10/6/1
f 13/5/1 10/5/1 12/5/1
f 14/4/1 8/4/1 11/4/1
f 14/6/1 11/6/1 13/6/1
f 15/4/1 8/4/1 14/4/1
f 16/8/1 14/8/1 13/8/1
f 17/8/1 14/8/1 16/8/1
f 18/1/2 19/1/2 22/1/2
f 19/3/2 20/3/2 23/3/2
f 22/1/2 19/1/2 23/1/2
f 20/1/2 21/1/2 24/1/2
f 23/3/2 20/3/2 24/3/2
f 24/1/2 21/1/2 25/1/2
f 22/2/2 23/2/2 26/2/2
f 23/4/2 24/4/2 27/4/2
f 26/2/2 23/2/2 27/2/2
f 24/3/2 25/3/2 28/3/2
f 27/4/2 24/4/2 28/4/2
f 28/3/2 25/3/2 29/3/2
f 26/5/2 27/5/2 30/5/2
f 27/5/2 28/5/2 30/5/2
f 30/5/2 28/5/2 31/5/2
f 28/6/2 29/6/2 32/6/2
f 31/5/2 28/5/2 32/5/2
f 32/6/2 29/6/2 33/6/2
f 31/8/2 32/8/2 34/8/2
f 34/8/2 32/8/2 35/8/2
f 40/1/3 37/1/3 36/1/3
f 41/6/3 38/6/3 37/6/3
f 41/1/3 37/1/3 40/1/3
f 42/5/3 39/5/3 38/5/3
f 42/6/3 38/6/3 41/6/3
f 43/5/3 39/5/3 42/5/3
f 44/3/3 41/3/3 40/3/3
f 45/1/3 42/1/3 41/1/3
f 45/3/3 41/3/3 44/3/3
f 46/6/3 43/6/3 42/6/3
f 46/1/3 42/1/3 45/1/3
f 47/6/3 43/6/3 46/6/3
f 48/2/3 45/2/3 44/2/3
f 49/5/3 46/5/3 45/5/3
f 49/2/3 45/2/3 48/2/3
f 50/3/3 47/3/3 46/3/3
f 50/5/3 46/5/3 49/5/3
f 51/3/3 47/3/3 50/3/3
f 52/1/3 49/1/3 48/1/3
f 53/2/3 50/2/3 49/2/3
f 53/1/3 49/1/3 52/1/3
f 54/5/3 51/5/3 50/5/3
f 54/2/3 50/2/3 53/2/3
f 55/5/3 51/5/3 54/5/3
f 58/8/3 57/8/3 56/8/3
f 59/8/3 57/8/3 58/8/3
f 60/7/3 59/7/3 58/7/3
f 61/7/3 59/7/3 60/7/3
f 62/7/3 59/7/3 61/7/3
f 63/7/3 59/7/3 62/7/3
f 64/8/3 63/8/3 62/8/3
f 65/8/3 63/8/3 64/8/3
f 66/8/4 67/8/4 68/8/4
f 68/8/4 67/8/4 69/8/4
f 68/7/4 69/7/4 70/7/4
f 70/7/4 69/7/4 71/7/4
f 71/7/4 69/7/4 72/7/4
f 72/7/4 69/7/4 73/7/4
f 72/8/4 73/8/4 74/8/4
f 74/8/4 73/8/4 75/8/4
f 76/2/4 77/2/4 79/2/4
f 77/4/4 78/4/4 80/4/4
f 79/2/4 77/2/4 80/2/4
f 80/4/4 78/4/4 81/4/4
f 79/3/4 80/3/4 82/3/4
f 80/6/4 81/6/4 83/6/4
f 82/3/4 80/3/4 83/3/4
f 81/4/4 78/4/4 84/4/4
f 83/6/4 81/6/4 84/6/4
f 84/4/4 78/4/4 85/4/4
f 82/2/4 83/2/4 86/2/4
f 83/3/4 84/3/4 87/3/4
f 86/2/4 83/2/4 87/2/4
f 84/6/4 85/6/4 88/6/4
f 87/3/4 84/3/4 88/3/4
f 88/6/4 85/6/4 89/6/4
f 86/3/4 87/3/4 90/3/4
f 87/6/4 88/6/4 91/6/4
f 90/3/4 87/3/4 91/3/4
f 88/1/4 89/1/4 92/1/4
f 91/6/4 88/6/4 92/6/4
f 92/1/4 89/1/4 93/1/4
f 90/1/4 91/1/4 94/1/4
f 91/3/4 92/3/4 95/3/4
f 94/1/4 91/1/4 95/1/4
f 92/6/4 93/6/4 96/6/4
f 95/3/4 92/3/4 96/3/4
f 96/6/4 93/6/4 97/6/4
f 103/1/5 99/1/5 98/1/5
f 104/1/5 99/1/5 103/1/5
f 105/3/5 100/3/5 99/3/5
f 105/2/5 101/2/5 100/2/5
f 106/1/5 102/1/5 101/1/5
f 106/2/5 101/2/5 105/2/5
f 107/1/5 102/1/5 106/1/5
f 108/3/5 104/3/5 103/3/5
f 109/1/5 99/1/5 104/1/5
f 109/3/5 104/3/5 108/3/5
f 110/3/5 105/3/5 99/3/5
f 110/1/5 99/1/5 109/1/5
f 111/1/5 106/1/5 105/1/5
f 111/3/5 105/3/5 110/3/5
f 112/3/5 107/3/5 106/3/5
f 112/1/5 106/1/5 111/1/5
f 113/3/5 107/3/5 112/3/5
f 114/2/5 109/2/5 108/2/5
f 115/3/5 110/3/5 109/3/5
f 115/2/5 109/2/5 114/2/5
f 116/2/5 111/2/5 110/2/5
f 116/3/5 110/3/5 115/3/5
f 117/3/5 112/3/5 111/3/5
f 117/2/5 111/2/5 116/2/5
f 118/1/5 113/1/5 112/1/5
f 118/3/5 112/3/5 117/3/5
f 119/1/5 113/1/5 118/1/5
f 120/5/6 121/5/6 125/5/6
f 125/5/6 121/5/6 126/5/6
f 121/6/6 122/6/6 127/6/6
f 126/5/6 121/5/6 127/5/6
f 122/3/6 123/3/6 128/3/6
f 127/6/6 122/6/6 128/6/6
f 123/5/6 124/5/6 129/5/6
f 128/3/6 123/3/6 129/3/6
f 129/5/6 124/5/6 130/5/6
f 131/4/6 132/4/6 137/4/6
f 132/4/6 133/4/6 137/4/6
f 133/6/6 134/6/6 138/6/6
f 137/4/6 133/4/6 138/4/6
f 134/1/6 135/1/6 139/1/6
f 138/6/6 134/6/6 139/6/6
f 135/6/6 136/6/6 140/6/6
f 139/1/6 135/1/6 140/1/6
f 140/6/6 136/6/6 141/6/6
f 142/8/6 143/8/6 146/8/6
f 143/7/6 144/7/6 147/7/6
f 146/8/6 143/8/6 147/8/6
f 144/8/6 145/8/6 148/8/6
f 147/7/6 144/7/6 148/7/6
f 148/8/6 145/8/6 149/8/6
