# MagicaVoxel @ Ephtracy

# group
o 

# material
mtllib Pez Pequeñito-2.mtl
usemtl palette

# normals
vn -1 0 0
vn 1 0 0
vn 0 0 1
vn 0 0 -1
vn 0 -1 0
vn 0 1 0

# texcoords
vt 0.470703 0.5
vt 0.564453 0.5
vt 0.572266 0.5
vt 0.580078 0.5
vt 0.876953 0.5
vt 0.880859 0.5
vt 0.884766 0.5
vt 0.892578 0.5
vt 0.904297 0.5

# verts
v -0.3 -0.1 0.1
v -0.3 -0.1 -0.1
v -0.3 -0.1 -0.2
v -0.3 -1.49012e-08 0.1
v -0.3 -1.49012e-08 -0.1
v -0.3 -1.49012e-08 -0.2
v -0.3 0.1 0.1
v -0.3 0.1 0
v -0.3 0.1 -0.1
v -0.3 0.1 -0.2
v -0.3 0.2 0.1
v -0.3 0.2 0
v -0.3 0.2 -0.1
v -0.3 0.2 -0.2
v -0.1 0.2 0
v -0.1 0.2 -0.1
v -0.1 0.3 0
v -0.1 0.3 -0.1
v 0 -0.1 0.1
v 0 -0.1 0
v 0 -0.1 -0.1
v 0 -0.1 -0.2
v 0 -1.49012e-08 0.1
v 0 -1.49012e-08 0
v 0 -1.49012e-08 -0.1
v 0 -1.49012e-08 -0.2
v 0 0.1 0
v 0 0.1 -0.1
v 0 0.1 -0.2
v 0 0.2 0.1
v 0 0.2 0
v 0 0.2 -0.1
v 0 0.2 -0.2
v 0 0.3 0
v 0 0.3 -0.1
v -0.3 -0.1 0.1
v -0.3 -1.49012e-08 0.1
v -0.3 0.1 0.1
v -0.3 0.2 0.1
v -0.2 -0.1 0.1
v -0.2 -1.49012e-08 0.1
v -0.2 0.1 0.1
v -0.2 0.2 0.1
v -0.1 -1.49012e-08 0.1
v -0.1 0.1 0.1
v -0.1 0.2 0.1
v 0 -0.1 0.1
v 0 -1.49012e-08 0.1
v 0 0.2 0.1
v -0.1 0.2 0
v -0.1 0.3 0
v 0 0.2 0
v 0 0.3 0
v -0.1 0.2 -0.1
v -0.1 0.3 -0.1
v 0 0.2 -0.1
v 0 0.3 -0.1
v -0.3 -0.1 -0.2
v -0.3 -1.49012e-08 -0.2
v -0.3 0.1 -0.2
v -0.3 0.2 -0.2
v -0.2 -0.1 -0.2
v -0.2 -1.49012e-08 -0.2
v -0.2 0.1 -0.2
v -0.2 0.2 -0.2
v -0.1 -1.49012e-08 -0.2
v -0.1 0.1 -0.2
v 0 -0.1 -0.2
v 0 -1.49012e-08 -0.2
v 0 0.1 -0.2
v 0 0.2 -0.2
v -0.3 -0.1 0.1
v -0.2 -0.1 0.1
v 0 -0.1 0.1
v -0.2 -0.1 0
v -0.1 -0.1 0
v 0 -0.1 0
v -0.3 -0.1 -0.1
v -0.2 -0.1 -0.1
v -0.1 -0.1 -0.1
v 0 -0.1 -0.1
v -0.3 -0.1 -0.2
v -0.2 -0.1 -0.2
v 0 -0.1 -0.2
v -0.3 0.2 0.1
v -0.2 0.2 0.1
v -0.1 0.2 0.1
v 0 0.2 0.1
v -0.3 0.2 0
v -0.2 0.2 0
v -0.1 0.2 0
v 0 0.2 0
v -0.3 0.2 -0.1
v -0.2 0.2 -0.1
v -0.1 0.2 -0.1
v 0 0.2 -0.1
v -0.3 0.2 -0.2
v -0.2 0.2 -0.2
v 0 0.2 -0.2
v -0.1 0.3 0
v 0 0.3 0
v -0.1 0.3 -0.1
v 0 0.3 -0.1

# faces
f 4/2/1 2/2/1 1/2/1
f 5/4/1 3/4/1 2/4/1
f 5/2/1 2/2/1 4/2/1
f 6/4/1 3/4/1 5/4/1
f 7/4/1 5/4/1 4/4/1
f 8/4/1 5/4/1 7/4/1
f 9/3/1 6/3/1 5/3/1
f 9/4/1 5/4/1 8/4/1
f 10/3/1 6/3/1 9/3/1
f 11/1/1 8/1/1 7/1/1
f 12/8/1 9/8/1 8/8/1
f 12/1/1 8/1/1 11/1/1
f 13/1/1 10/1/1 9/1/1
f 13/8/1 9/8/1 12/8/1
f 14/1/1 10/1/1 13/1/1
f 17/9/1 16/9/1 15/9/1
f 18/9/1 16/9/1 17/9/1
f 19/4/2 20/4/2 23/4/2
f 20/3/2 21/3/2 24/3/2
f 23/4/2 20/4/2 24/4/2
f 21/2/2 22/2/2 25/2/2
f 24/3/2 21/3/2 25/3/2
f 25/2/2 22/2/2 26/2/2
f 23/8/2 24/8/2 27/8/2
f 24/7/2 25/7/2 27/7/2
f 25/7/2 26/7/2 27/7/2
f 27/7/2 26/7/2 28/7/2
f 28/7/2 26/7/2 29/7/2
f 23/8/2 27/8/2 30/8/2
f 27/6/2 28/6/2 31/6/2
f 30/8/2 27/8/2 31/8/2
f 28/5/2 29/5/2 32/5/2
f 31/6/2 28/6/2 32/6/2
f 32/5/2 29/5/2 33/5/2
f 31/9/2 32/9/2 34/9/2
f 34/9/2 32/9/2 35/9/2
f 40/2/3 37/2/3 36/2/3
f 41/4/3 38/4/3 37/4/3
f 41/2/3 37/2/3 40/2/3
f 42/1/3 39/1/3 38/1/3
f 42/4/3 38/4/3 41/4/3
f 43/1/3 39/1/3 42/1/3
f 44/4/3 41/4/3 40/4/3
f 44/3/3 42/3/3 41/3/3
f 45/7/3 43/7/3 42/7/3
f 45/3/3 42/3/3 44/3/3
f 46/7/3 43/7/3 45/7/3
f 47/4/3 44/4/3 40/4/3
f 48/8/3 45/8/3 44/8/3
f 48/4/3 44/4/3 47/4/3
f 48/8/3 46/8/3 45/8/3
f 49/8/3 46/8/3 48/8/3
f 52/9/3 51/9/3 50/9/3
f 53/9/3 51/9/3 52/9/3
f 54/9/4 55/9/4 56/9/4
f 56/9/4 55/9/4 57/9/4
f 58/4/4 59/4/4 62/4/4
f 59/3/4 60/3/4 63/3/4
f 62/4/4 59/4/4 63/4/4
f 60/1/4 61/1/4 64/1/4
f 63/3/4 60/3/4 64/3/4
f 64/1/4 61/1/4 65/1/4
f 62/2/4 63/2/4 66/2/4
f 63/4/4 64/4/4 66/4/4
f 64/5/4 65/5/4 67/5/4
f 66/4/4 64/4/4 67/4/4
f 62/2/4 66/2/4 68/2/4
f 66/7/4 67/7/4 69/7/4
f 68/2/4 66/2/4 69/2/4
f 67/5/4 65/5/4 70/5/4
f 69/7/4 67/7/4 70/7/4
f 70/5/4 65/5/4 71/5/4
f 75/2/5 73/2/5 72/2/5
f 75/4/5 74/4/5 73/4/5
f 76/4/5 74/4/5 75/4/5
f 77/4/5 74/4/5 76/4/5
f 78/2/5 75/2/5 72/2/5
f 78/2/5 76/2/5 75/2/5
f 79/2/5 76/2/5 78/2/5
f 80/3/5 77/3/5 76/3/5
f 80/2/5 76/2/5 79/2/5
f 81/3/5 77/3/5 80/3/5
f 82/4/5 79/4/5 78/4/5
f 83/2/5 80/2/5 79/2/5
f 83/4/5 79/4/5 82/4/5
f 83/2/5 81/2/5 80/2/5
f 84/2/5 81/2/5 83/2/5
f 85/1/6 86/1/6 89/1/6
f 86/7/6 87/7/6 90/7/6
f 89/1/6 86/1/6 90/1/6
f 87/8/6 88/8/6 91/8/6
f 90/7/6 87/7/6 91/7/6
f 91/8/6 88/8/6 92/8/6
f 89/8/6 90/8/6 93/8/6
f 90/8/6 91/8/6 93/8/6
f 93/8/6 91/8/6 94/8/6
f 94/8/6 91/8/6 95/8/6
f 93/1/6 94/1/6 97/1/6
f 95/5/6 96/5/6 98/5/6
f 97/1/6 94/1/6 98/1/6
f 94/5/6 95/5/6 98/5/6
f 98/5/6 96/5/6 99/5/6
f 100/9/6 101/9/6 102/9/6
f 102/9/6 101/9/6 103/9/6
