# MagicaVoxel @ Ephtracy

# group
o Mano

# material
mtllib Simple Charapter-2-Mano.mtl
usemtl palette

# normals
vn 1 0 0
vn -1 0 0
vn 0 0 1
vn 0 0 -1
vn 0 -1 0
vn 0 1 0

# texcoords
vt 0.587891 0.5
vt 0.591797 0.5
vt 0.595703 0.5
vt 0.599609 0.5
vt 0.603516 0.5
vt 0.607422 0.5

# verts
v 0.6 -0.3 0.3
v 0.6 -0.3 -0.2
v 0.6 -0.3 -0.3
v 0.6 -0.2 0.2
v 0.6 -0.2 0
v 0.6 -0.1 0.2
v 0.6 -0.1 0
v 0.6 -0.1 -0.1
v 0.6 -0.1 -0.2
v 0.6 -0.1 -0.3
v 0.6 0 0.3
v 0.6 0 0
v 0.6 0 -0.1
v 0.6 0.1 0.3
v 0.6 0.1 0.2
v 0.6 0.1 -0.2
v 0.6 0.1 -0.3
v 0.6 0.2 -0.1
v 0.6 0.2 -0.2
v 0.6 0.3 0.3
v 0.6 0.3 0.2
v 0.6 0.3 0
v 0.6 0.3 -0.1
v 0.6 0.3 -0.3
v 5.96046e-08 -0.3 0.3
v 5.96046e-08 -0.3 0.2
v 5.96046e-08 -0.3 0.1
v 5.96046e-08 -0.3 0
v 5.96046e-08 -0.3 -0.1
v 5.96046e-08 -0.3 -0.2
v 5.96046e-08 -0.3 -0.3
v 5.96046e-08 -0.2 0.3
v 5.96046e-08 -0.2 0.2
v 5.96046e-08 -0.2 0.1
v 5.96046e-08 -0.2 0
v 5.96046e-08 -0.2 -0.1
v 5.96046e-08 -0.2 -0.2
v 5.96046e-08 -0.2 -0.3
v 5.96046e-08 -0.1 0.3
v 5.96046e-08 -0.1 0.2
v 5.96046e-08 -0.1 0.1
v 5.96046e-08 -0.1 -0.1
v 5.96046e-08 -0.1 -0.2
v 5.96046e-08 -0.1 -0.3
v 5.96046e-08 0 0.2
v 5.96046e-08 0 0.1
v 5.96046e-08 0 0
v 5.96046e-08 0 -0.2
v 5.96046e-08 0 -0.3
v 5.96046e-08 0.1 0.3
v 5.96046e-08 0.1 0.2
v 5.96046e-08 0.1 0.1
v 5.96046e-08 0.1 0
v 5.96046e-08 0.1 -0.1
v 5.96046e-08 0.1 -0.2
v 5.96046e-08 0.1 -0.3
v 5.96046e-08 0.2 0.3
v 5.96046e-08 0.2 0.2
v 5.96046e-08 0.2 0.1
v 5.96046e-08 0.2 0
v 5.96046e-08 0.2 -0.1
v 5.96046e-08 0.2 -0.2
v 5.96046e-08 0.2 -0.3
v 5.96046e-08 0.3 0.3
v 5.96046e-08 0.3 0.2
v 5.96046e-08 0.3 0.1
v 5.96046e-08 0.3 -0.1
v 5.96046e-08 0.3 -0.2
v 5.96046e-08 0.3 -0.3
v 0.6 -0.3 0.3
v 0.6 0 0.3
v 0.6 0.1 0.3
v 0.6 0.3 0.3
v 0.5 -0.3 0.3
v 0.5 -0.2 0.3
v 0.5 -0.1 0.3
v 0.5 0 0.3
v 0.5 0.1 0.3
v 0.5 0.2 0.3
v 0.5 0.3 0.3
v 0.4 -0.3 0.3
v 0.4 -0.2 0.3
v 0.4 -0.1 0.3
v 0.4 0 0.3
v 0.4 0.1 0.3
v 0.4 0.2 0.3
v 0.4 0.3 0.3
v 0.3 -0.3 0.3
v 0.3 -0.2 0.3
v 0.3 -0.1 0.3
v 0.3 0 0.3
v 0.3 0.1 0.3
v 0.3 0.2 0.3
v 0.2 -0.2 0.3
v 0.2 -0.1 0.3
v 0.2 0.1 0.3
v 0.2 0.2 0.3
v 0.2 0.3 0.3
v 0.1 -0.2 0.3
v 0.1 -0.1 0.3
v 0.1 0.1 0.3
v 0.1 0.2 0.3
v 5.96046e-08 -0.3 0.3
v 5.96046e-08 -0.2 0.3
v 5.96046e-08 -0.1 0.3
v 5.96046e-08 0.1 0.3
v 5.96046e-08 0.2 0.3
v 5.96046e-08 0.3 0.3
v 0.6 -0.3 -0.3
v 0.6 -0.1 -0.3
v 0.6 0.1 -0.3
v 0.6 0.3 -0.3
v 0.5 -0.3 -0.3
v 0.5 -0.2 -0.3
v 0.5 -0.1 -0.3
v 0.5 0 -0.3
v 0.5 0.1 -0.3
v 0.5 0.2 -0.3
v 0.5 0.3 -0.3
v 0.4 -0.2 -0.3
v 0.4 -0.1 -0.3
v 0.4 0.1 -0.3
v 0.4 0.2 -0.3
v 0.4 0.3 -0.3
v 0.3 -0.3 -0.3
v 0.3 -0.2 -0.3
v 0.3 -0.1 -0.3
v 0.3 0 -0.3
v 0.3 0.1 -0.3
v 0.3 0.2 -0.3
v 0.3 0.3 -0.3
v 0.2 -0.3 -0.3
v 0.2 -0.2 -0.3
v 0.2 -0.1 -0.3
v 0.2 0 -0.3
v 0.2 0.2 -0.3
v 0.2 0.3 -0.3
v 0.1 -0.3 -0.3
v 0.1 -0.2 -0.3
v 0.1 0 -0.3
v 0.1 0.1 -0.3
v 0.1 0.2 -0.3
v 0.1 0.3 -0.3
v 5.96046e-08 -0.3 -0.3
v 5.96046e-08 -0.2 -0.3
v 5.96046e-08 -0.1 -0.3
v 5.96046e-08 0 -0.3
v 5.96046e-08 0.1 -0.3
v 5.96046e-08 0.2 -0.3
v 5.96046e-08 0.3 -0.3
v 0.6 -0.3 0.3
v 0.5 -0.3 0.3
v 0.4 -0.3 0.3
v 0.3 -0.3 0.3
v 5.96046e-08 -0.3 0.3
v 0.5 -0.3 0.2
v 0.4 -0.3 0.2
v 0.3 -0.3 0.2
v 5.96046e-08 -0.3 0.2
v 0.5 -0.3 0.1
v 0.4 -0.3 0.1
v 5.96046e-08 -0.3 0.1
v 0.5 -0.3 0
v 0.4 -0.3 0
v 5.96046e-08 -0.3 0
v 0.5 -0.3 -0.1
v 0.4 -0.3 -0.1
v 0.3 -0.3 -0.1
v 0.2 -0.3 -0.1
v 5.96046e-08 -0.3 -0.1
v 0.6 -0.3 -0.2
v 0.5 -0.3 -0.2
v 0.3 -0.3 -0.2
v 0.2 -0.3 -0.2
v 0.1 -0.3 -0.2
v 5.96046e-08 -0.3 -0.2
v 0.6 -0.3 -0.3
v 0.5 -0.3 -0.3
v 0.3 -0.3 -0.3
v 0.2 -0.3 -0.3
v 0.1 -0.3 -0.3
v 5.96046e-08 -0.3 -0.3
v 0.6 0.3 0.3
v 0.5 0.3 0.3
v 0.4 0.3 0.3
v 0.2 0.3 0.3
v 5.96046e-08 0.3 0.3
v 0.6 0.3 0.2
v 0.5 0.3 0.2
v 0.4 0.3 0.2
v 0.2 0.3 0.2
v 0.1 0.3 0.2
v 5.96046e-08 0.3 0.2
v 0.5 0.3 0.1
v 0.4 0.3 0.1
v 0.3 0.3 0.1
v 0.2 0.3 0.1
v 0.1 0.3 0.1
v 5.96046e-08 0.3 0.1
v 0.6 0.3 0
v 0.5 0.3 0
v 0.4 0.3 0
v 0.3 0.3 0
v 0.2 0.3 0
v 0.1 0.3 0
v 0.6 0.3 -0.1
v 0.5 0.3 -0.1
v 0.2 0.3 -0.1
v 0.1 0.3 -0.1
v 5.96046e-08 0.3 -0.1
v 0.5 0.3 -0.2
v 0.4 0.3 -0.2
v 0.3 0.3 -0.2
v 0.2 0.3 -0.2
v 0.1 0.3 -0.2
v 5.96046e-08 0.3 -0.2
v 0.6 0.3 -0.3
v 0.5 0.3 -0.3
v 0.4 0.3 -0.3
v 0.3 0.3 -0.3
v 0.2 0.3 -0.3
v 0.1 0.3 -0.3
v 5.96046e-08 0.3 -0.3

# faces
f 1/5/1 2/5/1 4/5/1
f 4/5/1 2/5/1 5/5/1
f 1/5/1 4/5/1 6/5/1
f 4/6/1 5/6/1 6/6/1
f 5/5/1 2/5/1 7/5/1
f 6/6/1 5/6/1 7/6/1
f 7/5/1 2/5/1 8/5/1
f 2/6/1 3/6/1 9/6/1
f 8/5/1 2/5/1 9/5/1
f 9/6/1 3/6/1 10/6/1
f 1/5/1 6/5/1 11/5/1
f 6/5/1 7/5/1 11/5/1
f 7/6/1 8/6/1 12/6/1
f 11/5/1 7/5/1 12/5/1
f 9/5/1 10/5/1 13/5/1
f 12/6/1 8/6/1 13/6/1
f 8/5/1 9/5/1 13/5/1
f 11/6/1 12/6/1 14/6/1
f 14/6/1 12/6/1 15/6/1
f 13/5/1 10/5/1 16/5/1
f 12/5/1 13/5/1 16/5/1
f 16/5/1 10/5/1 17/5/1
f 12/5/1 16/5/1 18/5/1
f 16/6/1 17/6/1 19/6/1
f 18/5/1 16/5/1 19/5/1
f 14/5/1 15/5/1 20/5/1
f 15/6/1 12/6/1 21/6/1
f 20/5/1 15/5/1 21/5/1
f 12/5/1 18/5/1 22/5/1
f 21/6/1 12/6/1 22/6/1
f 18/6/1 19/6/1 23/6/1
f 22/5/1 18/5/1 23/5/1
f 19/6/1 17/6/1 24/6/1
f 23/6/1 19/6/1 24/6/1
f 32/4/2 26/4/2 25/4/2
f 33/2/2 27/2/2 26/2/2
f 33/4/2 26/4/2 32/4/2
f 34/3/2 28/3/2 27/3/2
f 34/2/2 27/2/2 33/2/2
f 35/4/2 29/4/2 28/4/2
f 35/3/2 28/3/2 34/3/2
f 36/2/2 30/2/2 29/2/2
f 36/4/2 29/4/2 35/4/2
f 37/3/2 31/3/2 30/3/2
f 37/2/2 30/2/2 36/2/2
f 38/3/2 31/3/2 37/3/2
f 39/1/2 36/1/2 35/1/2
f 39/1/2 33/1/2 32/1/2
f 39/1/2 34/1/2 33/1/2
f 39/1/2 35/1/2 34/1/2
f 40/1/2 36/1/2 39/1/2
f 41/1/2 36/1/2 40/1/2
f 42/2/2 38/2/2 37/2/2
f 42/1/2 36/1/2 41/1/2
f 42/2/2 37/2/2 36/2/2
f 43/2/2 38/2/2 42/2/2
f 44/2/2 38/2/2 43/2/2
f 45/2/2 41/2/2 40/2/2
f 45/3/2 40/3/2 39/3/2
f 46/1/2 42/1/2 41/1/2
f 46/2/2 41/2/2 45/2/2
f 46/1/2 43/1/2 42/1/2
f 47/1/2 43/1/2 46/1/2
f 48/4/2 44/4/2 43/4/2
f 48/1/2 43/1/2 47/1/2
f 49/4/2 44/4/2 48/4/2
f 50/3/2 45/3/2 39/3/2
f 51/1/2 46/1/2 45/1/2
f 51/3/2 45/3/2 50/3/2
f 52/2/2 47/2/2 46/2/2
f 52/1/2 46/1/2 51/1/2
f 53/1/2 48/1/2 47/1/2
f 53/2/2 47/2/2 52/2/2
f 54/1/2 48/1/2 53/1/2
f 55/3/2 49/3/2 48/3/2
f 55/1/2 48/1/2 54/1/2
f 56/3/2 49/3/2 55/3/2
f 57/1/2 51/1/2 50/1/2
f 58/2/2 52/2/2 51/2/2
f 58/1/2 51/1/2 57/1/2
f 59/1/2 53/1/2 52/1/2
f 59/2/2 52/2/2 58/2/2
f 60/2/2 54/2/2 53/2/2
f 60/1/2 53/1/2 59/1/2
f 61/1/2 55/1/2 54/1/2
f 61/2/2 54/2/2 60/2/2
f 61/1/2 56/1/2 55/1/2
f 62/1/2 56/1/2 61/1/2
f 63/1/2 56/1/2 62/1/2
f 64/3/2 58/3/2 57/3/2
f 65/1/2 59/1/2 58/1/2
f 65/3/2 58/3/2 64/3/2
f 66/3/2 60/3/2 59/3/2
f 66/1/2 59/1/2 65/1/2
f 66/3/2 61/3/2 60/3/2
f 67/1/2 62/1/2 61/1/2
f 67/3/2 61/3/2 66/3/2
f 68/3/2 63/3/2 62/3/2
f 68/1/2 62/1/2 67/1/2
f 69/3/2 63/3/2 68/3/2
f 70/5/3 71/5/3 74/5/3
f 74/5/3 71/5/3 75/5/3
f 75/5/3 71/5/3 76/5/3
f 71/6/3 72/6/3 77/6/3
f 76/5/3 71/5/3 77/5/3
f 72/5/3 73/5/3 78/5/3
f 77/6/3 72/6/3 78/6/3
f 78/5/3 73/5/3 79/5/3
f 79/5/3 73/5/3 80/5/3
f 74/4/3 75/4/3 81/4/3
f 75/2/3 76/2/3 82/2/3
f 81/4/3 75/4/3 82/4/3
f 76/4/3 77/4/3 83/4/3
f 82/2/3 76/2/3 83/2/3
f 77/3/3 78/3/3 84/3/3
f 83/4/3 77/4/3 84/4/3
f 78/1/3 79/1/3 85/1/3
f 84/3/3 78/3/3 85/3/3
f 79/3/3 80/3/3 86/3/3
f 85/1/3 79/1/3 86/1/3
f 86/3/3 80/3/3 87/3/3
f 81/3/3 82/3/3 88/3/3
f 82/2/3 83/2/3 89/2/3
f 88/3/3 82/3/3 89/3/3
f 83/3/3 84/3/3 90/3/3
f 89/2/3 83/2/3 90/2/3
f 84/4/3 85/4/3 91/4/3
f 90/3/3 84/3/3 91/3/3
f 85/1/3 86/1/3 92/1/3
f 91/4/3 85/4/3 92/4/3
f 86/4/3 87/4/3 93/4/3
f 92/1/3 86/1/3 93/1/3
f 88/4/3 89/4/3 94/4/3
f 89/1/3 90/1/3 94/1/3
f 90/4/3 91/4/3 95/4/3
f 94/1/3 90/1/3 95/1/3
f 91/4/3 92/4/3 95/4/3
f 92/2/3 93/2/3 96/2/3
f 95/4/3 92/4/3 96/4/3
f 93/4/3 87/4/3 97/4/3
f 96/2/3 93/2/3 97/2/3
f 97/4/3 87/4/3 98/4/3
f 94/2/3 95/2/3 99/2/3
f 88/4/3 94/4/3 99/4/3
f 95/3/3 96/3/3 100/3/3
f 99/2/3 95/2/3 100/2/3
f 96/2/3 97/2/3 101/2/3
f 100/3/3 96/3/3 101/3/3
f 97/3/3 98/3/3 102/3/3
f 101/2/3 97/2/3 102/2/3
f 88/4/3 99/4/3 103/4/3
f 99/1/3 100/1/3 104/1/3
f 103/4/3 99/4/3 104/4/3
f 100/3/3 101/3/3 105/3/3
f 104/1/3 100/1/3 105/1/3
f 101/1/3 102/1/3 106/1/3
f 105/3/3 101/3/3 106/3/3
f 102/3/3 98/3/3 107/3/3
f 106/1/3 102/1/3 107/1/3
f 107/3/3 98/3/3 108/3/3
f 113/6/4 110/6/4 109/6/4
f 114/6/4 110/6/4 113/6/4
f 115/5/4 111/5/4 110/5/4
f 115/6/4 110/6/4 114/6/4
f 116/5/4 111/5/4 115/5/4
f 117/6/4 112/6/4 111/6/4
f 117/5/4 111/5/4 116/5/4
f 118/6/4 112/6/4 117/6/4
f 119/6/4 112/6/4 118/6/4
f 120/4/4 114/4/4 113/4/4
f 120/1/4 115/1/4 114/1/4
f 121/4/4 116/4/4 115/4/4
f 121/1/4 115/1/4 120/1/4
f 122/3/4 117/3/4 116/3/4
f 122/1/4 118/1/4 117/1/4
f 123/3/4 119/3/4 118/3/4
f 123/1/4 118/1/4 122/1/4
f 124/3/4 119/3/4 123/3/4
f 125/4/4 120/4/4 113/4/4
f 126/2/4 121/2/4 120/2/4
f 126/4/4 120/4/4 125/4/4
f 127/4/4 116/4/4 121/4/4
f 127/2/4 121/2/4 126/2/4
f 128/3/4 122/3/4 116/3/4
f 128/4/4 116/4/4 127/4/4
f 129/2/4 123/2/4 122/2/4
f 129/3/4 122/3/4 128/3/4
f 130/4/4 124/4/4 123/4/4
f 130/2/4 123/2/4 129/2/4
f 131/4/4 124/4/4 130/4/4
f 132/3/4 126/3/4 125/3/4
f 133/2/4 127/2/4 126/2/4
f 133/3/4 126/3/4 132/3/4
f 134/3/4 128/3/4 127/3/4
f 134/2/4 127/2/4 133/2/4
f 135/4/4 129/4/4 128/4/4
f 135/3/4 128/3/4 134/3/4
f 136/1/4 130/1/4 129/1/4
f 136/3/4 131/3/4 130/3/4
f 137/3/4 131/3/4 136/3/4
f 138/4/4 133/4/4 132/4/4
f 139/2/4 134/2/4 133/2/4
f 139/4/4 133/4/4 138/4/4
f 140/4/4 129/4/4 135/4/4
f 140/4/4 135/4/4 134/4/4
f 141/1/4 136/1/4 129/1/4
f 141/4/4 129/4/4 140/4/4
f 142/4/4 137/4/4 136/4/4
f 142/1/4 136/1/4 141/1/4
f 143/4/4 137/4/4 142/4/4
f 144/3/4 139/3/4 138/3/4
f 145/2/4 134/2/4 139/2/4
f 145/3/4 139/3/4 144/3/4
f 146/4/4 140/4/4 134/4/4
f 146/2/4 134/2/4 145/2/4
f 147/3/4 141/3/4 140/3/4
f 147/4/4 140/4/4 146/4/4
f 148/1/4 142/1/4 141/1/4
f 148/3/4 141/3/4 147/3/4
f 149/3/4 143/3/4 142/3/4
f 149/1/4 142/1/4 148/1/4
f 150/3/4 143/3/4 149/3/4
f 151/5/5 152/5/5 156/5/5
f 152/4/5 153/4/5 156/4/5
f 153/3/5 154/3/5 157/3/5
f 156/4/5 153/4/5 157/4/5
f 154/4/5 155/4/5 158/4/5
f 157/3/5 154/3/5 158/3/5
f 158/4/5 155/4/5 159/4/5
f 156/2/5 157/2/5 160/2/5
f 151/5/5 156/5/5 160/5/5
f 158/2/5 159/2/5 160/2/5
f 157/2/5 158/2/5 160/2/5
f 160/2/5 159/2/5 161/2/5
f 161/2/5 159/2/5 162/2/5
f 151/5/5 160/5/5 163/5/5
f 160/4/5 161/4/5 163/4/5
f 161/3/5 162/3/5 164/3/5
f 163/4/5 161/4/5 164/4/5
f 164/3/5 162/3/5 165/3/5
f 151/5/5 163/5/5 166/5/5
f 163/3/5 164/3/5 166/3/5
f 164/4/5 165/4/5 167/4/5
f 166/3/5 164/3/5 167/3/5
f 167/4/5 165/4/5 168/4/5
f 168/4/5 165/4/5 169/4/5
f 169/4/5 165/4/5 170/4/5
f 151/5/5 166/5/5 171/5/5
f 166/2/5 167/2/5 172/2/5
f 171/5/5 166/5/5 172/5/5
f 167/2/5 168/2/5 172/2/5
f 168/1/5 169/1/5 173/1/5
f 172/2/5 168/2/5 173/2/5
f 169/2/5 170/2/5 174/2/5
f 173/1/5 169/1/5 174/1/5
f 174/2/5 170/2/5 175/2/5
f 175/2/5 170/2/5 176/2/5
f 171/6/5 172/6/5 177/6/5
f 172/4/5 173/4/5 178/4/5
f 177/6/5 172/6/5 178/6/5
f 173/3/5 174/3/5 179/3/5
f 178/4/5 173/4/5 179/4/5
f 174/4/5 175/4/5 180/4/5
f 179/3/5 174/3/5 180/3/5
f 175/3/5 176/3/5 181/3/5
f 180/4/5 175/4/5 181/4/5
f 181/3/5 176/3/5 182/3/5
f 188/5/6 184/5/6 183/5/6
f 189/3/6 185/3/6 184/3/6
f 189/5/6 184/5/6 188/5/6
f 190/4/6 186/4/6 185/4/6
f 190/3/6 185/3/6 189/3/6
f 191/3/6 187/3/6 186/3/6
f 191/4/6 186/4/6 190/4/6
f 192/3/6 187/3/6 191/3/6
f 193/3/6 187/3/6 192/3/6
f 194/1/6 190/1/6 189/1/6
f 194/6/6 189/6/6 188/6/6
f 194/1/6 191/1/6 190/1/6
f 195/1/6 191/1/6 194/1/6
f 196/1/6 191/1/6 195/1/6
f 197/2/6 192/2/6 191/2/6
f 197/1/6 191/1/6 196/1/6
f 198/1/6 193/1/6 192/1/6
f 198/2/6 192/2/6 197/2/6
f 199/1/6 193/1/6 198/1/6
f 200/6/6 194/6/6 188/6/6
f 201/4/6 195/4/6 194/4/6
f 201/6/6 194/6/6 200/6/6
f 202/3/6 196/3/6 195/3/6
f 202/4/6 195/4/6 201/4/6
f 203/4/6 197/4/6 196/4/6
f 203/3/6 196/3/6 202/3/6
f 203/4/6 198/4/6 197/4/6
f 204/4/6 198/4/6 203/4/6
f 205/3/6 199/3/6 198/3/6
f 205/4/6 198/4/6 204/4/6
f 206/5/6 201/5/6 200/5/6
f 207/4/6 202/4/6 201/4/6
f 207/5/6 201/5/6 206/5/6
f 207/4/6 204/4/6 203/4/6
f 207/4/6 203/4/6 202/4/6
f 208/3/6 205/3/6 204/3/6
f 208/4/6 204/4/6 207/4/6
f 209/3/6 199/3/6 205/3/6
f 209/3/6 205/3/6 208/3/6
f 210/3/6 199/3/6 209/3/6
f 211/2/6 208/2/6 207/2/6
f 211/6/6 207/6/6 206/6/6
f 211/2/6 209/2/6 208/2/6
f 212/2/6 209/2/6 211/2/6
f 213/2/6 209/2/6 212/2/6
f 214/2/6 209/2/6 213/2/6
f 215/1/6 210/1/6 209/1/6
f 215/2/6 209/2/6 214/2/6
f 216/1/6 210/1/6 215/1/6
f 217/6/6 211/6/6 206/6/6
f 218/3/6 212/3/6 211/3/6
f 218/6/6 211/6/6 217/6/6
f 219/4/6 213/4/6 212/4/6
f 219/3/6 212/3/6 218/3/6
f 220/3/6 214/3/6 213/3/6
f 220/4/6 213/4/6 219/4/6
f 221/4/6 215/4/6 214/4/6
f 221/3/6 214/3/6 220/3/6
f 222/3/6 216/3/6 215/3/6
f 222/4/6 215/4/6 221/4/6
f 223/3/6 216/3/6 222/3/6
