# MagicaVoxel @ Ephtracy

# group
o Brazo Hombro

# material
mtllib Movement Monster-1-Brazo Hombro.mtl
usemtl palette

# normals
vn -1 0 0
vn 1 0 0
vn 0 0 1
vn 0 0 -1
vn 0 -1 0
vn 0 1 0

# texcoords
vt 0.564453 0.5
vt 0.580078 0.5
vt 0.583984 0.5
vt 0.591797 0.5
vt 0.595703 0.5

# verts
v 0 -0.4 0.3
v 0 -0.4 -0.3
v 0 -0.3 0.4
v 0 -0.3 0.3
v 0 -0.3 -0.3
v 0 -0.3 -0.4
v 0 0.3 0.4
v 0 0.3 0.3
v 0 0.3 -0.3
v 0 0.3 -0.4
v 0 0.4 0.3
v 0 0.4 -0.3
v 0.6 -0.4 0.3
v 0.6 -0.4 0.2
v 0.6 -0.4 -0.2
v 0.6 -0.4 -0.3
v 0.6 -0.3 0.4
v 0.6 -0.3 0.3
v 0.6 -0.3 0.2
v 0.6 -0.3 -0.2
v 0.6 -0.3 -0.3
v 0.6 -0.3 -0.4
v 0.6 -0.2 0.4
v 0.6 -0.2 0.3
v 0.6 -0.2 -0.3
v 0.6 -0.2 -0.4
v 0.6 0.2 0.4
v 0.6 0.2 0.3
v 0.6 0.2 -0.3
v 0.6 0.2 -0.4
v 0.6 0.3 0.4
v 0.6 0.3 0.3
v 0.6 0.3 0.2
v 0.6 0.3 -0.2
v 0.6 0.3 -0.3
v 0.6 0.3 -0.4
v 0.6 0.4 0.3
v 0.6 0.4 0.2
v 0.6 0.4 -0.2
v 0.6 0.4 -0.3
v 0.8 -0.4 0.2
v 0.8 -0.4 0.1
v 0.8 -0.4 -0.1
v 0.8 -0.4 -0.2
v 0.8 -0.3 0.2
v 0.8 -0.3 0.1
v 0.8 -0.3 -0.1
v 0.8 -0.3 -0.2
v 0.8 -0.2 0.4
v 0.8 -0.2 0.3
v 0.8 -0.2 -0.3
v 0.8 -0.2 -0.4
v 0.8 -0.1 0.4
v 0.8 -0.1 0.3
v 0.8 -0.1 -0.3
v 0.8 -0.1 -0.4
v 0.8 0.1 0.4
v 0.8 0.1 0.3
v 0.8 0.1 -0.3
v 0.8 0.1 -0.4
v 0.8 0.2 0.4
v 0.8 0.2 0.3
v 0.8 0.2 -0.3
v 0.8 0.2 -0.4
v 0.8 0.3 0.2
v 0.8 0.3 0.1
v 0.8 0.3 -0.1
v 0.8 0.3 -0.2
v 0.8 0.4 0.2
v 0.8 0.4 0.1
v 0.8 0.4 -0.1
v 0.8 0.4 -0.2
v 0.9 -0.4 0.1
v 0.9 -0.4 -0.1
v 0.9 -0.3 0.1
v 0.9 -0.3 -0.1
v 0.9 -0.1 0.4
v 0.9 -0.1 0.3
v 0.9 -0.1 -0.3
v 0.9 -0.1 -0.4
v 0.9 0.1 0.4
v 0.9 0.1 0.3
v 0.9 0.1 -0.3
v 0.9 0.1 -0.4
v 0.9 0.3 0.1
v 0.9 0.3 -0.1
v 0.9 0.4 0.1
v 0.9 0.4 -0.1
v 1.8 -0.3 0.3
v 1.8 -0.3 0.1
v 1.8 -0.3 -0.1
v 1.8 -0.3 -0.3
v 1.8 -0.2 0.2
v 1.8 -0.2 0.1
v 1.8 -0.2 -0.1
v 1.8 -0.2 -0.2
v 1.8 -0.1 0.3
v 1.8 -0.1 0.2
v 1.8 -0.1 -0.2
v 1.8 -0.1 -0.3
v 1.8 0.1 0.3
v 1.8 0.1 0.2
v 1.8 0.1 -0.2
v 1.8 0.1 -0.3
v 1.8 0.2 0.2
v 1.8 0.2 0.1
v 1.8 0.2 -0.1
v 1.8 0.2 -0.2
v 1.8 0.3 0.3
v 1.8 0.3 0.1
v 1.8 0.3 -0.1
v 1.8 0.3 -0.3
v 0 -0.3 0.4
v 0 0.3 0.4
v 0.1 -0.3 0.4
v 0.1 -0.2 0.4
v 0.1 0.2 0.4
v 0.1 0.3 0.4
v 0.6 -0.3 0.4
v 0.6 -0.2 0.4
v 0.6 -0.1 0.4
v 0.6 0.1 0.4
v 0.6 0.2 0.4
v 0.6 0.3 0.4
v 0.8 -0.2 0.4
v 0.8 -0.1 0.4
v 0.8 0.1 0.4
v 0.8 0.2 0.4
v 0.9 -0.1 0.4
v 0.9 0.1 0.4
v 0 -0.4 0.3
v 0 -0.3 0.3
v 0 0.3 0.3
v 0 0.4 0.3
v 0.1 -0.4 0.3
v 0.1 -0.3 0.3
v 0.1 0.3 0.3
v 0.1 0.4 0.3
v 0.6 -0.4 0.3
v 0.6 -0.3 0.3
v 0.6 -0.2 0.3
v 0.6 0.2 0.3
v 0.6 0.3 0.3
v 0.6 0.4 0.3
v 0.8 -0.2 0.3
v 0.8 -0.1 0.3
v 0.8 0.1 0.3
v 0.8 0.2 0.3
v 0.9 -0.2 0.3
v 0.9 -0.1 0.3
v 0.9 0.1 0.3
v 0.9 0.2 0.3
v 1 -0.1 0.3
v 1 0.1 0.3
v 1.1 -0.2 0.3
v 1.1 0.2 0.3
v 1.3 -0.2 0.3
v 1.3 -0.1 0.3
v 1.3 0.1 0.3
v 1.3 0.2 0.3
v 1.4 -0.1 0.3
v 1.4 0.1 0.3
v 1.5 -0.2 0.3
v 1.5 0.2 0.3
v 1.7 -0.2 0.3
v 1.7 -0.1 0.3
v 1.7 0.1 0.3
v 1.7 0.2 0.3
v 1.8 -0.3 0.3
v 1.8 -0.1 0.3
v 1.8 0.1 0.3
v 1.8 0.3 0.3
v 0.6 -0.4 0.2
v 0.6 -0.3 0.2
v 0.6 0.3 0.2
v 0.6 0.4 0.2
v 0.8 -0.4 0.2
v 0.8 -0.3 0.2
v 0.8 0.3 0.2
v 0.8 0.4 0.2
v 0.8 -0.4 0.1
v 0.8 -0.3 0.1
v 0.8 0.3 0.1
v 0.8 0.4 0.1
v 0.9 -0.4 0.1
v 0.9 -0.3 0.1
v 0.9 0.3 0.1
v 0.9 0.4 0.1
v 0.8 -0.4 -0.1
v 0.8 -0.3 -0.1
v 0.8 0.3 -0.1
v 0.8 0.4 -0.1
v 0.9 -0.4 -0.1
v 0.9 -0.3 -0.1
v 0.9 0.3 -0.1
v 0.9 0.4 -0.1
v 0.6 -0.4 -0.2
v 0.6 -0.3 -0.2
v 0.6 0.3 -0.2
v 0.6 0.4 -0.2
v 0.8 -0.4 -0.2
v 0.8 -0.3 -0.2
v 0.8 0.3 -0.2
v 0.8 0.4 -0.2
v 0 -0.4 -0.3
v 0 -0.3 -0.3
v 0 0.3 -0.3
v 0 0.4 -0.3
v 0.1 -0.4 -0.3
v 0.1 -0.3 -0.3
v 0.1 0.3 -0.3
v 0.1 0.4 -0.3
v 0.6 -0.4 -0.3
v 0.6 -0.3 -0.3
v 0.6 -0.2 -0.3
v 0.6 0.2 -0.3
v 0.6 0.3 -0.3
v 0.6 0.4 -0.3
v 0.8 -0.2 -0.3
v 0.8 -0.1 -0.3
v 0.8 0.1 -0.3
v 0.8 0.2 -0.3
v 0.9 -0.2 -0.3
v 0.9 -0.1 -0.3
v 0.9 0.1 -0.3
v 0.9 0.2 -0.3
v 1 -0.1 -0.3
v 1 0.1 -0.3
v 1.1 -0.2 -0.3
v 1.1 0.2 -0.3
v 1.3 -0.2 -0.3
v 1.3 -0.1 -0.3
v 1.3 0.1 -0.3
v 1.3 0.2 -0.3
v 1.4 -0.1 -0.3
v 1.4 0.1 -0.3
v 1.5 -0.2 -0.3
v 1.5 0.2 -0.3
v 1.7 -0.2 -0.3
v 1.7 -0.1 -0.3
v 1.7 0.1 -0.3
v 1.7 0.2 -0.3
v 1.8 -0.3 -0.3
v 1.8 -0.1 -0.3
v 1.8 0.1 -0.3
v 1.8 0.3 -0.3
v 0 -0.3 -0.4
v 0 0.3 -0.4
v 0.1 -0.3 -0.4
v 0.1 -0.2 -0.4
v 0.1 0.2 -0.4
v 0.1 0.3 -0.4
v 0.6 -0.3 -0.4
v 0.6 -0.2 -0.4
v 0.6 -0.1 -0.4
v 0.6 0.1 -0.4
v 0.6 0.2 -0.4
v 0.6 0.3 -0.4
v 0.8 -0.2 -0.4
v 0.8 -0.1 -0.4
v 0.8 0.1 -0.4
v 0.8 0.2 -0.4
v 0.9 -0.1 -0.4
v 0.9 0.1 -0.4
v 0 -0.4 0.3
v 0.1 -0.4 0.3
v 0.6 -0.4 0.3
v 0.1 -0.4 0.2
v 0.6 -0.4 0.2
v 0.8 -0.4 0.2
v 0.6 -0.4 0.1
v 0.8 -0.4 0.1
v 0.9 -0.4 0.1
v 0.6 -0.4 -0.1
v 0.8 -0.4 -0.1
v 0.9 -0.4 -0.1
v 0.1 -0.4 -0.2
v 0.6 -0.4 -0.2
v 0.8 -0.4 -0.2
v 0 -0.4 -0.3
v 0.1 -0.4 -0.3
v 0.6 -0.4 -0.3
v 0 -0.3 0.4
v 0.1 -0.3 0.4
v 0.6 -0.3 0.4
v 0 -0.3 0.3
v 0.1 -0.3 0.3
v 0.6 -0.3 0.3
v 1.8 -0.3 0.3
v 0.6 -0.3 0.2
v 0.8 -0.3 0.2
v 0.9 -0.3 0.2
v 1.1 -0.3 0.2
v 1.3 -0.3 0.2
v 1.5 -0.3 0.2
v 1.7 -0.3 0.2
v 0.8 -0.3 0.1
v 0.9 -0.3 0.1
v 1 -0.3 0.1
v 1.3 -0.3 0.1
v 1.4 -0.3 0.1
v 1.7 -0.3 0.1
v 1.8 -0.3 0.1
v 0.8 -0.3 -0.1
v 0.9 -0.3 -0.1
v 1 -0.3 -0.1
v 1.3 -0.3 -0.1
v 1.4 -0.3 -0.1
v 1.7 -0.3 -0.1
v 1.8 -0.3 -0.1
v 0.6 -0.3 -0.2
v 0.8 -0.3 -0.2
v 0.9 -0.3 -0.2
v 1.1 -0.3 -0.2
v 1.3 -0.3 -0.2
v 1.5 -0.3 -0.2
v 1.7 -0.3 -0.2
v 0 -0.3 -0.3
v 0.1 -0.3 -0.3
v 0.6 -0.3 -0.3
v 1.8 -0.3 -0.3
v 0 -0.3 -0.4
v 0.1 -0.3 -0.4
v 0.6 -0.3 -0.4
v 0.6 -0.2 0.4
v 0.8 -0.2 0.4
v 0.6 -0.2 0.3
v 0.8 -0.2 0.3
v 0.6 -0.2 -0.3
v 0.8 -0.2 -0.3
v 0.6 -0.2 -0.4
v 0.8 -0.2 -0.4
v 0.8 -0.1 0.4
v 0.9 -0.1 0.4
v 0.8 -0.1 0.3
v 0.9 -0.1 0.3
v 0.8 -0.1 -0.3
v 0.9 -0.1 -0.3
v 0.8 -0.1 -0.4
v 0.9 -0.1 -0.4
v 0.8 0.1 0.4
v 0.9 0.1 0.4
v 0.8 0.1 0.3
v 0.9 0.1 0.3
v 0.8 0.1 -0.3
v 0.9 0.1 -0.3
v 0.8 0.1 -0.4
v 0.9 0.1 -0.4
v 0.6 0.2 0.4
v 0.8 0.2 0.4
v 0.6 0.2 0.3
v 0.8 0.2 0.3
v 0.6 0.2 -0.3
v 0.8 0.2 -0.3
v 0.6 0.2 -0.4
v 0.8 0.2 -0.4
v 0 0.3 0.4
v 0.1 0.3 0.4
v 0.6 0.3 0.4
v 0 0.3 0.3
v 0.1 0.3 0.3
v 0.6 0.3 0.3
v 1.8 0.3 0.3
v 0.6 0.3 0.2
v 0.8 0.3 0.2
v 0.9 0.3 0.2
v 1.1 0.3 0.2
v 1.3 0.3 0.2
v 1.5 0.3 0.2
v 1.7 0.3 0.2
v 0.8 0.3 0.1
v 0.9 0.3 0.1
v 1 0.3 0.1
v 1.3 0.3 0.1
v 1.4 0.3 0.1
v 1.7 0.3 0.1
v 1.8 0.3 0.1
v 0.8 0.3 -0.1
v 0.9 0.3 -0.1
v 1 0.3 -0.1
v 1.3 0.3 -0.1
v 1.4 0.3 -0.1
v 1.7 0.3 -0.1
v 1.8 0.3 -0.1
v 0.6 0.3 -0.2
v 0.8 0.3 -0.2
v 0.9 0.3 -0.2
v 1.1 0.3 -0.2
v 1.3 0.3 -0.2
v 1.5 0.3 -0.2
v 1.7 0.3 -0.2
v 0 0.3 -0.3
v 0.1 0.3 -0.3
v 0.6 0.3 -0.3
v 1.8 0.3 -0.3
v 0 0.3 -0.4
v 0.1 0.3 -0.4
v 0.6 0.3 -0.4
v 0 0.4 0.3
v 0.1 0.4 0.3
v 0.6 0.4 0.3
v 0.1 0.4 0.2
v 0.6 0.4 0.2
v 0.8 0.4 0.2
v 0.6 0.4 0.1
v 0.8 0.4 0.1
v 0.9 0.4 0.1
v 0.6 0.4 -0.1
v 0.8 0.4 -0.1
v 0.9 0.4 -0.1
v 0.1 0.4 -0.2
v 0.6 0.4 -0.2
v 0.8 0.4 -0.2
v 0 0.4 -0.3
v 0.1 0.4 -0.3
v 0.6 0.4 -0.3

# faces
f 4/4/1 2/4/1 1/4/1
f 5/4/1 2/4/1 4/4/1
f 7/4/1 4/4/1 3/4/1
f 8/1/1 5/1/1 4/1/1
f 8/4/1 4/4/1 7/4/1
f 9/4/1 6/4/1 5/4/1
f 9/1/1 5/1/1 8/1/1
f 10/4/1 6/4/1 9/4/1
f 11/4/1 9/4/1 8/4/1
f 12/4/1 9/4/1 11/4/1
f 13/5/2 14/5/2 18/5/2
f 18/5/2 14/5/2 19/5/2
f 15/5/2 16/5/2 20/5/2
f 20/5/2 16/5/2 21/5/2
f 17/5/2 18/5/2 23/5/2
f 23/5/2 18/5/2 24/5/2
f 21/5/2 22/5/2 25/5/2
f 25/5/2 22/5/2 26/5/2
f 27/5/2 28/5/2 31/5/2
f 31/5/2 28/5/2 32/5/2
f 29/5/2 30/5/2 35/5/2
f 35/5/2 30/5/2 36/5/2
f 32/5/2 33/5/2 37/5/2
f 37/5/2 33/5/2 38/5/2
f 34/5/2 35/5/2 39/5/2
f 39/5/2 35/5/2 40/5/2
f 41/5/2 42/5/2 45/5/2
f 45/5/2 42/5/2 46/5/2
f 43/5/2 44/5/2 47/5/2
f 47/5/2 44/5/2 48/5/2
f 49/5/2 50/5/2 53/5/2
f 53/5/2 50/5/2 54/5/2
f 51/5/2 52/5/2 55/5/2
f 55/5/2 52/5/2 56/5/2
f 57/5/2 58/5/2 61/5/2
f 61/5/2 58/5/2 62/5/2
f 59/5/2 60/5/2 63/5/2
f 63/5/2 60/5/2 64/5/2
f 65/5/2 66/5/2 69/5/2
f 69/5/2 66/5/2 70/5/2
f 67/5/2 68/5/2 71/5/2
f 71/5/2 68/5/2 72/5/2
f 73/5/2 74/5/2 75/5/2
f 75/5/2 74/5/2 76/5/2
f 77/5/2 78/5/2 81/5/2
f 81/5/2 78/5/2 82/5/2
f 79/5/2 80/5/2 83/5/2
f 83/5/2 80/5/2 84/5/2
f 85/5/2 86/5/2 87/5/2
f 87/5/2 86/5/2 88/5/2
f 89/3/2 90/3/2 93/3/2
f 90/2/2 91/2/2 94/2/2
f 93/3/2 90/3/2 94/3/2
f 91/3/2 92/3/2 95/3/2
f 94/2/2 91/2/2 95/2/2
f 95/3/2 92/3/2 96/3/2
f 89/3/2 93/3/2 97/3/2
f 93/2/2 94/2/2 98/2/2
f 97/3/2 93/3/2 98/3/2
f 94/2/2 95/2/2 98/2/2
f 95/2/2 96/2/2 98/2/2
f 96/3/2 92/3/2 99/3/2
f 98/2/2 96/2/2 99/2/2
f 99/3/2 92/3/2 100/3/2
f 97/2/2 98/2/2 101/2/2
f 98/2/2 99/2/2 101/2/2
f 99/2/2 100/2/2 101/2/2
f 101/2/2 100/2/2 102/2/2
f 102/2/2 100/2/2 103/2/2
f 103/2/2 100/2/2 104/2/2
f 101/3/2 102/3/2 105/3/2
f 102/2/2 103/2/2 105/2/2
f 105/2/2 103/2/2 106/2/2
f 106/2/2 103/2/2 107/2/2
f 103/3/2 104/3/2 108/3/2
f 107/2/2 103/2/2 108/2/2
f 101/3/2 105/3/2 109/3/2
f 105/3/2 106/3/2 109/3/2
f 106/2/2 107/2/2 110/2/2
f 109/3/2 106/3/2 110/3/2
f 107/3/2 108/3/2 111/3/2
f 110/2/2 107/2/2 111/2/2
f 108/3/2 104/3/2 112/3/2
f 111/3/2 108/3/2 112/3/2
f 115/4/3 114/4/3 113/4/3
f 116/4/3 114/4/3 115/4/3
f 117/4/3 114/4/3 116/4/3
f 118/4/3 114/4/3 117/4/3
f 119/5/3 116/5/3 115/5/3
f 120/4/3 117/4/3 116/4/3
f 120/5/3 116/5/3 119/5/3
f 121/4/3 117/4/3 120/4/3
f 122/4/3 117/4/3 121/4/3
f 123/5/3 118/5/3 117/5/3
f 123/4/3 117/4/3 122/4/3
f 124/5/3 118/5/3 123/5/3
f 125/5/3 121/5/3 120/5/3
f 126/4/3 122/4/3 121/4/3
f 126/5/3 121/5/3 125/5/3
f 127/5/3 123/5/3 122/5/3
f 127/4/3 122/4/3 126/4/3
f 128/5/3 123/5/3 127/5/3
f 129/5/3 127/5/3 126/5/3
f 130/5/3 127/5/3 129/5/3
f 135/4/3 132/4/3 131/4/3
f 136/4/3 132/4/3 135/4/3
f 137/4/3 134/4/3 133/4/3
f 138/4/3 134/4/3 137/4/3
f 139/5/3 136/5/3 135/5/3
f 140/5/3 136/5/3 139/5/3
f 143/5/3 138/5/3 137/5/3
f 144/5/3 138/5/3 143/5/3
f 145/3/3 141/3/3 140/3/3
f 148/3/3 143/3/3 142/3/3
f 149/2/3 146/2/3 145/2/3
f 149/3/3 145/3/3 140/3/3
f 150/2/3 146/2/3 149/2/3
f 151/2/3 148/2/3 147/2/3
f 152/3/3 143/3/3 148/3/3
f 152/2/3 148/2/3 151/2/3
f 153/3/3 150/3/3 149/3/3
f 153/2/3 151/2/3 150/2/3
f 154/3/3 152/3/3 151/3/3
f 154/2/3 151/2/3 153/2/3
f 155/3/3 153/3/3 149/3/3
f 155/3/3 149/3/3 140/3/3
f 155/3/3 154/3/3 153/3/3
f 156/3/3 143/3/3 152/3/3
f 156/3/3 154/3/3 155/3/3
f 156/3/3 152/3/3 154/3/3
f 157/3/3 155/3/3 140/3/3
f 157/2/3 156/2/3 155/2/3
f 158/2/3 156/2/3 157/2/3
f 159/2/3 156/2/3 158/2/3
f 160/3/3 143/3/3 156/3/3
f 160/2/3 156/2/3 159/2/3
f 161/2/3 159/2/3 158/2/3
f 161/3/3 158/3/3 157/3/3
f 162/3/3 160/3/3 159/3/3
f 162/2/3 159/2/3 161/2/3
f 163/3/3 157/3/3 140/3/3
f 163/3/3 161/3/3 157/3/3
f 163/3/3 162/3/3 161/3/3
f 164/3/3 143/3/3 160/3/3
f 164/3/3 162/3/3 163/3/3
f 164/3/3 160/3/3 162/3/3
f 165/3/3 163/3/3 140/3/3
f 165/2/3 164/2/3 163/2/3
f 166/2/3 164/2/3 165/2/3
f 167/2/3 164/2/3 166/2/3
f 168/3/3 143/3/3 164/3/3
f 168/2/3 164/2/3 167/2/3
f 169/3/3 165/3/3 140/3/3
f 169/3/3 166/3/3 165/3/3
f 170/2/3 167/2/3 166/2/3
f 170/3/3 166/3/3 169/3/3
f 171/3/3 168/3/3 167/3/3
f 171/2/3 167/2/3 170/2/3
f 172/3/3 143/3/3 168/3/3
f 172/3/3 168/3/3 171/3/3
f 177/5/3 174/5/3 173/5/3
f 178/5/3 174/5/3 177/5/3
f 179/5/3 176/5/3 175/5/3
f 180/5/3 176/5/3 179/5/3
f 185/5/3 182/5/3 181/5/3
f 186/5/3 182/5/3 185/5/3
f 187/5/3 184/5/3 183/5/3
f 188/5/3 184/5/3 187/5/3
f 189/5/4 190/5/4 193/5/4
f 193/5/4 190/5/4 194/5/4
f 191/5/4 192/5/4 195/5/4
f 195/5/4 192/5/4 196/5/4
f 197/5/4 198/5/4 201/5/4
f 201/5/4 198/5/4 202/5/4
f 199/5/4 200/5/4 203/5/4
f 203/5/4 200/5/4 204/5/4
f 205/4/4 206/4/4 209/4/4
f 209/4/4 206/4/4 210/4/4
f 207/4/4 208/4/4 211/4/4
f 211/4/4 208/4/4 212/4/4
f 209/5/4 210/5/4 213/5/4
f 213/5/4 210/5/4 214/5/4
f 211/5/4 212/5/4 217/5/4
f 217/5/4 212/5/4 218/5/4
f 214/3/4 215/3/4 219/3/4
f 216/3/4 217/3/4 222/3/4
f 219/2/4 220/2/4 223/2/4
f 214/3/4 219/3/4 223/3/4
f 223/2/4 220/2/4 224/2/4
f 221/2/4 222/2/4 225/2/4
f 222/3/4 217/3/4 226/3/4
f 225/2/4 222/2/4 226/2/4
f 223/3/4 224/3/4 227/3/4
f 224/2/4 225/2/4 227/2/4
f 225/3/4 226/3/4 228/3/4
f 227/2/4 225/2/4 228/2/4
f 223/3/4 227/3/4 229/3/4
f 214/3/4 223/3/4 229/3/4
f 227/3/4 228/3/4 229/3/4
f 226/3/4 217/3/4 230/3/4
f 229/3/4 228/3/4 230/3/4
f 228/3/4 226/3/4 230/3/4
f 214/3/4 229/3/4 231/3/4
f 229/2/4 230/2/4 231/2/4
f 231/2/4 230/2/4 232/2/4
f 232/2/4 230/2/4 233/2/4
f 230/3/4 217/3/4 234/3/4
f 233/2/4 230/2/4 234/2/4
f 232/2/4 233/2/4 235/2/4
f 231/3/4 232/3/4 235/3/4
f 233/3/4 234/3/4 236/3/4
f 235/2/4 233/2/4 236/2/4
f 214/3/4 231/3/4 237/3/4
f 231/3/4 235/3/4 237/3/4
f 235/3/4 236/3/4 237/3/4
f 234/3/4 217/3/4 238/3/4
f 237/3/4 236/3/4 238/3/4
f 236/3/4 234/3/4 238/3/4
f 214/3/4 237/3/4 239/3/4
f 237/2/4 238/2/4 239/2/4
f 239/2/4 238/2/4 240/2/4
f 240/2/4 238/2/4 241/2/4
f 238/3/4 217/3/4 242/3/4
f 241/2/4 238/2/4 242/2/4
f 214/3/4 239/3/4 243/3/4
f 239/3/4 240/3/4 243/3/4
f 240/2/4 241/2/4 244/2/4
f 243/3/4 240/3/4 244/3/4
f 241/3/4 242/3/4 245/3/4
f 244/2/4 241/2/4 245/2/4
f 242/3/4 217/3/4 246/3/4
f 245/3/4 242/3/4 246/3/4
f 247/4/4 248/4/4 249/4/4
f 249/4/4 248/4/4 250/4/4
f 250/4/4 248/4/4 251/4/4
f 251/4/4 248/4/4 252/4/4
f 249/5/4 250/5/4 253/5/4
f 250/4/4 251/4/4 254/4/4
f 253/5/4 250/5/4 254/5/4
f 254/4/4 251/4/4 255/4/4
f 255/4/4 251/4/4 256/4/4
f 251/5/4 252/5/4 257/5/4
f 256/4/4 251/4/4 257/4/4
f 257/5/4 252/5/4 258/5/4
f 254/5/4 255/5/4 259/5/4
f 255/4/4 256/4/4 260/4/4
f 259/5/4 255/5/4 260/5/4
f 256/5/4 257/5/4 261/5/4
f 260/4/4 256/4/4 261/4/4
f 261/5/4 257/5/4 262/5/4
f 260/5/4 261/5/4 263/5/4
f 263/5/4 261/5/4 264/5/4
f 268/4/5 266/4/5 265/4/5
f 268/5/5 267/5/5 266/5/5
f 269/5/5 267/5/5 268/5/5
f 271/4/5 269/4/5 268/4/5
f 271/5/5 270/5/5 269/5/5
f 272/5/5 270/5/5 271/5/5
f 274/4/5 271/4/5 268/4/5
f 274/4/5 272/4/5 271/4/5
f 275/5/5 273/5/5 272/5/5
f 275/4/5 272/4/5 274/4/5
f 276/5/5 273/5/5 275/5/5
f 277/4/5 268/4/5 265/4/5
f 277/4/5 274/4/5 268/4/5
f 278/5/5 275/5/5 274/5/5
f 278/4/5 274/4/5 277/4/5
f 279/5/5 275/5/5 278/5/5
f 280/4/5 277/4/5 265/4/5
f 281/5/5 278/5/5 277/5/5
f 281/4/5 277/4/5 280/4/5
f 282/5/5 278/5/5 281/5/5
f 286/4/5 284/4/5 283/4/5
f 287/5/5 285/5/5 284/5/5
f 287/4/5 284/4/5 286/4/5
f 288/5/5 285/5/5 287/5/5
f 290/3/5 289/3/5 288/3/5
f 291/3/5 289/3/5 290/3/5
f 292/3/5 289/3/5 291/3/5
f 293/3/5 289/3/5 292/3/5
f 294/3/5 289/3/5 293/3/5
f 295/3/5 289/3/5 294/3/5
f 296/3/5 289/3/5 295/3/5
f 297/2/5 292/2/5 291/2/5
f 298/3/5 293/3/5 292/3/5
f 298/2/5 292/2/5 297/2/5
f 299/3/5 293/3/5 298/3/5
f 300/2/5 294/2/5 293/2/5
f 300/3/5 295/3/5 294/3/5
f 301/3/5 295/3/5 300/3/5
f 302/3/5 289/3/5 296/3/5
f 302/2/5 296/2/5 295/2/5
f 303/3/5 289/3/5 302/3/5
f 305/2/5 299/2/5 298/2/5
f 306/3/5 293/3/5 299/3/5
f 306/2/5 299/2/5 305/2/5
f 307/2/5 301/2/5 300/2/5
f 307/2/5 300/2/5 293/2/5
f 308/3/5 295/3/5 301/3/5
f 308/2/5 301/2/5 307/2/5
f 309/2/5 303/2/5 302/2/5
f 309/2/5 302/2/5 295/2/5
f 310/2/5 303/2/5 309/2/5
f 312/2/5 305/2/5 304/2/5
f 313/3/5 306/3/5 305/3/5
f 313/2/5 305/2/5 312/2/5
f 314/2/5 307/2/5 293/2/5
f 314/3/5 306/3/5 313/3/5
f 314/3/5 293/3/5 306/3/5
f 315/3/5 308/3/5 307/3/5
f 315/2/5 307/2/5 314/2/5
f 316/3/5 295/3/5 308/3/5
f 316/3/5 308/3/5 315/3/5
f 316/2/5 309/2/5 295/2/5
f 317/3/5 310/3/5 309/3/5
f 317/2/5 309/2/5 316/2/5
f 320/3/5 313/3/5 312/3/5
f 320/3/5 315/3/5 314/3/5
f 320/3/5 312/3/5 311/3/5
f 320/3/5 317/3/5 316/3/5
f 320/3/5 316/3/5 315/3/5
f 320/3/5 314/3/5 313/3/5
f 321/3/5 310/3/5 317/3/5
f 321/3/5 317/3/5 320/3/5
f 322/4/5 319/4/5 318/4/5
f 323/5/5 320/5/5 319/5/5
f 323/4/5 319/4/5 322/4/5
f 324/5/5 320/5/5 323/5/5
f 327/5/5 326/5/5 325/5/5
f 328/5/5 326/5/5 327/5/5
f 331/5/5 330/5/5 329/5/5
f 332/5/5 330/5/5 331/5/5
f 335/5/5 334/5/5 333/5/5
f 336/5/5 334/5/5 335/5/5
f 339/5/5 338/5/5 337/5/5
f 340/5/5 338/5/5 339/5/5
f 341/5/6 342/5/6 343/5/6
f 343/5/6 342/5/6 344/5/6
f 345/5/6 346/5/6 347/5/6
f 347/5/6 346/5/6 348/5/6
f 349/5/6 350/5/6 351/5/6
f 351/5/6 350/5/6 352/5/6
f 353/5/6 354/5/6 355/5/6
f 355/5/6 354/5/6 356/5/6
f 357/4/6 358/4/6 360/4/6
f 358/5/6 359/5/6 361/5/6
f 360/4/6 358/4/6 361/4/6
f 361/5/6 359/5/6 362/5/6
f 362/3/6 363/3/6 364/3/6
f 364/3/6 363/3/6 365/3/6
f 365/3/6 363/3/6 366/3/6
f 366/3/6 363/3/6 367/3/6
f 367/3/6 363/3/6 368/3/6
f 368/3/6 363/3/6 369/3/6
f 369/3/6 363/3/6 370/3/6
f 365/2/6 366/2/6 371/2/6
f 366/3/6 367/3/6 372/3/6
f 371/2/6 366/2/6 372/2/6
f 372/3/6 367/3/6 373/3/6
f 367/2/6 368/2/6 374/2/6
f 368/3/6 369/3/6 374/3/6
f 374/3/6 369/3/6 375/3/6
f 370/3/6 363/3/6 376/3/6
f 369/2/6 370/2/6 376/2/6
f 376/3/6 363/3/6 377/3/6
f 372/2/6 373/2/6 379/2/6
f 373/3/6 367/3/6 380/3/6
f 379/2/6 373/2/6 380/2/6
f 374/2/6 375/2/6 381/2/6
f 367/2/6 374/2/6 381/2/6
f 375/3/6 369/3/6 382/3/6
f 381/2/6 375/2/6 382/2/6
f 376/2/6 377/2/6 383/2/6
f 369/2/6 376/2/6 383/2/6
f 383/2/6 377/2/6 384/2/6
f 378/2/6 379/2/6 386/2/6
f 379/3/6 380/3/6 387/3/6
f 386/2/6 379/2/6 387/2/6
f 367/2/6 381/2/6 388/2/6
f 387/3/6 380/3/6 388/3/6
f 380/3/6 367/3/6 388/3/6
f 381/3/6 382/3/6 389/3/6
f 388/2/6 381/2/6 389/2/6
f 382/3/6 369/3/6 390/3/6
f 389/3/6 382/3/6 390/3/6
f 369/2/6 383/2/6 390/2/6
f 383/3/6 384/3/6 391/3/6
f 390/2/6 383/2/6 391/2/6
f 386/3/6 387/3/6 394/3/6
f 388/3/6 389/3/6 394/3/6
f 385/3/6 386/3/6 394/3/6
f 390/3/6 391/3/6 394/3/6
f 389/3/6 390/3/6 394/3/6
f 387/3/6 388/3/6 394/3/6
f 391/3/6 384/3/6 395/3/6
f 394/3/6 391/3/6 395/3/6
f 392/4/6 393/4/6 396/4/6
f 393/5/6 394/5/6 397/5/6
f 396/4/6 393/4/6 397/4/6
f 397/5/6 394/5/6 398/5/6
f 399/4/6 400/4/6 402/4/6
f 400/5/6 401/5/6 402/5/6
f 402/5/6 401/5/6 403/5/6
f 402/4/6 403/4/6 405/4/6
f 403/5/6 404/5/6 405/5/6
f 405/5/6 404/5/6 406/5/6
f 402/4/6 405/4/6 408/4/6
f 405/4/6 406/4/6 408/4/6
f 406/5/6 407/5/6 409/5/6
f 408/4/6 406/4/6 409/4/6
f 409/5/6 407/5/6 410/5/6
f 399/4/6 402/4/6 411/4/6
f 402/4/6 408/4/6 411/4/6
f 408/5/6 409/5/6 412/5/6
f 411/4/6 408/4/6 412/4/6
f 412/5/6 409/5/6 413/5/6
f 399/4/6 411/4/6 414/4/6
f 411/5/6 412/5/6 415/5/6
f 414/4/6 411/4/6 415/4/6
f 415/5/6 412/5/6 416/5/6
