# MagicaVoxel @ Ephtracy

# group
o Mano

# material
mtllib Movement Monster-2-Mano.mtl
usemtl palette

# normals
vn 1 0 0
vn -1 0 0
vn 0 0 1
vn 0 0 -1
vn 0 -1 0
vn 0 1 0

# texcoords
vt 0.591797 0.5
vt 0.595703 0.5
vt 0.599609 0.5

# verts
v 0.6 -0.3 0.3
v 0.6 -0.3 -0.3
v 0.6 0.3 0.3
v 0.6 0.3 -0.3
v 5.96046e-08 -0.3 0.3
v 5.96046e-08 -0.3 0.2
v 5.96046e-08 -0.3 0.1
v 5.96046e-08 -0.3 -0.1
v 5.96046e-08 -0.3 -0.2
v 5.96046e-08 -0.3 -0.3
v 5.96046e-08 -0.2 0.3
v 5.96046e-08 -0.2 0.2
v 5.96046e-08 -0.2 0.1
v 5.96046e-08 -0.2 -0.1
v 5.96046e-08 -0.2 -0.2
v 5.96046e-08 -0.2 -0.3
v 5.96046e-08 -0.1 0.3
v 5.96046e-08 -0.1 0.2
v 5.96046e-08 -0.1 -0.2
v 5.96046e-08 -0.1 -0.3
v 5.96046e-08 0.1 0.3
v 5.96046e-08 0.1 0.2
v 5.96046e-08 0.1 -0.2
v 5.96046e-08 0.1 -0.3
v 5.96046e-08 0.2 0.3
v 5.96046e-08 0.2 0.2
v 5.96046e-08 0.2 0.1
v 5.96046e-08 0.2 -0.1
v 5.96046e-08 0.2 -0.2
v 5.96046e-08 0.2 -0.3
v 5.96046e-08 0.3 0.3
v 5.96046e-08 0.3 0.2
v 5.96046e-08 0.3 0.1
v 5.96046e-08 0.3 -0.1
v 5.96046e-08 0.3 -0.2
v 5.96046e-08 0.3 -0.3
v 0.6 -0.3 0.3
v 0.6 0.3 0.3
v 0.5 -0.3 0.3
v 0.5 -0.2 0.3
v 0.5 -0.1 0.3
v 0.5 0.1 0.3
v 0.5 0.2 0.3
v 0.5 0.3 0.3
v 5.96046e-08 -0.3 0.3
v 5.96046e-08 -0.2 0.3
v 5.96046e-08 -0.1 0.3
v 5.96046e-08 0.1 0.3
v 5.96046e-08 0.2 0.3
v 5.96046e-08 0.3 0.3
v 0.6 -0.3 -0.3
v 0.6 0.3 -0.3
v 0.5 -0.3 -0.3
v 0.5 -0.2 -0.3
v 0.5 -0.1 -0.3
v 0.5 0.1 -0.3
v 0.5 0.2 -0.3
v 0.5 0.3 -0.3
v 5.96046e-08 -0.3 -0.3
v 5.96046e-08 -0.2 -0.3
v 5.96046e-08 -0.1 -0.3
v 5.96046e-08 0.1 -0.3
v 5.96046e-08 0.2 -0.3
v 5.96046e-08 0.3 -0.3
v 0.6 -0.3 0.3
v 0.5 -0.3 0.3
v 5.96046e-08 -0.3 0.3
v 0.5 -0.3 0.2
v 5.96046e-08 -0.3 0.2
v 0.5 -0.3 0.1
v 5.96046e-08 -0.3 0.1
v 0.5 -0.3 -0.1
v 5.96046e-08 -0.3 -0.1
v 0.5 -0.3 -0.2
v 5.96046e-08 -0.3 -0.2
v 0.6 -0.3 -0.3
v 0.5 -0.3 -0.3
v 5.96046e-08 -0.3 -0.3
v 0.6 0.3 0.3
v 0.5 0.3 0.3
v 5.96046e-08 0.3 0.3
v 0.5 0.3 0.2
v 5.96046e-08 0.3 0.2
v 0.5 0.3 0.1
v 5.96046e-08 0.3 0.1
v 0.5 0.3 -0.1
v 5.96046e-08 0.3 -0.1
v 0.5 0.3 -0.2
v 5.96046e-08 0.3 -0.2
v 0.6 0.3 -0.3
v 0.5 0.3 -0.3
v 5.96046e-08 0.3 -0.3

# faces
f 1/3/1 2/3/1 3/3/1
f 3/3/1 2/3/1 4/3/1
f 11/2/2 6/2/2 5/2/2
f 12/1/2 7/1/2 6/1/2
f 12/2/2 6/2/2 11/2/2
f 13/2/2 8/2/2 7/2/2
f 13/1/2 7/1/2 12/1/2
f 14/1/2 9/1/2 8/1/2
f 14/2/2 8/2/2 13/2/2
f 15/2/2 10/2/2 9/2/2
f 15/1/2 9/1/2 14/1/2
f 16/2/2 10/2/2 15/2/2
f 17/1/2 14/1/2 13/1/2
f 17/1/2 12/1/2 11/1/2
f 17/1/2 16/1/2 15/1/2
f 17/1/2 15/1/2 14/1/2
f 17/1/2 13/1/2 12/1/2
f 18/1/2 16/1/2 17/1/2
f 19/1/2 16/1/2 18/1/2
f 20/1/2 16/1/2 19/1/2
f 21/2/2 18/2/2 17/2/2
f 22/1/2 19/1/2 18/1/2
f 22/2/2 18/2/2 21/2/2
f 23/2/2 20/2/2 19/2/2
f 23/1/2 19/1/2 22/1/2
f 24/2/2 20/2/2 23/2/2
f 25/1/2 22/1/2 21/1/2
f 25/1/2 23/1/2 22/1/2
f 25/1/2 24/1/2 23/1/2
f 26/1/2 24/1/2 25/1/2
f 27/1/2 24/1/2 26/1/2
f 28/1/2 24/1/2 27/1/2
f 29/1/2 24/1/2 28/1/2
f 30/1/2 24/1/2 29/1/2
f 31/2/2 26/2/2 25/2/2
f 32/1/2 27/1/2 26/1/2
f 32/2/2 26/2/2 31/2/2
f 33/2/2 28/2/2 27/2/2
f 33/1/2 27/1/2 32/1/2
f 34/1/2 29/1/2 28/1/2
f 34/2/2 28/2/2 33/2/2
f 35/2/2 30/2/2 29/2/2
f 35/1/2 29/1/2 34/1/2
f 36/2/2 30/2/2 35/2/2
f 37/3/3 38/3/3 39/3/3
f 39/3/3 38/3/3 40/3/3
f 40/3/3 38/3/3 41/3/3
f 41/3/3 38/3/3 42/3/3
f 42/3/3 38/3/3 43/3/3
f 43/3/3 38/3/3 44/3/3
f 39/2/3 40/2/3 45/2/3
f 40/1/3 41/1/3 46/1/3
f 45/2/3 40/2/3 46/2/3
f 41/2/3 42/2/3 47/2/3
f 46/1/3 41/1/3 47/1/3
f 42/1/3 43/1/3 48/1/3
f 47/2/3 42/2/3 48/2/3
f 43/2/3 44/2/3 49/2/3
f 48/1/3 43/1/3 49/1/3
f 49/2/3 44/2/3 50/2/3
f 53/3/4 52/3/4 51/3/4
f 54/3/4 52/3/4 53/3/4
f 55/3/4 52/3/4 54/3/4
f 56/3/4 52/3/4 55/3/4
f 57/3/4 52/3/4 56/3/4
f 58/3/4 52/3/4 57/3/4
f 59/2/4 54/2/4 53/2/4
f 60/1/4 55/1/4 54/1/4
f 60/2/4 54/2/4 59/2/4
f 61/2/4 56/2/4 55/2/4
f 61/1/4 55/1/4 60/1/4
f 62/1/4 57/1/4 56/1/4
f 62/2/4 56/2/4 61/2/4
f 63/2/4 58/2/4 57/2/4
f 63/1/4 57/1/4 62/1/4
f 64/2/4 58/2/4 63/2/4
f 65/3/5 66/3/5 68/3/5
f 66/2/5 67/2/5 68/2/5
f 68/2/5 67/2/5 69/2/5
f 65/3/5 68/3/5 70/3/5
f 68/1/5 69/1/5 70/1/5
f 70/1/5 69/1/5 71/1/5
f 65/3/5 70/3/5 72/3/5
f 70/2/5 71/2/5 72/2/5
f 72/2/5 71/2/5 73/2/5
f 65/3/5 72/3/5 74/3/5
f 72/1/5 73/1/5 74/1/5
f 74/1/5 73/1/5 75/1/5
f 65/3/5 74/3/5 76/3/5
f 74/2/5 75/2/5 77/2/5
f 76/3/5 74/3/5 77/3/5
f 77/2/5 75/2/5 78/2/5
f 82/3/6 80/3/6 79/3/6
f 82/2/6 81/2/6 80/2/6
f 83/2/6 81/2/6 82/2/6
f 84/3/6 82/3/6 79/3/6
f 84/1/6 83/1/6 82/1/6
f 85/1/6 83/1/6 84/1/6
f 86/3/6 84/3/6 79/3/6
f 86/2/6 85/2/6 84/2/6
f 87/2/6 85/2/6 86/2/6
f 88/3/6 86/3/6 79/3/6
f 88/1/6 87/1/6 86/1/6
f 89/1/6 87/1/6 88/1/6
f 90/3/6 88/3/6 79/3/6
f 91/2/6 89/2/6 88/2/6
f 91/3/6 88/3/6 90/3/6
f 92/2/6 89/2/6 91/2/6
