# MagicaVoxel @ Ephtracy

# group
o PiernaCompleta

# material
mtllib Movement Monster-9-PiernaCompleta.mtl
usemtl palette

# normals
vn -1 0 0
vn 1 0 0
vn 0 0 1
vn 0 0 -1
vn 0 -1 0
vn 0 1 0

# texcoords
vt 0.564453 0.5
vt 0.568359 0.5
vt 0.572266 0.5
vt 0.580078 0.5
vt 0.583984 0.5
vt 0.587891 0.5
vt 0.591797 0.5

# verts
v -0.3 -3 0.7
v -0.3 -3 -0.2
v -0.3 -2.9 0.7
v -0.3 -2.9 -0.2
v -0.3 -2.8 0.7
v -0.3 -2.8 0.6
v -0.3 -2.7 0.6
v -0.3 -2.7 0.2
v -0.3 -2.5 0.2
v -0.3 -2.5 -0.2
v -0.3 -2.4 0.2
v -0.3 -2.4 -0.2
v -0.3 -2.2 0.2
v -0.3 -2.2 -0.2
v -0.3 -2 0.2
v -0.3 -2 -0.2
v -0.3 -1.8 0.2
v -0.3 -1.8 -0.2
v -0.3 -1.6 0.2
v -0.3 -1.6 -0.2
v -0.3 -1.4 0.2
v -0.3 -1.4 -0.2
v -0.3 -1.3 0.3
v -0.3 -1.3 0.2
v -0.3 -1.2 0.3
v -0.3 -1.2 -0.2
v -0.3 -1 0.3
v -0.3 -1 -0.2
v -0.3 -0.8 0.3
v -0.3 -0.8 -0.2
v -0.3 -0.8 -0.3
v -0.3 -0.6 0.3
v -0.3 -0.6 -0.3
v -0.3 -0.4 0.3
v -0.3 -0.4 -0.3
v -0.3 -0.2 0.3
v -0.3 -0.2 -0.3
v -0.3 2.38419e-07 0.3
v -0.3 2.38419e-07 -0.3
v -0.2 -3 0.8
v -0.2 -3 0.7
v -0.2 -3 -0.2
v -0.2 -3 -0.3
v -0.2 -2.9 0.8
v -0.2 -2.9 0.7
v -0.2 -2.9 -0.2
v -0.2 -2.9 -0.3
v -0.2 -2.8 0.8
v -0.2 -2.8 0.7
v -0.2 -2.8 0.6
v -0.2 -2.7 0.7
v -0.2 -2.7 0.6
v -0.2 -2.7 0.5
v -0.2 -2.7 0.2
v -0.2 -2.6 0.5
v -0.2 -2.6 0.3
v -0.2 -2.5 0.3
v -0.2 -2.5 0.2
v -0.2 -2.5 -0.2
v -0.2 -2.5 -0.3
v -0.2 -2.4 0.3
v -0.2 -2.4 0.2
v -0.2 -2.4 -0.2
v -0.2 -2.4 -0.3
v -0.2 -2.2 0.3
v -0.2 -2.2 0.2
v -0.2 -2.2 -0.2
v -0.2 -2.2 -0.3
v -0.2 -2 0.3
v -0.2 -2 0.2
v -0.2 -2 -0.2
v -0.2 -2 -0.3
v -0.2 -1.8 0.3
v -0.2 -1.8 0.2
v -0.2 -1.8 -0.2
v -0.2 -1.8 -0.3
v -0.2 -1.6 0.3
v -0.2 -1.6 0.2
v -0.2 -1.6 -0.2
v -0.2 -1.6 -0.3
v -0.2 -1.4 0.3
v -0.2 -1.4 0.2
v -0.2 -1.4 -0.2
v -0.2 -1.4 -0.3
v -0.2 -1.3 0.3
v -0.2 -1.3 0.2
v -0.2 -1.2 -0.2
v -0.2 -1.2 -0.3
v -0.2 -1.1 0.4
v -0.2 -1.1 0.3
v -0.2 -1 0.4
v -0.2 -1 0.3
v -0.2 -1 -0.2
v -0.2 -1 -0.3
v -0.2 -0.8 0.4
v -0.2 -0.8 0.3
v -0.2 -0.8 -0.2
v -0.2 -0.8 -0.3
v -0.2 -0.7 -0.3
v -0.2 -0.7 -0.4
v -0.2 -0.6 0.4
v -0.2 -0.6 0.3
v -0.2 -0.6 -0.3
v -0.2 -0.6 -0.4
v -0.2 -0.4 0.4
v -0.2 -0.4 0.3
v -0.2 -0.4 -0.3
v -0.2 -0.4 -0.4
v -0.2 -0.2 0.4
v -0.2 -0.2 0.3
v -0.2 -0.2 -0.3
v -0.2 -0.2 -0.4
v -0.2 2.38419e-07 0.4
v -0.2 2.38419e-07 0.3
v -0.2 2.38419e-07 -0.3
v -0.2 2.38419e-07 -0.4
v -0.1 -2.7 0.6
v -0.1 -2.7 0.5
v -0.1 -2.6 0.6
v -0.1 -2.6 0.5
v -0.1 -1.2 0.4
v -0.1 -1.2 0.3
v -0.1 -1.1 0.4
v -0.1 -1.1 0.3
v -0.1 -0.8 -0.3
v -0.1 -0.8 -0.4
v -0.1 -0.7 -0.3
v -0.1 -0.7 -0.4
v 0.1 -2.7 0.6
v 0.1 -2.7 0.5
v 0.1 -2.6 0.6
v 0.1 -2.6 0.5
v 0.1 -1.2 0.4
v 0.1 -1.2 0.3
v 0.1 -1.1 0.4
v 0.1 -1.1 0.3
v 0.1 -0.8 -0.3
v 0.1 -0.8 -0.4
v 0.1 -0.7 -0.3
v 0.1 -0.7 -0.4
v 0.2 -3 0.8
v 0.2 -3 0.7
v 0.2 -3 -0.2
v 0.2 -3 -0.3
v 0.2 -2.9 0.8
v 0.2 -2.9 0.7
v 0.2 -2.9 -0.2
v 0.2 -2.9 -0.3
v 0.2 -2.8 0.8
v 0.2 -2.8 0.7
v 0.2 -2.8 0.6
v 0.2 -2.7 0.7
v 0.2 -2.7 0.6
v 0.2 -2.7 0.5
v 0.2 -2.7 0.2
v 0.2 -2.6 0.5
v 0.2 -2.6 0.3
v 0.2 -2.5 0.3
v 0.2 -2.5 0.2
v 0.2 -2.5 -0.2
v 0.2 -2.5 -0.3
v 0.2 -2.4 0.3
v 0.2 -2.4 0.2
v 0.2 -2.4 -0.2
v 0.2 -2.4 -0.3
v 0.2 -2.2 0.3
v 0.2 -2.2 0.2
v 0.2 -2.2 -0.2
v 0.2 -2.2 -0.3
v 0.2 -2 0.3
v 0.2 -2 0.2
v 0.2 -2 -0.2
v 0.2 -2 -0.3
v 0.2 -1.8 0.3
v 0.2 -1.8 0.2
v 0.2 -1.8 -0.2
v 0.2 -1.8 -0.3
v 0.2 -1.6 0.3
v 0.2 -1.6 0.2
v 0.2 -1.6 -0.2
v 0.2 -1.6 -0.3
v 0.2 -1.4 0.3
v 0.2 -1.4 0.2
v 0.2 -1.4 -0.2
v 0.2 -1.4 -0.3
v 0.2 -1.3 0.3
v 0.2 -1.3 0.2
v 0.2 -1.2 -0.2
v 0.2 -1.2 -0.3
v 0.2 -1.1 0.4
v 0.2 -1.1 0.3
v 0.2 -1 0.4
v 0.2 -1 0.3
v 0.2 -1 -0.2
v 0.2 -1 -0.3
v 0.2 -0.8 0.4
v 0.2 -0.8 0.3
v 0.2 -0.8 -0.2
v 0.2 -0.8 -0.3
v 0.2 -0.7 -0.3
v 0.2 -0.7 -0.4
v 0.2 -0.6 0.4
v 0.2 -0.6 0.3
v 0.2 -0.6 -0.3
v 0.2 -0.6 -0.4
v 0.2 -0.4 0.4
v 0.2 -0.4 0.3
v 0.2 -0.4 -0.3
v 0.2 -0.4 -0.4
v 0.2 -0.2 0.4
v 0.2 -0.2 0.3
v 0.2 -0.2 -0.3
v 0.2 -0.2 -0.4
v 0.2 2.38419e-07 0.4
v 0.2 2.38419e-07 0.3
v 0.2 2.38419e-07 -0.3
v 0.2 2.38419e-07 -0.4
v 0.3 -3 0.7
v 0.3 -3 -0.2
v 0.3 -2.9 0.7
v 0.3 -2.9 -0.2
v 0.3 -2.8 0.7
v 0.3 -2.8 0.6
v 0.3 -2.7 0.6
v 0.3 -2.7 0.2
v 0.3 -2.5 0.2
v 0.3 -2.5 -0.2
v 0.3 -2.4 0.2
v 0.3 -2.4 -0.2
v 0.3 -2.2 0.2
v 0.3 -2.2 -0.2
v 0.3 -2 0.2
v 0.3 -2 -0.2
v 0.3 -1.8 0.2
v 0.3 -1.8 -0.2
v 0.3 -1.6 0.2
v 0.3 -1.6 -0.2
v 0.3 -1.4 0.2
v 0.3 -1.4 -0.2
v 0.3 -1.3 0.3
v 0.3 -1.3 0.2
v 0.3 -1.2 0.3
v 0.3 -1.2 -0.2
v 0.3 -1 0.3
v 0.3 -1 -0.2
v 0.3 -0.8 0.3
v 0.3 -0.8 -0.2
v 0.3 -0.8 -0.3
v 0.3 -0.6 0.3
v 0.3 -0.6 -0.3
v 0.3 -0.4 0.3
v 0.3 -0.4 -0.3
v 0.3 -0.2 0.3
v 0.3 -0.2 -0.3
v 0.3 2.38419e-07 0.3
v 0.3 2.38419e-07 -0.3
v -0.2 -3 0.8
v -0.2 -2.9 0.8
v -0.2 -2.8 0.8
v 0.2 -3 0.8
v 0.2 -2.9 0.8
v 0.2 -2.8 0.8
v -0.3 -3 0.7
v -0.3 -2.9 0.7
v -0.3 -2.8 0.7
v -0.2 -3 0.7
v -0.2 -2.9 0.7
v -0.2 -2.8 0.7
v -0.2 -2.7 0.7
v 0.2 -3 0.7
v 0.2 -2.9 0.7
v 0.2 -2.8 0.7
v 0.2 -2.7 0.7
v 0.3 -3 0.7
v 0.3 -2.9 0.7
v 0.3 -2.8 0.7
v -0.3 -2.8 0.6
v -0.3 -2.7 0.6
v -0.2 -2.8 0.6
v -0.2 -2.7 0.6
v -0.1 -2.7 0.6
v -0.1 -2.6 0.6
v 0.1 -2.7 0.6
v 0.1 -2.6 0.6
v 0.2 -2.8 0.6
v 0.2 -2.7 0.6
v 0.3 -2.8 0.6
v 0.3 -2.7 0.6
v -0.2 -2.7 0.5
v -0.2 -2.6 0.5
v -0.1 -2.7 0.5
v -0.1 -2.6 0.5
v 0.1 -2.7 0.5
v 0.1 -2.6 0.5
v 0.2 -2.7 0.5
v 0.2 -2.6 0.5
v -0.2 -1.1 0.4
v -0.2 -1 0.4
v -0.2 -0.8 0.4
v -0.2 -0.6 0.4
v -0.2 -0.4 0.4
v -0.2 -0.2 0.4
v -0.2 2.38419e-07 0.4
v -0.1 -1.2 0.4
v -0.1 -1.1 0.4
v 0.1 -1.2 0.4
v 0.1 -1.1 0.4
v 0.2 -1.1 0.4
v 0.2 -1 0.4
v 0.2 -0.8 0.4
v 0.2 -0.6 0.4
v 0.2 -0.4 0.4
v 0.2 -0.2 0.4
v 0.2 2.38419e-07 0.4
v -0.3 -1.3 0.3
v -0.3 -1.2 0.3
v -0.3 -1 0.3
v -0.3 -0.8 0.3
v -0.3 -0.6 0.3
v -0.3 -0.4 0.3
v -0.3 -0.2 0.3
v -0.3 2.38419e-07 0.3
v -0.2 -2.6 0.3
v -0.2 -2.5 0.3
v -0.2 -2.4 0.3
v -0.2 -2.2 0.3
v -0.2 -2 0.3
v -0.2 -1.8 0.3
v -0.2 -1.6 0.3
v -0.2 -1.4 0.3
v -0.2 -1.3 0.3
v -0.2 -1.1 0.3
v -0.2 -1 0.3
v -0.2 -0.8 0.3
v -0.2 -0.6 0.3
v -0.2 -0.4 0.3
v -0.2 -0.2 0.3
v -0.2 2.38419e-07 0.3
v -0.1 -1.2 0.3
v -0.1 -1.1 0.3
v 0.1 -1.2 0.3
v 0.1 -1.1 0.3
v 0.2 -2.6 0.3
v 0.2 -2.5 0.3
v 0.2 -2.4 0.3
v 0.2 -2.2 0.3
v 0.2 -2 0.3
v 0.2 -1.8 0.3
v 0.2 -1.6 0.3
v 0.2 -1.4 0.3
v 0.2 -1.3 0.3
v 0.2 -1.1 0.3
v 0.2 -1 0.3
v 0.2 -0.8 0.3
v 0.2 -0.6 0.3
v 0.2 -0.4 0.3
v 0.2 -0.2 0.3
v 0.2 2.38419e-07 0.3
v 0.3 -1.3 0.3
v 0.3 -1.2 0.3
v 0.3 -1 0.3
v 0.3 -0.8 0.3
v 0.3 -0.6 0.3
v 0.3 -0.4 0.3
v 0.3 -0.2 0.3
v 0.3 2.38419e-07 0.3
v -0.3 -2.7 0.2
v -0.3 -2.5 0.2
v -0.3 -2.4 0.2
v -0.3 -2.2 0.2
v -0.3 -2 0.2
v -0.3 -1.8 0.2
v -0.3 -1.6 0.2
v -0.3 -1.4 0.2
v -0.3 -1.3 0.2
v -0.2 -2.7 0.2
v -0.2 -2.5 0.2
v -0.2 -2.4 0.2
v -0.2 -2.2 0.2
v -0.2 -2 0.2
v -0.2 -1.8 0.2
v -0.2 -1.6 0.2
v -0.2 -1.4 0.2
v -0.2 -1.3 0.2
v 0.2 -2.7 0.2
v 0.2 -2.5 0.2
v 0.2 -2.4 0.2
v 0.2 -2.2 0.2
v 0.2 -2 0.2
v 0.2 -1.8 0.2
v 0.2 -1.6 0.2
v 0.2 -1.4 0.2
v 0.2 -1.3 0.2
v 0.3 -2.7 0.2
v 0.3 -2.5 0.2
v 0.3 -2.4 0.2
v 0.3 -2.2 0.2
v 0.3 -2 0.2
v 0.3 -1.8 0.2
v 0.3 -1.6 0.2
v 0.3 -1.4 0.2
v 0.3 -1.3 0.2
v -0.3 -3 -0.2
v -0.3 -2.9 -0.2
v -0.3 -2.5 -0.2
v -0.3 -2.4 -0.2
v -0.3 -2.2 -0.2
v -0.3 -2 -0.2
v -0.3 -1.8 -0.2
v -0.3 -1.6 -0.2
v -0.3 -1.4 -0.2
v -0.3 -1.2 -0.2
v -0.3 -1 -0.2
v -0.3 -0.8 -0.2
v -0.2 -3 -0.2
v -0.2 -2.9 -0.2
v -0.2 -2.5 -0.2
v -0.2 -2.4 -0.2
v -0.2 -2.2 -0.2
v -0.2 -2 -0.2
v -0.2 -1.8 -0.2
v -0.2 -1.6 -0.2
v -0.2 -1.4 -0.2
v -0.2 -1.2 -0.2
v -0.2 -1 -0.2
v -0.2 -0.8 -0.2
v 0.2 -3 -0.2
v 0.2 -2.9 -0.2
v 0.2 -2.5 -0.2
v 0.2 -2.4 -0.2
v 0.2 -2.2 -0.2
v 0.2 -2 -0.2
v 0.2 -1.8 -0.2
v 0.2 -1.6 -0.2
v 0.2 -1.4 -0.2
v 0.2 -1.2 -0.2
v 0.2 -1 -0.2
v 0.2 -0.8 -0.2
v 0.3 -3 -0.2
v 0.3 -2.9 -0.2
v 0.3 -2.5 -0.2
v 0.3 -2.4 -0.2
v 0.3 -2.2 -0.2
v 0.3 -2 -0.2
v 0.3 -1.8 -0.2
v 0.3 -1.6 -0.2
v 0.3 -1.4 -0.2
v 0.3 -1.2 -0.2
v 0.3 -1 -0.2
v 0.3 -0.8 -0.2
v -0.3 -0.8 -0.3
v -0.3 -0.6 -0.3
v -0.3 -0.4 -0.3
v -0.3 -0.2 -0.3
v -0.3 2.38419e-07 -0.3
v -0.2 -3 -0.3
v -0.2 -2.9 -0.3
v -0.2 -2.5 -0.3
v -0.2 -2.4 -0.3
v -0.2 -2.2 -0.3
v -0.2 -2 -0.3
v -0.2 -1.8 -0.3
v -0.2 -1.6 -0.3
v -0.2 -1.4 -0.3
v -0.2 -1.2 -0.3
v -0.2 -1 -0.3
v -0.2 -0.8 -0.3
v -0.2 -0.7 -0.3
v -0.2 -0.6 -0.3
v -0.2 -0.4 -0.3
v -0.2 -0.2 -0.3
v -0.2 2.38419e-07 -0.3
v -0.1 -0.8 -0.3
v -0.1 -0.7 -0.3
v 0.1 -0.8 -0.3
v 0.1 -0.7 -0.3
v 0.2 -3 -0.3
v 0.2 -2.9 -0.3
v 0.2 -2.5 -0.3
v 0.2 -2.4 -0.3
v 0.2 -2.2 -0.3
v 0.2 -2 -0.3
v 0.2 -1.8 -0.3
v 0.2 -1.6 -0.3
v 0.2 -1.4 -0.3
v 0.2 -1.2 -0.3
v 0.2 -1 -0.3
v 0.2 -0.8 -0.3
v 0.2 -0.7 -0.3
v 0.2 -0.6 -0.3
v 0.2 -0.4 -0.3
v 0.2 -0.2 -0.3
v 0.2 2.38419e-07 -0.3
v 0.3 -0.8 -0.3
v 0.3 -0.6 -0.3
v 0.3 -0.4 -0.3
v 0.3 -0.2 -0.3
v 0.3 2.38419e-07 -0.3
v -0.2 -0.7 -0.4
v -0.2 -0.6 -0.4
v -0.2 -0.4 -0.4
v -0.2 -0.2 -0.4
v -0.2 2.38419e-07 -0.4
v -0.1 -0.8 -0.4
v -0.1 -0.7 -0.4
v 0.1 -0.8 -0.4
v 0.1 -0.7 -0.4
v 0.2 -0.7 -0.4
v 0.2 -0.6 -0.4
v 0.2 -0.4 -0.4
v 0.2 -0.2 -0.4
v 0.2 2.38419e-07 -0.4
v -0.2 -3 0.8
v 0.2 -3 0.8
v -0.3 -3 0.7
v -0.2 -3 0.7
v 0.2 -3 0.7
v 0.3 -3 0.7
v -0.2 -3 0.6
v 0.2 -3 0.6
v -0.2 -3 0.5
v 0.2 -3 0.5
v -0.2 -3 0.4
v 0.2 -3 0.4
v -0.2 -3 0.3
v 0.2 -3 0.3
v -0.2 -3 0.2
v 0.2 -3 0.2
v -0.2 -3 0.1
v 0.2 -3 0.1
v -0.2 -3 0
v 0.2 -3 0
v -0.2 -3 -0.1
v 0.2 -3 -0.1
v -0.3 -3 -0.2
v -0.2 -3 -0.2
v 0.2 -3 -0.2
v 0.3 -3 -0.2
v -0.2 -3 -0.3
v 0.2 -3 -0.3
v -0.3 -1.3 0.3
v -0.2 -1.3 0.3
v 0.2 -1.3 0.3
v 0.3 -1.3 0.3
v -0.3 -1.3 0.2
v -0.2 -1.3 0.2
v 0.2 -1.3 0.2
v 0.3 -1.3 0.2
v -0.1 -1.2 0.4
v 0.1 -1.2 0.4
v -0.1 -1.2 0.3
v 0.1 -1.2 0.3
v -0.2 -1.1 0.4
v -0.1 -1.1 0.4
v 0.1 -1.1 0.4
v 0.2 -1.1 0.4
v -0.2 -1.1 0.3
v -0.1 -1.1 0.3
v 0.1 -1.1 0.3
v 0.2 -1.1 0.3
v -0.3 -0.8 -0.2
v -0.2 -0.8 -0.2
v 0.2 -0.8 -0.2
v 0.3 -0.8 -0.2
v -0.3 -0.8 -0.3
v -0.2 -0.8 -0.3
v -0.1 -0.8 -0.3
v 0.1 -0.8 -0.3
v 0.2 -0.8 -0.3
v 0.3 -0.8 -0.3
v -0.1 -0.8 -0.4
v 0.1 -0.8 -0.4
v -0.2 -0.7 -0.3
v -0.1 -0.7 -0.3
v 0.1 -0.7 -0.3
v 0.2 -0.7 -0.3
v -0.2 -0.7 -0.4
v -0.1 -0.7 -0.4
v 0.1 -0.7 -0.4
v 0.2 -0.7 -0.4
v -0.2 -2.8 0.8
v 0.2 -2.8 0.8
v -0.3 -2.8 0.7
v -0.2 -2.8 0.7
v 0.2 -2.8 0.7
v 0.3 -2.8 0.7
v -0.3 -2.8 0.6
v -0.2 -2.8 0.6
v 0.2 -2.8 0.6
v 0.3 -2.8 0.6
v -0.2 -2.7 0.7
v 0.2 -2.7 0.7
v -0.3 -2.7 0.6
v -0.2 -2.7 0.6
v -0.1 -2.7 0.6
v 0.1 -2.7 0.6
v 0.2 -2.7 0.6
v 0.3 -2.7 0.6
v -0.2 -2.7 0.5
v -0.1 -2.7 0.5
v 0.1 -2.7 0.5
v 0.2 -2.7 0.5
v -0.3 -2.7 0.2
v -0.2 -2.7 0.2
v 0.2 -2.7 0.2
v 0.3 -2.7 0.2
v -0.1 -2.6 0.6
v 0.1 -2.6 0.6
v -0.2 -2.6 0.5
v -0.1 -2.6 0.5
v 0.1 -2.6 0.5
v 0.2 -2.6 0.5
v -0.2 -2.6 0.3
v 0.2 -2.6 0.3
v -0.2 2.38419e-07 0.4
v 0.2 2.38419e-07 0.4
v -0.3 2.38419e-07 0.3
v -0.2 2.38419e-07 0.3
v 0.2 2.38419e-07 0.3
v 0.3 2.38419e-07 0.3
v -0.3 2.38419e-07 -0.3
v -0.2 2.38419e-07 -0.3
v 0.2 2.38419e-07 -0.3
v 0.3 2.38419e-07 -0.3
v -0.2 2.38419e-07 -0.4
v 0.2 2.38419e-07 -0.4

# faces
f 3/7/1 2/7/1 1/7/1
f 4/7/1 2/7/1 3/7/1
f 5/5/1 4/5/1 3/5/1
f 6/5/1 4/5/1 5/5/1
f 7/5/1 4/5/1 6/5/1
f 8/5/1 4/5/1 7/5/1
f 9/5/1 4/5/1 8/5/1
f 10/5/1 4/5/1 9/5/1
f 11/4/1 10/4/1 9/4/1
f 12/4/1 10/4/1 11/4/1
f 13/2/1 12/2/1 11/2/1
f 14/2/1 12/2/1 13/2/1
f 15/1/1 14/1/1 13/1/1
f 16/1/1 14/1/1 15/1/1
f 17/2/1 16/2/1 15/2/1
f 18/2/1 16/2/1 17/2/1
f 19/1/1 18/1/1 17/1/1
f 20/1/1 18/1/1 19/1/1
f 21/2/1 20/2/1 19/2/1
f 22/2/1 20/2/1 21/2/1
f 24/1/1 22/1/1 21/1/1
f 25/1/1 24/1/1 23/1/1
f 26/1/1 22/1/1 24/1/1
f 26/1/1 24/1/1 25/1/1
f 27/2/1 26/2/1 25/2/1
f 28/2/1 26/2/1 27/2/1
f 29/3/1 28/3/1 27/3/1
f 30/3/1 28/3/1 29/3/1
f 32/2/1 30/2/1 29/2/1
f 32/2/1 31/2/1 30/2/1
f 33/2/1 31/2/1 32/2/1
f 34/3/1 33/3/1 32/3/1
f 35/3/1 33/3/1 34/3/1
f 36/2/1 35/2/1 34/2/1
f 37/2/1 35/2/1 36/2/1
f 38/3/1 37/3/1 36/3/1
f 39/3/1 37/3/1 38/3/1
f 44/7/1 41/7/1 40/7/1
f 45/7/1 41/7/1 44/7/1
f 46/7/1 43/7/1 42/7/1
f 47/7/1 43/7/1 46/7/1
f 48/5/1 45/5/1 44/5/1
f 49/5/1 45/5/1 48/5/1
f 51/5/1 50/5/1 49/5/1
f 52/5/1 50/5/1 51/5/1
f 55/5/1 54/5/1 53/5/1
f 56/5/1 54/5/1 55/5/1
f 57/5/1 54/5/1 56/5/1
f 58/5/1 54/5/1 57/5/1
f 59/5/1 47/5/1 46/5/1
f 60/5/1 47/5/1 59/5/1
f 61/4/1 58/4/1 57/4/1
f 62/4/1 58/4/1 61/4/1
f 63/4/1 60/4/1 59/4/1
f 64/4/1 60/4/1 63/4/1
f 65/2/1 62/2/1 61/2/1
f 66/2/1 62/2/1 65/2/1
f 67/2/1 64/2/1 63/2/1
f 68/2/1 64/2/1 67/2/1
f 69/1/1 66/1/1 65/1/1
f 70/1/1 66/1/1 69/1/1
f 71/1/1 68/1/1 67/1/1
f 72/1/1 68/1/1 71/1/1
f 73/2/1 70/2/1 69/2/1
f 74/2/1 70/2/1 73/2/1
f 75/2/1 72/2/1 71/2/1
f 76/2/1 72/2/1 75/2/1
f 77/1/1 74/1/1 73/1/1
f 78/1/1 74/1/1 77/1/1
f 79/1/1 76/1/1 75/1/1
f 80/1/1 76/1/1 79/1/1
f 81/2/1 78/2/1 77/2/1
f 82/2/1 78/2/1 81/2/1
f 83/2/1 80/2/1 79/2/1
f 84/2/1 80/2/1 83/2/1
f 85/1/1 82/1/1 81/1/1
f 86/1/1 82/1/1 85/1/1
f 87/1/1 84/1/1 83/1/1
f 88/1/1 84/1/1 87/1/1
f 91/4/1 90/4/1 89/4/1
f 92/4/1 90/4/1 91/4/1
f 93/2/1 88/2/1 87/2/1
f 94/2/1 88/2/1 93/2/1
f 95/5/1 92/5/1 91/5/1
f 96/5/1 92/5/1 95/5/1
f 97/3/1 94/3/1 93/3/1
f 98/3/1 94/3/1 97/3/1
f 101/4/1 96/4/1 95/4/1
f 102/4/1 96/4/1 101/4/1
f 103/4/1 100/4/1 99/4/1
f 104/4/1 100/4/1 103/4/1
f 105/5/1 102/5/1 101/5/1
f 106/5/1 102/5/1 105/5/1
f 107/5/1 104/5/1 103/5/1
f 108/5/1 104/5/1 107/5/1
f 109/4/1 106/4/1 105/4/1
f 110/4/1 106/4/1 109/4/1
f 111/4/1 108/4/1 107/4/1
f 112/4/1 108/4/1 111/4/1
f 113/5/1 110/5/1 109/5/1
f 114/5/1 110/5/1 113/5/1
f 115/5/1 112/5/1 111/5/1
f 116/5/1 112/5/1 115/5/1
f 119/5/1 118/5/1 117/5/1
f 120/5/1 118/5/1 119/5/1
f 123/4/1 122/4/1 121/4/1
f 124/4/1 122/4/1 123/4/1
f 127/4/1 126/4/1 125/4/1
f 128/4/1 126/4/1 127/4/1
f 129/5/2 130/5/2 131/5/2
f 131/5/2 130/5/2 132/5/2
f 133/4/2 134/4/2 135/4/2
f 135/4/2 134/4/2 136/4/2
f 137/4/2 138/4/2 139/4/2
f 139/4/2 138/4/2 140/4/2
f 141/7/2 142/7/2 145/7/2
f 145/7/2 142/7/2 146/7/2
f 143/7/2 144/7/2 147/7/2
f 147/7/2 144/7/2 148/7/2
f 145/5/2 146/5/2 149/5/2
f 149/5/2 146/5/2 150/5/2
f 150/5/2 151/5/2 152/5/2
f 152/5/2 151/5/2 153/5/2
f 154/5/2 155/5/2 156/5/2
f 156/5/2 155/5/2 157/5/2
f 157/5/2 155/5/2 158/5/2
f 158/5/2 155/5/2 159/5/2
f 147/5/2 148/5/2 160/5/2
f 160/5/2 148/5/2 161/5/2
f 158/4/2 159/4/2 162/4/2
f 162/4/2 159/4/2 163/4/2
f 160/4/2 161/4/2 164/4/2
f 164/4/2 161/4/2 165/4/2
f 162/2/2 163/2/2 166/2/2
f 166/2/2 163/2/2 167/2/2
f 164/2/2 165/2/2 168/2/2
f 168/2/2 165/2/2 169/2/2
f 166/1/2 167/1/2 170/1/2
f 170/1/2 167/1/2 171/1/2
f 168/1/2 169/1/2 172/1/2
f 172/1/2 169/1/2 173/1/2
f 170/2/2 171/2/2 174/2/2
f 174/2/2 171/2/2 175/2/2
f 172/2/2 173/2/2 176/2/2
f 176/2/2 173/2/2 177/2/2
f 174/1/2 175/1/2 178/1/2
f 178/1/2 175/1/2 179/1/2
f 176/1/2 177/1/2 180/1/2
f 180/1/2 177/1/2 181/1/2
f 178/2/2 179/2/2 182/2/2
f 182/2/2 179/2/2 183/2/2
f 180/2/2 181/2/2 184/2/2
f 184/2/2 181/2/2 185/2/2
f 182/1/2 183/1/2 186/1/2
f 186/1/2 183/1/2 187/1/2
f 184/1/2 185/1/2 188/1/2
f 188/1/2 185/1/2 189/1/2
f 190/4/2 191/4/2 192/4/2
f 192/4/2 191/4/2 193/4/2
f 188/2/2 189/2/2 194/2/2
f 194/2/2 189/2/2 195/2/2
f 192/5/2 193/5/2 196/5/2
f 196/5/2 193/5/2 197/5/2
f 194/3/2 195/3/2 198/3/2
f 198/3/2 195/3/2 199/3/2
f 196/4/2 197/4/2 202/4/2
f 202/4/2 197/4/2 203/4/2
f 200/4/2 201/4/2 204/4/2
f 204/4/2 201/4/2 205/4/2
f 202/5/2 203/5/2 206/5/2
f 206/5/2 203/5/2 207/5/2
f 204/5/2 205/5/2 208/5/2
f 208/5/2 205/5/2 209/5/2
f 206/4/2 207/4/2 210/4/2
f 210/4/2 207/4/2 211/4/2
f 208/4/2 209/4/2 212/4/2
f 212/4/2 209/4/2 213/4/2
f 210/5/2 211/5/2 214/5/2
f 214/5/2 211/5/2 215/5/2
f 212/5/2 213/5/2 216/5/2
f 216/5/2 213/5/2 217/5/2
f 218/7/2 219/7/2 220/7/2
f 220/7/2 219/7/2 221/7/2
f 220/5/2 221/5/2 222/5/2
f 222/5/2 221/5/2 223/5/2
f 223/5/2 221/5/2 224/5/2
f 224/5/2 221/5/2 225/5/2
f 225/5/2 221/5/2 226/5/2
f 226/5/2 221/5/2 227/5/2
f 226/4/2 227/4/2 228/4/2
f 228/4/2 227/4/2 229/4/2
f 228/2/2 229/2/2 230/2/2
f 230/2/2 229/2/2 231/2/2
f 230/1/2 231/1/2 232/1/2
f 232/1/2 231/1/2 233/1/2
f 232/2/2 233/2/2 234/2/2
f 234/2/2 233/2/2 235/2/2
f 234/1/2 235/1/2 236/1/2
f 236/1/2 235/1/2 237/1/2
f 236/2/2 237/2/2 238/2/2
f 238/2/2 237/2/2 239/2/2
f 238/1/2 239/1/2 241/1/2
f 240/1/2 241/1/2 242/1/2
f 241/1/2 239/1/2 243/1/2
f 242/1/2 241/1/2 243/1/2
f 242/2/2 243/2/2 244/2/2
f 244/2/2 243/2/2 245/2/2
f 244/3/2 245/3/2 246/3/2
f 246/3/2 245/3/2 247/3/2
f 246/2/2 247/2/2 249/2/2
f 247/2/2 248/2/2 249/2/2
f 249/2/2 248/2/2 250/2/2
f 249/3/2 250/3/2 251/3/2
f 251/3/2 250/3/2 252/3/2
f 251/2/2 252/2/2 253/2/2
f 253/2/2 252/2/2 254/2/2
f 253/3/2 254/3/2 255/3/2
f 255/3/2 254/3/2 256/3/2
f 260/7/3 258/7/3 257/7/3
f 261/5/3 259/5/3 258/5/3
f 261/7/3 258/7/3 260/7/3
f 262/5/3 259/5/3 261/5/3
f 266/7/3 264/7/3 263/7/3
f 267/5/3 265/5/3 264/5/3
f 267/7/3 264/7/3 266/7/3
f 268/5/3 265/5/3 267/5/3
f 272/5/3 269/5/3 268/5/3
f 273/5/3 269/5/3 272/5/3
f 274/7/3 271/7/3 270/7/3
f 275/5/3 272/5/3 271/5/3
f 275/7/3 271/7/3 274/7/3
f 276/5/3 272/5/3 275/5/3
f 279/5/3 278/5/3 277/5/3
f 280/5/3 278/5/3 279/5/3
f 283/5/3 282/5/3 281/5/3
f 284/5/3 282/5/3 283/5/3
f 287/5/3 286/5/3 285/5/3
f 288/5/3 286/5/3 287/5/3
f 291/5/3 290/5/3 289/5/3
f 292/5/3 290/5/3 291/5/3
f 295/5/3 294/5/3 293/5/3
f 296/5/3 294/5/3 295/5/3
f 305/4/3 298/4/3 297/4/3
f 306/4/3 305/4/3 304/4/3
f 307/4/3 298/4/3 305/4/3
f 307/4/3 305/4/3 306/4/3
f 308/4/3 298/4/3 307/4/3
f 309/5/3 299/5/3 298/5/3
f 309/4/3 298/4/3 308/4/3
f 310/4/3 300/4/3 299/4/3
f 310/5/3 299/5/3 309/5/3
f 311/5/3 301/5/3 300/5/3
f 311/4/3 300/4/3 310/4/3
f 312/4/3 302/4/3 301/4/3
f 312/5/3 301/5/3 311/5/3
f 313/5/3 303/5/3 302/5/3
f 313/4/3 302/4/3 312/4/3
f 314/5/3 303/5/3 313/5/3
f 331/1/3 316/1/3 315/1/3
f 332/2/3 317/2/3 316/2/3
f 333/3/3 318/3/3 317/3/3
f 333/2/3 317/2/3 332/2/3
f 334/2/3 319/2/3 318/2/3
f 334/3/3 318/3/3 333/3/3
f 335/3/3 320/3/3 319/3/3
f 335/2/3 319/2/3 334/2/3
f 336/2/3 321/2/3 320/2/3
f 336/3/3 320/3/3 335/3/3
f 337/3/3 322/3/3 321/3/3
f 337/2/3 321/2/3 336/2/3
f 338/3/3 322/3/3 337/3/3
f 339/1/3 331/1/3 330/1/3
f 339/2/3 332/2/3 316/2/3
f 339/1/3 316/1/3 331/1/3
f 340/2/3 332/2/3 339/2/3
f 341/1/3 339/1/3 330/1/3
f 343/5/3 324/5/3 323/5/3
f 344/4/3 325/4/3 324/4/3
f 344/5/3 324/5/3 343/5/3
f 345/2/3 326/2/3 325/2/3
f 345/4/3 325/4/3 344/4/3
f 346/1/3 327/1/3 326/1/3
f 346/2/3 326/2/3 345/2/3
f 347/2/3 328/2/3 327/2/3
f 347/1/3 327/1/3 346/1/3
f 348/1/3 329/1/3 328/1/3
f 348/2/3 328/2/3 347/2/3
f 349/2/3 330/2/3 329/2/3
f 349/1/3 329/1/3 348/1/3
f 350/1/3 341/1/3 330/1/3
f 350/2/3 330/2/3 349/2/3
f 351/1/3 341/1/3 350/1/3
f 352/2/3 342/2/3 341/2/3
f 359/1/3 341/1/3 351/1/3
f 360/2/3 353/2/3 352/2/3
f 360/1/3 341/1/3 359/1/3
f 360/2/3 352/2/3 341/2/3
f 361/3/3 354/3/3 353/3/3
f 361/2/3 353/2/3 360/2/3
f 362/2/3 355/2/3 354/2/3
f 362/3/3 354/3/3 361/3/3
f 363/3/3 356/3/3 355/3/3
f 363/2/3 355/2/3 362/2/3
f 364/2/3 357/2/3 356/2/3
f 364/3/3 356/3/3 363/3/3
f 365/3/3 358/3/3 357/3/3
f 365/2/3 357/2/3 364/2/3
f 366/3/3 358/3/3 365/3/3
f 376/5/3 368/5/3 367/5/3
f 377/4/3 369/4/3 368/4/3
f 377/5/3 368/5/3 376/5/3
f 378/2/3 370/2/3 369/2/3
f 378/4/3 369/4/3 377/4/3
f 379/1/3 371/1/3 370/1/3
f 379/2/3 370/2/3 378/2/3
f 380/2/3 372/2/3 371/2/3
f 380/1/3 371/1/3 379/1/3
f 381/1/3 373/1/3 372/1/3
f 381/2/3 372/2/3 380/2/3
f 382/2/3 374/2/3 373/2/3
f 382/1/3 373/1/3 381/1/3
f 383/1/3 375/1/3 374/1/3
f 383/2/3 374/2/3 382/2/3
f 384/1/3 375/1/3 383/1/3
f 394/5/3 386/5/3 385/5/3
f 395/4/3 387/4/3 386/4/3
f 395/5/3 386/5/3 394/5/3
f 396/2/3 388/2/3 387/2/3
f 396/4/3 387/4/3 395/4/3
f 397/1/3 389/1/3 388/1/3
f 397/2/3 388/2/3 396/2/3
f 398/2/3 390/2/3 389/2/3
f 398/1/3 389/1/3 397/1/3
f 399/1/3 391/1/3 390/1/3
f 399/2/3 390/2/3 398/2/3
f 400/2/3 392/2/3 391/2/3
f 400/1/3 391/1/3 399/1/3
f 401/1/3 393/1/3 392/1/3
f 401/2/3 392/2/3 400/2/3
f 402/1/3 393/1/3 401/1/3
f 403/7/4 404/7/4 415/7/4
f 404/5/4 405/5/4 416/5/4
f 415/7/4 404/7/4 416/7/4
f 405/4/4 406/4/4 417/4/4
f 416/5/4 405/5/4 417/5/4
f 406/2/4 407/2/4 418/2/4
f 417/4/4 406/4/4 418/4/4
f 407/1/4 408/1/4 419/1/4
f 418/2/4 407/2/4 419/2/4
f 408/2/4 409/2/4 420/2/4
f 419/1/4 408/1/4 420/1/4
f 409/1/4 410/1/4 421/1/4
f 420/2/4 409/2/4 421/2/4
f 410/2/4 411/2/4 422/2/4
f 421/1/4 410/1/4 422/1/4
f 411/1/4 412/1/4 423/1/4
f 422/2/4 411/2/4 423/2/4
f 412/2/4 413/2/4 424/2/4
f 423/1/4 412/1/4 424/1/4
f 413/3/4 414/3/4 425/3/4
f 424/2/4 413/2/4 425/2/4
f 425/3/4 414/3/4 426/3/4
f 427/7/4 428/7/4 439/7/4
f 428/5/4 429/5/4 440/5/4
f 439/7/4 428/7/4 440/7/4
f 429/4/4 430/4/4 441/4/4
f 440/5/4 429/5/4 441/5/4
f 430/2/4 431/2/4 442/2/4
f 441/4/4 430/4/4 442/4/4
f 431/1/4 432/1/4 443/1/4
f 442/2/4 431/2/4 443/2/4
f 432/2/4 433/2/4 444/2/4
f 443/1/4 432/1/4 444/1/4
f 433/1/4 434/1/4 445/1/4
f 444/2/4 433/2/4 445/2/4
f 434/2/4 435/2/4 446/2/4
f 445/1/4 434/1/4 446/1/4
f 435/1/4 436/1/4 447/1/4
f 446/2/4 435/2/4 447/2/4
f 436/2/4 437/2/4 448/2/4
f 447/1/4 436/1/4 448/1/4
f 437/3/4 438/3/4 449/3/4
f 448/2/4 437/2/4 449/2/4
f 449/3/4 438/3/4 450/3/4
f 451/2/4 452/2/4 467/2/4
f 467/2/4 452/2/4 468/2/4
f 452/3/4 453/3/4 469/3/4
f 468/2/4 452/2/4 469/2/4
f 453/2/4 454/2/4 470/2/4
f 469/3/4 453/3/4 470/3/4
f 454/3/4 455/3/4 471/3/4
f 470/2/4 454/2/4 471/2/4
f 471/3/4 455/3/4 472/3/4
f 467/2/4 468/2/4 473/2/4
f 466/3/4 467/3/4 473/3/4
f 473/2/4 468/2/4 474/2/4
f 466/3/4 473/3/4 475/3/4
f 456/7/4 457/7/4 477/7/4
f 457/5/4 458/5/4 478/5/4
f 477/7/4 457/7/4 478/7/4
f 458/4/4 459/4/4 479/4/4
f 478/5/4 458/5/4 479/5/4
f 459/2/4 460/2/4 480/2/4
f 479/4/4 459/4/4 480/4/4
f 460/1/4 461/1/4 481/1/4
f 480/2/4 460/2/4 481/2/4
f 461/2/4 462/2/4 482/2/4
f 481/1/4 461/1/4 482/1/4
f 462/1/4 463/1/4 483/1/4
f 482/2/4 462/2/4 483/2/4
f 463/2/4 464/2/4 484/2/4
f 483/1/4 463/1/4 484/1/4
f 464/1/4 465/1/4 485/1/4
f 484/2/4 464/2/4 485/2/4
f 465/2/4 466/2/4 486/2/4
f 485/1/4 465/1/4 486/1/4
f 466/3/4 475/3/4 487/3/4
f 486/2/4 466/2/4 487/2/4
f 475/2/4 476/2/4 488/2/4
f 487/3/4 475/3/4 488/3/4
f 488/2/4 476/2/4 489/2/4
f 489/2/4 490/2/4 494/2/4
f 488/2/4 489/2/4 494/2/4
f 490/3/4 491/3/4 495/3/4
f 494/2/4 490/2/4 495/2/4
f 491/2/4 492/2/4 496/2/4
f 495/3/4 491/3/4 496/3/4
f 492/3/4 493/3/4 497/3/4
f 496/2/4 492/2/4 497/2/4
f 497/3/4 493/3/4 498/3/4
f 499/4/4 500/4/4 505/4/4
f 504/4/4 505/4/4 506/4/4
f 505/4/4 500/4/4 507/4/4
f 506/4/4 505/4/4 507/4/4
f 507/4/4 500/4/4 508/4/4
f 500/5/4 501/5/4 509/5/4
f 508/4/4 500/4/4 509/4/4
f 501/4/4 502/4/4 510/4/4
f 509/5/4 501/5/4 510/5/4
f 502/5/4 503/5/4 511/5/4
f 510/4/4 502/4/4 511/4/4
f 511/5/4 503/5/4 512/5/4
f 516/7/5 514/7/5 513/7/5
f 517/7/5 514/7/5 516/7/5
f 519/7/5 516/7/5 515/7/5
f 519/6/5 517/6/5 516/6/5
f 520/7/5 518/7/5 517/7/5
f 520/6/5 517/6/5 519/6/5
f 521/7/5 519/7/5 515/7/5
f 521/5/5 520/5/5 519/5/5
f 522/7/5 518/7/5 520/7/5
f 522/5/5 520/5/5 521/5/5
f 523/7/5 521/7/5 515/7/5
f 523/6/5 522/6/5 521/6/5
f 524/7/5 518/7/5 522/7/5
f 524/6/5 522/6/5 523/6/5
f 525/7/5 523/7/5 515/7/5
f 525/5/5 524/5/5 523/5/5
f 526/7/5 518/7/5 524/7/5
f 526/5/5 524/5/5 525/5/5
f 527/7/5 525/7/5 515/7/5
f 527/6/5 526/6/5 525/6/5
f 528/7/5 518/7/5 526/7/5
f 528/6/5 526/6/5 527/6/5
f 529/7/5 527/7/5 515/7/5
f 529/5/5 528/5/5 527/5/5
f 530/7/5 518/7/5 528/7/5
f 530/5/5 528/5/5 529/5/5
f 531/7/5 529/7/5 515/7/5
f 531/6/5 530/6/5 529/6/5
f 532/7/5 518/7/5 530/7/5
f 532/6/5 530/6/5 531/6/5
f 533/7/5 531/7/5 515/7/5
f 533/5/5 532/5/5 531/5/5
f 534/7/5 518/7/5 532/7/5
f 534/5/5 532/5/5 533/5/5
f 535/7/5 533/7/5 515/7/5
f 536/6/5 534/6/5 533/6/5
f 536/7/5 533/7/5 535/7/5
f 537/7/5 518/7/5 534/7/5
f 537/6/5 534/6/5 536/6/5
f 538/7/5 518/7/5 537/7/5
f 539/7/5 537/7/5 536/7/5
f 540/7/5 537/7/5 539/7/5
f 545/1/5 542/1/5 541/1/5
f 546/1/5 542/1/5 545/1/5
f 547/1/5 544/1/5 543/1/5
f 548/1/5 544/1/5 547/1/5
f 551/4/5 550/4/5 549/4/5
f 552/4/5 550/4/5 551/4/5
f 557/4/5 554/4/5 553/4/5
f 558/4/5 554/4/5 557/4/5
f 559/4/5 556/4/5 555/4/5
f 560/4/5 556/4/5 559/4/5
f 565/2/5 562/2/5 561/2/5
f 566/2/5 562/2/5 565/2/5
f 569/2/5 564/2/5 563/2/5
f 570/2/5 564/2/5 569/2/5
f 571/4/5 568/4/5 567/4/5
f 572/4/5 568/4/5 571/4/5
f 577/4/5 574/4/5 573/4/5
f 578/4/5 574/4/5 577/4/5
f 579/4/5 576/4/5 575/4/5
f 580/4/5 576/4/5 579/4/5
f 581/5/6 582/5/6 584/5/6
f 584/5/6 582/5/6 585/5/6
f 583/5/6 584/5/6 587/5/6
f 587/5/6 584/5/6 588/5/6
f 585/5/6 586/5/6 589/5/6
f 589/5/6 586/5/6 590/5/6
f 591/5/6 592/5/6 594/5/6
f 594/5/6 592/5/6 595/5/6
f 595/5/6 592/5/6 596/5/6
f 596/5/6 592/5/6 597/5/6
f 593/5/6 594/5/6 599/5/6
f 594/5/6 595/5/6 599/5/6
f 599/5/6 595/5/6 600/5/6
f 597/5/6 598/5/6 601/5/6
f 596/5/6 597/5/6 601/5/6
f 601/5/6 598/5/6 602/5/6
f 593/5/6 599/5/6 603/5/6
f 603/5/6 599/5/6 604/5/6
f 602/5/6 598/5/6 605/5/6
f 605/5/6 598/5/6 606/5/6
f 607/5/6 608/5/6 610/5/6
f 610/5/6 608/5/6 611/5/6
f 609/5/6 610/5/6 613/5/6
f 611/5/6 612/5/6 613/5/6
f 610/5/6 611/5/6 613/5/6
f 613/5/6 612/5/6 614/5/6
f 615/5/6 616/5/6 618/5/6
f 618/5/6 616/5/6 619/5/6
f 617/3/6 618/3/6 621/3/6
f 618/1/6 619/1/6 622/1/6
f 621/3/6 618/3/6 622/3/6
f 619/3/6 620/3/6 623/3/6
f 622/1/6 619/1/6 623/1/6
f 623/3/6 620/3/6 624/3/6
f 622/5/6 623/5/6 625/5/6
f 625/5/6 623/5/6 626/5/6
