# MagicaVoxel @ Ephtracy

# group
o Pierna-Pie

# material
mtllib Movement Monster-5-Pierna-Pie.mtl
usemtl palette

# normals
vn -1 0 0
vn 1 0 0
vn 0 0 1
vn 0 0 -1
vn 0 -1 0
vn 0 1 0

# texcoords
vt 0.564453 0.5
vt 0.568359 0.5
vt 0.580078 0.5
vt 0.583984 0.5
vt 0.587891 0.5
vt 0.591797 0.5

# verts
v -0.3 -1.7 0.7
v -0.3 -1.7 -0.2
v -0.3 -1.6 0.7
v -0.3 -1.6 -0.2
v -0.3 -1.5 0.7
v -0.3 -1.5 0.6
v -0.3 -1.4 0.6
v -0.3 -1.4 0.2
v -0.3 -1.2 0.2
v -0.3 -1.2 -0.2
v -0.3 -1.1 0.2
v -0.3 -1.1 -0.2
v -0.3 -0.9 0.2
v -0.3 -0.9 -0.2
v -0.3 -0.7 0.2
v -0.3 -0.7 -0.2
v -0.3 -0.5 0.2
v -0.3 -0.5 -0.2
v -0.3 -0.3 0.2
v -0.3 -0.3 -0.2
v -0.3 -0.1 0.2
v -0.3 -0.1 -0.2
v -0.3 0 0.2
v -0.3 0 -0.2
v -0.2 -1.7 0.8
v -0.2 -1.7 0.7
v -0.2 -1.7 -0.2
v -0.2 -1.7 -0.3
v -0.2 -1.6 0.8
v -0.2 -1.6 0.7
v -0.2 -1.6 -0.2
v -0.2 -1.6 -0.3
v -0.2 -1.5 0.8
v -0.2 -1.5 0.7
v -0.2 -1.5 0.6
v -0.2 -1.4 0.7
v -0.2 -1.4 0.6
v -0.2 -1.4 0.5
v -0.2 -1.4 0.2
v -0.2 -1.3 0.5
v -0.2 -1.3 0.3
v -0.2 -1.2 0.3
v -0.2 -1.2 0.2
v -0.2 -1.2 -0.2
v -0.2 -1.2 -0.3
v -0.2 -1.1 0.3
v -0.2 -1.1 0.2
v -0.2 -1.1 -0.2
v -0.2 -1.1 -0.3
v -0.2 -0.9 0.3
v -0.2 -0.9 0.2
v -0.2 -0.9 -0.2
v -0.2 -0.9 -0.3
v -0.2 -0.7 0.3
v -0.2 -0.7 0.2
v -0.2 -0.7 -0.2
v -0.2 -0.7 -0.3
v -0.2 -0.5 0.3
v -0.2 -0.5 0.2
v -0.2 -0.5 -0.2
v -0.2 -0.5 -0.3
v -0.2 -0.3 0.3
v -0.2 -0.3 0.2
v -0.2 -0.3 -0.2
v -0.2 -0.3 -0.3
v -0.2 -0.1 0.3
v -0.2 -0.1 0.2
v -0.2 -0.1 -0.2
v -0.2 -0.1 -0.3
v -0.2 0 0.3
v -0.2 0 0.2
v -0.2 0 -0.2
v -0.2 0 -0.3
v -0.1 -1.4 0.6
v -0.1 -1.4 0.5
v -0.1 -1.3 0.6
v -0.1 -1.3 0.5
v 0.1 -1.4 0.6
v 0.1 -1.4 0.5
v 0.1 -1.3 0.6
v 0.1 -1.3 0.5
v 0.2 -1.7 0.8
v 0.2 -1.7 0.7
v 0.2 -1.7 -0.2
v 0.2 -1.7 -0.3
v 0.2 -1.6 0.8
v 0.2 -1.6 0.7
v 0.2 -1.6 -0.2
v 0.2 -1.6 -0.3
v 0.2 -1.5 0.8
v 0.2 -1.5 0.7
v 0.2 -1.5 0.6
v 0.2 -1.4 0.7
v 0.2 -1.4 0.6
v 0.2 -1.4 0.5
v 0.2 -1.4 0.2
v 0.2 -1.3 0.5
v 0.2 -1.3 0.3
v 0.2 -1.2 0.3
v 0.2 -1.2 0.2
v 0.2 -1.2 -0.2
v 0.2 -1.2 -0.3
v 0.2 -1.1 0.3
v 0.2 -1.1 0.2
v 0.2 -1.1 -0.2
v 0.2 -1.1 -0.3
v 0.2 -0.9 0.3
v 0.2 -0.9 0.2
v 0.2 -0.9 -0.2
v 0.2 -0.9 -0.3
v 0.2 -0.7 0.3
v 0.2 -0.7 0.2
v 0.2 -0.7 -0.2
v 0.2 -0.7 -0.3
v 0.2 -0.5 0.3
v 0.2 -0.5 0.2
v 0.2 -0.5 -0.2
v 0.2 -0.5 -0.3
v 0.2 -0.3 0.3
v 0.2 -0.3 0.2
v 0.2 -0.3 -0.2
v 0.2 -0.3 -0.3
v 0.2 -0.1 0.3
v 0.2 -0.1 0.2
v 0.2 -0.1 -0.2
v 0.2 -0.1 -0.3
v 0.2 0 0.3
v 0.2 0 0.2
v 0.2 0 -0.2
v 0.2 0 -0.3
v 0.3 -1.7 0.7
v 0.3 -1.7 -0.2
v 0.3 -1.6 0.7
v 0.3 -1.6 -0.2
v 0.3 -1.5 0.7
v 0.3 -1.5 0.6
v 0.3 -1.4 0.6
v 0.3 -1.4 0.2
v 0.3 -1.2 0.2
v 0.3 -1.2 -0.2
v 0.3 -1.1 0.2
v 0.3 -1.1 -0.2
v 0.3 -0.9 0.2
v 0.3 -0.9 -0.2
v 0.3 -0.7 0.2
v 0.3 -0.7 -0.2
v 0.3 -0.5 0.2
v 0.3 -0.5 -0.2
v 0.3 -0.3 0.2
v 0.3 -0.3 -0.2
v 0.3 -0.1 0.2
v 0.3 -0.1 -0.2
v 0.3 0 0.2
v 0.3 0 -0.2
v -0.2 -1.7 0.8
v -0.2 -1.6 0.8
v -0.2 -1.5 0.8
v 0.2 -1.7 0.8
v 0.2 -1.6 0.8
v 0.2 -1.5 0.8
v -0.3 -1.7 0.7
v -0.3 -1.6 0.7
v -0.3 -1.5 0.7
v -0.2 -1.7 0.7
v -0.2 -1.6 0.7
v -0.2 -1.5 0.7
v -0.2 -1.4 0.7
v 0.2 -1.7 0.7
v 0.2 -1.6 0.7
v 0.2 -1.5 0.7
v 0.2 -1.4 0.7
v 0.3 -1.7 0.7
v 0.3 -1.6 0.7
v 0.3 -1.5 0.7
v -0.3 -1.5 0.6
v -0.3 -1.4 0.6
v -0.2 -1.5 0.6
v -0.2 -1.4 0.6
v -0.1 -1.4 0.6
v -0.1 -1.3 0.6
v 0.1 -1.4 0.6
v 0.1 -1.3 0.6
v 0.2 -1.5 0.6
v 0.2 -1.4 0.6
v 0.3 -1.5 0.6
v 0.3 -1.4 0.6
v -0.2 -1.4 0.5
v -0.2 -1.3 0.5
v -0.1 -1.4 0.5
v -0.1 -1.3 0.5
v 0.1 -1.4 0.5
v 0.1 -1.3 0.5
v 0.2 -1.4 0.5
v 0.2 -1.3 0.5
v -0.2 -1.3 0.3
v -0.2 -1.2 0.3
v -0.2 -1.1 0.3
v -0.2 -0.9 0.3
v -0.2 -0.7 0.3
v -0.2 -0.5 0.3
v -0.2 -0.3 0.3
v -0.2 -0.1 0.3
v -0.2 0 0.3
v 0.2 -1.3 0.3
v 0.2 -1.2 0.3
v 0.2 -1.1 0.3
v 0.2 -0.9 0.3
v 0.2 -0.7 0.3
v 0.2 -0.5 0.3
v 0.2 -0.3 0.3
v 0.2 -0.1 0.3
v 0.2 0 0.3
v -0.3 -1.4 0.2
v -0.3 -1.2 0.2
v -0.3 -1.1 0.2
v -0.3 -0.9 0.2
v -0.3 -0.7 0.2
v -0.3 -0.5 0.2
v -0.3 -0.3 0.2
v -0.3 -0.1 0.2
v -0.3 0 0.2
v -0.2 -1.4 0.2
v -0.2 -1.2 0.2
v -0.2 -1.1 0.2
v -0.2 -0.9 0.2
v -0.2 -0.7 0.2
v -0.2 -0.5 0.2
v -0.2 -0.3 0.2
v -0.2 -0.1 0.2
v -0.2 0 0.2
v 0.2 -1.4 0.2
v 0.2 -1.2 0.2
v 0.2 -1.1 0.2
v 0.2 -0.9 0.2
v 0.2 -0.7 0.2
v 0.2 -0.5 0.2
v 0.2 -0.3 0.2
v 0.2 -0.1 0.2
v 0.2 0 0.2
v 0.3 -1.4 0.2
v 0.3 -1.2 0.2
v 0.3 -1.1 0.2
v 0.3 -0.9 0.2
v 0.3 -0.7 0.2
v 0.3 -0.5 0.2
v 0.3 -0.3 0.2
v 0.3 -0.1 0.2
v 0.3 0 0.2
v -0.3 -1.7 -0.2
v -0.3 -1.6 -0.2
v -0.3 -1.2 -0.2
v -0.3 -1.1 -0.2
v -0.3 -0.9 -0.2
v -0.3 -0.7 -0.2
v -0.3 -0.5 -0.2
v -0.3 -0.3 -0.2
v -0.3 -0.1 -0.2
v -0.3 0 -0.2
v -0.2 -1.7 -0.2
v -0.2 -1.6 -0.2
v -0.2 -1.2 -0.2
v -0.2 -1.1 -0.2
v -0.2 -0.9 -0.2
v -0.2 -0.7 -0.2
v -0.2 -0.5 -0.2
v -0.2 -0.3 -0.2
v -0.2 -0.1 -0.2
v -0.2 0 -0.2
v 0.2 -1.7 -0.2
v 0.2 -1.6 -0.2
v 0.2 -1.2 -0.2
v 0.2 -1.1 -0.2
v 0.2 -0.9 -0.2
v 0.2 -0.7 -0.2
v 0.2 -0.5 -0.2
v 0.2 -0.3 -0.2
v 0.2 -0.1 -0.2
v 0.2 0 -0.2
v 0.3 -1.7 -0.2
v 0.3 -1.6 -0.2
v 0.3 -1.2 -0.2
v 0.3 -1.1 -0.2
v 0.3 -0.9 -0.2
v 0.3 -0.7 -0.2
v 0.3 -0.5 -0.2
v 0.3 -0.3 -0.2
v 0.3 -0.1 -0.2
v 0.3 0 -0.2
v -0.2 -1.7 -0.3
v -0.2 -1.6 -0.3
v -0.2 -1.2 -0.3
v -0.2 -1.1 -0.3
v -0.2 -0.9 -0.3
v -0.2 -0.7 -0.3
v -0.2 -0.5 -0.3
v -0.2 -0.3 -0.3
v -0.2 -0.1 -0.3
v -0.2 0 -0.3
v 0.2 -1.7 -0.3
v 0.2 -1.6 -0.3
v 0.2 -1.2 -0.3
v 0.2 -1.1 -0.3
v 0.2 -0.9 -0.3
v 0.2 -0.7 -0.3
v 0.2 -0.5 -0.3
v 0.2 -0.3 -0.3
v 0.2 -0.1 -0.3
v 0.2 0 -0.3
v -0.2 -1.7 0.8
v 0.2 -1.7 0.8
v -0.3 -1.7 0.7
v -0.2 -1.7 0.7
v 0.2 -1.7 0.7
v 0.3 -1.7 0.7
v -0.2 -1.7 0.6
v 0.2 -1.7 0.6
v -0.2 -1.7 0.5
v 0.2 -1.7 0.5
v -0.2 -1.7 0.4
v 0.2 -1.7 0.4
v -0.2 -1.7 0.3
v 0.2 -1.7 0.3
v -0.2 -1.7 0.2
v 0.2 -1.7 0.2
v -0.2 -1.7 0.1
v 0.2 -1.7 0.1
v -0.2 -1.7 0
v 0.2 -1.7 0
v -0.2 -1.7 -0.1
v 0.2 -1.7 -0.1
v -0.3 -1.7 -0.2
v -0.2 -1.7 -0.2
v 0.2 -1.7 -0.2
v 0.3 -1.7 -0.2
v -0.2 -1.7 -0.3
v 0.2 -1.7 -0.3
v -0.2 -1.5 0.8
v 0.2 -1.5 0.8
v -0.3 -1.5 0.7
v -0.2 -1.5 0.7
v 0.2 -1.5 0.7
v 0.3 -1.5 0.7
v -0.3 -1.5 0.6
v -0.2 -1.5 0.6
v 0.2 -1.5 0.6
v 0.3 -1.5 0.6
v -0.2 -1.4 0.7
v 0.2 -1.4 0.7
v -0.3 -1.4 0.6
v -0.2 -1.4 0.6
v -0.1 -1.4 0.6
v 0.1 -1.4 0.6
v 0.2 -1.4 0.6
v 0.3 -1.4 0.6
v -0.2 -1.4 0.5
v -0.1 -1.4 0.5
v 0.1 -1.4 0.5
v 0.2 -1.4 0.5
v -0.3 -1.4 0.2
v -0.2 -1.4 0.2
v 0.2 -1.4 0.2
v 0.3 -1.4 0.2
v -0.1 -1.3 0.6
v 0.1 -1.3 0.6
v -0.2 -1.3 0.5
v -0.1 -1.3 0.5
v 0.1 -1.3 0.5
v 0.2 -1.3 0.5
v -0.2 -1.3 0.3
v 0.2 -1.3 0.3
v -0.2 0 0.3
v 0.2 0 0.3
v -0.3 0 0.2
v -0.2 0 0.2
v 0.2 0 0.2
v 0.3 0 0.2
v -0.3 0 -0.2
v -0.2 0 -0.2
v 0.2 0 -0.2
v 0.3 0 -0.2
v -0.2 0 -0.3
v 0.2 0 -0.3

# faces
f 3/6/1 2/6/1 1/6/1
f 4/6/1 2/6/1 3/6/1
f 5/4/1 4/4/1 3/4/1
f 6/4/1 4/4/1 5/4/1
f 7/4/1 4/4/1 6/4/1
f 8/4/1 4/4/1 7/4/1
f 9/4/1 4/4/1 8/4/1
f 10/4/1 4/4/1 9/4/1
f 11/3/1 10/3/1 9/3/1
f 12/3/1 10/3/1 11/3/1
f 13/2/1 12/2/1 11/2/1
f 14/2/1 12/2/1 13/2/1
f 15/1/1 14/1/1 13/1/1
f 16/1/1 14/1/1 15/1/1
f 17/2/1 16/2/1 15/2/1
f 18/2/1 16/2/1 17/2/1
f 19/1/1 18/1/1 17/1/1
f 20/1/1 18/1/1 19/1/1
f 21/2/1 20/2/1 19/2/1
f 22/2/1 20/2/1 21/2/1
f 23/1/1 22/1/1 21/1/1
f 24/1/1 22/1/1 23/1/1
f 29/6/1 26/6/1 25/6/1
f 30/6/1 26/6/1 29/6/1
f 31/6/1 28/6/1 27/6/1
f 32/6/1 28/6/1 31/6/1
f 33/4/1 30/4/1 29/4/1
f 34/4/1 30/4/1 33/4/1
f 36/4/1 35/4/1 34/4/1
f 37/4/1 35/4/1 36/4/1
f 40/4/1 39/4/1 38/4/1
f 41/4/1 39/4/1 40/4/1
f 42/4/1 39/4/1 41/4/1
f 43/4/1 39/4/1 42/4/1
f 44/4/1 32/4/1 31/4/1
f 45/4/1 32/4/1 44/4/1
f 46/3/1 43/3/1 42/3/1
f 47/3/1 43/3/1 46/3/1
f 48/3/1 45/3/1 44/3/1
f 49/3/1 45/3/1 48/3/1
f 50/2/1 47/2/1 46/2/1
f 51/2/1 47/2/1 50/2/1
f 52/2/1 49/2/1 48/2/1
f 53/2/1 49/2/1 52/2/1
f 54/1/1 51/1/1 50/1/1
f 55/1/1 51/1/1 54/1/1
f 56/1/1 53/1/1 52/1/1
f 57/1/1 53/1/1 56/1/1
f 58/2/1 55/2/1 54/2/1
f 59/2/1 55/2/1 58/2/1
f 60/2/1 57/2/1 56/2/1
f 61/2/1 57/2/1 60/2/1
f 62/1/1 59/1/1 58/1/1
f 63/1/1 59/1/1 62/1/1
f 64/1/1 61/1/1 60/1/1
f 65/1/1 61/1/1 64/1/1
f 66/2/1 63/2/1 62/2/1
f 67/2/1 63/2/1 66/2/1
f 68/2/1 65/2/1 64/2/1
f 69/2/1 65/2/1 68/2/1
f 70/1/1 67/1/1 66/1/1
f 71/1/1 67/1/1 70/1/1
f 72/1/1 69/1/1 68/1/1
f 73/1/1 69/1/1 72/1/1
f 76/4/1 75/4/1 74/4/1
f 77/4/1 75/4/1 76/4/1
f 78/4/2 79/4/2 80/4/2
f 80/4/2 79/4/2 81/4/2
f 82/6/2 83/6/2 86/6/2
f 86/6/2 83/6/2 87/6/2
f 84/6/2 85/6/2 88/6/2
f 88/6/2 85/6/2 89/6/2
f 86/4/2 87/4/2 90/4/2
f 90/4/2 87/4/2 91/4/2
f 91/4/2 92/4/2 93/4/2
f 93/4/2 92/4/2 94/4/2
f 95/4/2 96/4/2 97/4/2
f 97/4/2 96/4/2 98/4/2
f 98/4/2 96/4/2 99/4/2
f 99/4/2 96/4/2 100/4/2
f 88/4/2 89/4/2 101/4/2
f 101/4/2 89/4/2 102/4/2
f 99/3/2 100/3/2 103/3/2
f 103/3/2 100/3/2 104/3/2
f 101/3/2 102/3/2 105/3/2
f 105/3/2 102/3/2 106/3/2
f 103/2/2 104/2/2 107/2/2
f 107/2/2 104/2/2 108/2/2
f 105/2/2 106/2/2 109/2/2
f 109/2/2 106/2/2 110/2/2
f 107/1/2 108/1/2 111/1/2
f 111/1/2 108/1/2 112/1/2
f 109/1/2 110/1/2 113/1/2
f 113/1/2 110/1/2 114/1/2
f 111/2/2 112/2/2 115/2/2
f 115/2/2 112/2/2 116/2/2
f 113/2/2 114/2/2 117/2/2
f 117/2/2 114/2/2 118/2/2
f 115/1/2 116/1/2 119/1/2
f 119/1/2 116/1/2 120/1/2
f 117/1/2 118/1/2 121/1/2
f 121/1/2 118/1/2 122/1/2
f 119/2/2 120/2/2 123/2/2
f 123/2/2 120/2/2 124/2/2
f 121/2/2 122/2/2 125/2/2
f 125/2/2 122/2/2 126/2/2
f 123/1/2 124/1/2 127/1/2
f 127/1/2 124/1/2 128/1/2
f 125/1/2 126/1/2 129/1/2
f 129/1/2 126/1/2 130/1/2
f 131/6/2 132/6/2 133/6/2
f 133/6/2 132/6/2 134/6/2
f 133/4/2 134/4/2 135/4/2
f 135/4/2 134/4/2 136/4/2
f 136/4/2 134/4/2 137/4/2
f 137/4/2 134/4/2 138/4/2
f 138/4/2 134/4/2 139/4/2
f 139/4/2 134/4/2 140/4/2
f 139/3/2 140/3/2 141/3/2
f 141/3/2 140/3/2 142/3/2
f 141/2/2 142/2/2 143/2/2
f 143/2/2 142/2/2 144/2/2
f 143/1/2 144/1/2 145/1/2
f 145/1/2 144/1/2 146/1/2
f 145/2/2 146/2/2 147/2/2
f 147/2/2 146/2/2 148/2/2
f 147/1/2 148/1/2 149/1/2
f 149/1/2 148/1/2 150/1/2
f 149/2/2 150/2/2 151/2/2
f 151/2/2 150/2/2 152/2/2
f 151/1/2 152/1/2 153/1/2
f 153/1/2 152/1/2 154/1/2
f 158/6/3 156/6/3 155/6/3
f 159/4/3 157/4/3 156/4/3
f 159/6/3 156/6/3 158/6/3
f 160/4/3 157/4/3 159/4/3
f 164/6/3 162/6/3 161/6/3
f 165/4/3 163/4/3 162/4/3
f 165/6/3 162/6/3 164/6/3
f 166/4/3 163/4/3 165/4/3
f 170/4/3 167/4/3 166/4/3
f 171/4/3 167/4/3 170/4/3
f 172/6/3 169/6/3 168/6/3
f 173/4/3 170/4/3 169/4/3
f 173/6/3 169/6/3 172/6/3
f 174/4/3 170/4/3 173/4/3
f 177/4/3 176/4/3 175/4/3
f 178/4/3 176/4/3 177/4/3
f 181/4/3 180/4/3 179/4/3
f 182/4/3 180/4/3 181/4/3
f 185/4/3 184/4/3 183/4/3
f 186/4/3 184/4/3 185/4/3
f 189/4/3 188/4/3 187/4/3
f 190/4/3 188/4/3 189/4/3
f 193/4/3 192/4/3 191/4/3
f 194/4/3 192/4/3 193/4/3
f 204/4/3 196/4/3 195/4/3
f 205/3/3 197/3/3 196/3/3
f 205/4/3 196/4/3 204/4/3
f 206/2/3 198/2/3 197/2/3
f 206/3/3 197/3/3 205/3/3
f 207/1/3 199/1/3 198/1/3
f 207/2/3 198/2/3 206/2/3
f 208/2/3 200/2/3 199/2/3
f 208/1/3 199/1/3 207/1/3
f 209/1/3 201/1/3 200/1/3
f 209/2/3 200/2/3 208/2/3
f 210/2/3 202/2/3 201/2/3
f 210/1/3 201/1/3 209/1/3
f 211/1/3 203/1/3 202/1/3
f 211/2/3 202/2/3 210/2/3
f 212/1/3 203/1/3 211/1/3
f 222/4/3 214/4/3 213/4/3
f 223/3/3 215/3/3 214/3/3
f 223/4/3 214/4/3 222/4/3
f 224/2/3 216/2/3 215/2/3
f 224/3/3 215/3/3 223/3/3
f 225/1/3 217/1/3 216/1/3
f 225/2/3 216/2/3 224/2/3
f 226/2/3 218/2/3 217/2/3
f 226/1/3 217/1/3 225/1/3
f 227/1/3 219/1/3 218/1/3
f 227/2/3 218/2/3 226/2/3
f 228/2/3 220/2/3 219/2/3
f 228/1/3 219/1/3 227/1/3
f 229/1/3 221/1/3 220/1/3
f 229/2/3 220/2/3 228/2/3
f 230/1/3 221/1/3 229/1/3
f 240/4/3 232/4/3 231/4/3
f 241/3/3 233/3/3 232/3/3
f 241/4/3 232/4/3 240/4/3
f 242/2/3 234/2/3 233/2/3
f 242/3/3 233/3/3 241/3/3
f 243/1/3 235/1/3 234/1/3
f 243/2/3 234/2/3 242/2/3
f 244/2/3 236/2/3 235/2/3
f 244/1/3 235/1/3 243/1/3
f 245/1/3 237/1/3 236/1/3
f 245/2/3 236/2/3 244/2/3
f 246/2/3 238/2/3 237/2/3
f 246/1/3 237/1/3 245/1/3
f 247/1/3 239/1/3 238/1/3
f 247/2/3 238/2/3 246/2/3
f 248/1/3 239/1/3 247/1/3
f 249/6/4 250/6/4 259/6/4
f 250/4/4 251/4/4 260/4/4
f 259/6/4 250/6/4 260/6/4
f 251/3/4 252/3/4 261/3/4
f 260/4/4 251/4/4 261/4/4
f 252/2/4 253/2/4 262/2/4
f 261/3/4 252/3/4 262/3/4
f 253/1/4 254/1/4 263/1/4
f 262/2/4 253/2/4 263/2/4
f 254/2/4 255/2/4 264/2/4
f 263/1/4 254/1/4 264/1/4
f 255/1/4 256/1/4 265/1/4
f 264/2/4 255/2/4 265/2/4
f 256/2/4 257/2/4 266/2/4
f 265/1/4 256/1/4 266/1/4
f 257/1/4 258/1/4 267/1/4
f 266/2/4 257/2/4 267/2/4
f 267/1/4 258/1/4 268/1/4
f 269/6/4 270/6/4 279/6/4
f 270/4/4 271/4/4 280/4/4
f 279/6/4 270/6/4 280/6/4
f 271/3/4 272/3/4 281/3/4
f 280/4/4 271/4/4 281/4/4
f 272/2/4 273/2/4 282/2/4
f 281/3/4 272/3/4 282/3/4
f 273/1/4 274/1/4 283/1/4
f 282/2/4 273/2/4 283/2/4
f 274/2/4 275/2/4 284/2/4
f 283/1/4 274/1/4 284/1/4
f 275/1/4 276/1/4 285/1/4
f 284/2/4 275/2/4 285/2/4
f 276/2/4 277/2/4 286/2/4
f 285/1/4 276/1/4 286/1/4
f 277/1/4 278/1/4 287/1/4
f 286/2/4 277/2/4 287/2/4
f 287/1/4 278/1/4 288/1/4
f 289/6/4 290/6/4 299/6/4
f 290/4/4 291/4/4 300/4/4
f 299/6/4 290/6/4 300/6/4
f 291/3/4 292/3/4 301/3/4
f 300/4/4 291/4/4 301/4/4
f 292/2/4 293/2/4 302/2/4
f 301/3/4 292/3/4 302/3/4
f 293/1/4 294/1/4 303/1/4
f 302/2/4 293/2/4 303/2/4
f 294/2/4 295/2/4 304/2/4
f 303/1/4 294/1/4 304/1/4
f 295/1/4 296/1/4 305/1/4
f 304/2/4 295/2/4 305/2/4
f 296/2/4 297/2/4 306/2/4
f 305/1/4 296/1/4 306/1/4
f 297/1/4 298/1/4 307/1/4
f 306/2/4 297/2/4 307/2/4
f 307/1/4 298/1/4 308/1/4
f 312/6/5 310/6/5 309/6/5
f 313/6/5 310/6/5 312/6/5
f 315/6/5 312/6/5 311/6/5
f 315/5/5 313/5/5 312/5/5
f 316/6/5 314/6/5 313/6/5
f 316/5/5 313/5/5 315/5/5
f 317/6/5 315/6/5 311/6/5
f 317/4/5 316/4/5 315/4/5
f 318/6/5 314/6/5 316/6/5
f 318/4/5 316/4/5 317/4/5
f 319/6/5 317/6/5 311/6/5
f 319/5/5 318/5/5 317/5/5
f 320/6/5 314/6/5 318/6/5
f 320/5/5 318/5/5 319/5/5
f 321/6/5 319/6/5 311/6/5
f 321/4/5 320/4/5 319/4/5
f 322/6/5 314/6/5 320/6/5
f 322/4/5 320/4/5 321/4/5
f 323/6/5 321/6/5 311/6/5
f 323/5/5 322/5/5 321/5/5
f 324/6/5 314/6/5 322/6/5
f 324/5/5 322/5/5 323/5/5
f 325/6/5 323/6/5 311/6/5
f 325/4/5 324/4/5 323/4/5
f 326/6/5 314/6/5 324/6/5
f 326/4/5 324/4/5 325/4/5
f 327/6/5 325/6/5 311/6/5
f 327/5/5 326/5/5 325/5/5
f 328/6/5 314/6/5 326/6/5
f 328/5/5 326/5/5 327/5/5
f 329/6/5 327/6/5 311/6/5
f 329/4/5 328/4/5 327/4/5
f 330/6/5 314/6/5 328/6/5
f 330/4/5 328/4/5 329/4/5
f 331/6/5 329/6/5 311/6/5
f 332/5/5 330/5/5 329/5/5
f 332/6/5 329/6/5 331/6/5
f 333/6/5 314/6/5 330/6/5
f 333/5/5 330/5/5 332/5/5
f 334/6/5 314/6/5 333/6/5
f 335/6/5 333/6/5 332/6/5
f 336/6/5 333/6/5 335/6/5
f 337/4/6 338/4/6 340/4/6
f 340/4/6 338/4/6 341/4/6
f 339/4/6 340/4/6 343/4/6
f 343/4/6 340/4/6 344/4/6
f 341/4/6 342/4/6 345/4/6
f 345/4/6 342/4/6 346/4/6
f 347/4/6 348/4/6 350/4/6
f 350/4/6 348/4/6 351/4/6
f 351/4/6 348/4/6 352/4/6
f 352/4/6 348/4/6 353/4/6
f 349/4/6 350/4/6 355/4/6
f 350/4/6 351/4/6 355/4/6
f 355/4/6 351/4/6 356/4/6
f 353/4/6 354/4/6 357/4/6
f 352/4/6 353/4/6 357/4/6
f 357/4/6 354/4/6 358/4/6
f 349/4/6 355/4/6 359/4/6
f 359/4/6 355/4/6 360/4/6
f 358/4/6 354/4/6 361/4/6
f 361/4/6 354/4/6 362/4/6
f 363/4/6 364/4/6 366/4/6
f 366/4/6 364/4/6 367/4/6
f 365/4/6 366/4/6 369/4/6
f 367/4/6 368/4/6 369/4/6
f 366/4/6 367/4/6 369/4/6
f 369/4/6 368/4/6 370/4/6
f 371/1/6 372/1/6 374/1/6
f 374/1/6 372/1/6 375/1/6
f 373/1/6 374/1/6 377/1/6
f 375/1/6 376/1/6 377/1/6
f 374/1/6 375/1/6 377/1/6
f 377/1/6 376/1/6 378/1/6
f 378/1/6 376/1/6 379/1/6
f 379/1/6 376/1/6 380/1/6
f 378/1/6 379/1/6 381/1/6
f 381/1/6 379/1/6 382/1/6
